G04*
G04 #@! TF.GenerationSoftware,Altium Limited,Altium Designer,24.9.1 (31)*
G04*
G04 Layer_Color=16711935*
%FSLAX44Y44*%
%MOMM*%
G71*
G04*
G04 #@! TF.SameCoordinates,4335CC60-2305-4243-8225-37A9A20B0478*
G04*
G04*
G04 #@! TF.FilePolarity,Negative*
G04*
G01*
G75*
%ADD44C,2.0000*%
%ADD69C,1.8032*%
%ADD70R,1.8032X1.8032*%
%ADD71C,6.5532*%
%ADD72C,1.5240*%
%ADD73C,0.8032*%
%ADD74C,0.6032*%
D44*
X789000Y450000D02*
G03*
X850000Y389000I61000J0D01*
G01*
X789000Y950000D02*
G03*
X750000Y989000I-39000J0D01*
G01*
X989000Y350000D02*
G03*
X950000Y389000I-39000J0D01*
G01*
Y11000D02*
G03*
X989000Y50000I0J39000D01*
G01*
X49966Y989000D02*
G03*
X11000Y950000I34J-39000D01*
G01*
Y50000D02*
G03*
X50000Y11000I39000J0D01*
G01*
X789000Y450000D02*
Y950000D01*
X850000Y389000D02*
X950000D01*
X989000Y50000D02*
Y350000D01*
X50000Y989000D02*
X750000Y989000D01*
X50000Y11000D02*
X950000D01*
X11000Y50000D02*
Y950000D01*
D69*
X736000Y520200D02*
D03*
Y418600D02*
D03*
Y393200D02*
D03*
Y367800D02*
D03*
Y444000D02*
D03*
Y469400D02*
D03*
Y494800D02*
D03*
X746000Y843800D02*
D03*
Y742200D02*
D03*
Y716800D02*
D03*
Y691400D02*
D03*
Y767600D02*
D03*
Y793000D02*
D03*
Y818400D02*
D03*
X46000Y760000D02*
D03*
X646000Y944400D02*
D03*
D70*
X736000Y342400D02*
D03*
X746000Y666000D02*
D03*
X46000Y734600D02*
D03*
X646000Y919000D02*
D03*
D71*
X70000Y70000D02*
D03*
X730000Y930000D02*
D03*
X930000Y70000D02*
D03*
X70000Y930000D02*
D03*
D72*
Y92860D02*
D03*
X47140Y70000D02*
D03*
X70000Y47140D02*
D03*
X92860Y70000D02*
D03*
X86165Y86165D02*
D03*
X53836D02*
D03*
Y53836D02*
D03*
X86165D02*
D03*
X746164Y913836D02*
D03*
X713836D02*
D03*
Y946164D02*
D03*
X746164D02*
D03*
X752860Y930000D02*
D03*
X730000Y907140D02*
D03*
X707140Y930000D02*
D03*
X730000Y952860D02*
D03*
X946164Y53836D02*
D03*
X913836D02*
D03*
Y86165D02*
D03*
X946164D02*
D03*
X952860Y70000D02*
D03*
X930000Y47140D02*
D03*
X907140Y70000D02*
D03*
X930000Y92860D02*
D03*
X86165Y913836D02*
D03*
X53836D02*
D03*
Y946164D02*
D03*
X86165D02*
D03*
X92860Y930000D02*
D03*
X70000Y907140D02*
D03*
X47140Y930000D02*
D03*
X70000Y952860D02*
D03*
D73*
X750132Y988820D02*
D03*
X739132Y988807D02*
D03*
X728132D02*
D03*
X717132D02*
D03*
X706132D02*
D03*
X695132D02*
D03*
X684132D02*
D03*
X673132D02*
D03*
X662132D02*
D03*
X651132D02*
D03*
X640132D02*
D03*
X629132D02*
D03*
X618132D02*
D03*
X607132D02*
D03*
X596132D02*
D03*
X585132D02*
D03*
X574132D02*
D03*
X563132D02*
D03*
X552132D02*
D03*
X541132D02*
D03*
X530132D02*
D03*
X519132D02*
D03*
X508132D02*
D03*
X497132D02*
D03*
X486132D02*
D03*
X475132D02*
D03*
X464132D02*
D03*
X453132D02*
D03*
X442132D02*
D03*
X431132D02*
D03*
X420132D02*
D03*
X409132D02*
D03*
X398132Y988807D02*
D03*
X387132D02*
D03*
X376132D02*
D03*
X365132D02*
D03*
X354132D02*
D03*
X343132D02*
D03*
X332132D02*
D03*
X321133D02*
D03*
X310133D02*
D03*
X299132D02*
D03*
X288132D02*
D03*
X277133D02*
D03*
X266133D02*
D03*
X255133D02*
D03*
X244133D02*
D03*
X233133D02*
D03*
X222133D02*
D03*
X211133D02*
D03*
X200133D02*
D03*
X189133D02*
D03*
X178133D02*
D03*
X167133D02*
D03*
X156133D02*
D03*
X145133D02*
D03*
X134133D02*
D03*
X123133D02*
D03*
X112133D02*
D03*
X101133D02*
D03*
X90133D02*
D03*
X79133D02*
D03*
X68133D02*
D03*
X57133D02*
D03*
X46135Y988611D02*
D03*
X35464Y985940D02*
D03*
X25929Y980454D02*
D03*
X18391Y972443D02*
D03*
X13312Y962686D02*
D03*
X11278Y951876D02*
D03*
X11193Y940876D02*
D03*
Y929877D02*
D03*
Y918877D02*
D03*
Y907877D02*
D03*
Y896877D02*
D03*
Y885877D02*
D03*
Y874877D02*
D03*
Y863877D02*
D03*
Y852877D02*
D03*
Y841877D02*
D03*
Y830877D02*
D03*
Y819877D02*
D03*
Y808877D02*
D03*
Y797877D02*
D03*
Y786877D02*
D03*
Y775877D02*
D03*
Y764877D02*
D03*
Y753877D02*
D03*
Y742877D02*
D03*
Y731877D02*
D03*
Y720877D02*
D03*
Y709877D02*
D03*
Y698877D02*
D03*
Y687877D02*
D03*
Y676877D02*
D03*
Y665877D02*
D03*
Y654877D02*
D03*
Y643877D02*
D03*
Y632877D02*
D03*
Y621877D02*
D03*
Y610877D02*
D03*
Y599877D02*
D03*
Y588877D02*
D03*
Y577877D02*
D03*
Y566877D02*
D03*
Y555877D02*
D03*
Y544877D02*
D03*
Y533877D02*
D03*
Y522877D02*
D03*
Y511877D02*
D03*
Y500877D02*
D03*
Y489877D02*
D03*
Y478877D02*
D03*
Y467878D02*
D03*
Y456878D02*
D03*
Y445877D02*
D03*
Y434878D02*
D03*
Y423878D02*
D03*
Y412878D02*
D03*
Y401878D02*
D03*
Y390878D02*
D03*
Y379878D02*
D03*
Y368878D02*
D03*
Y357878D02*
D03*
Y346878D02*
D03*
Y335878D02*
D03*
Y324878D02*
D03*
Y313878D02*
D03*
Y302878D02*
D03*
Y291878D02*
D03*
Y280878D02*
D03*
Y269878D02*
D03*
Y258878D02*
D03*
Y247878D02*
D03*
Y236878D02*
D03*
Y225878D02*
D03*
Y214878D02*
D03*
Y203878D02*
D03*
Y192878D02*
D03*
Y181878D02*
D03*
Y170878D02*
D03*
Y159878D02*
D03*
Y148878D02*
D03*
Y137878D02*
D03*
Y126878D02*
D03*
Y115878D02*
D03*
Y104878D02*
D03*
Y93878D02*
D03*
Y82878D02*
D03*
Y71878D02*
D03*
Y60878D02*
D03*
X11181Y49878D02*
D03*
X12825Y39002D02*
D03*
X17376Y28987D02*
D03*
X24609Y20700D02*
D03*
X33848Y14730D02*
D03*
X44402Y11629D02*
D03*
X55393Y11193D02*
D03*
X66393D02*
D03*
X77393D02*
D03*
X88393D02*
D03*
X99393D02*
D03*
X110393D02*
D03*
X121393D02*
D03*
X132393D02*
D03*
X143393D02*
D03*
X154393D02*
D03*
X165393D02*
D03*
X176393D02*
D03*
X187393D02*
D03*
X198393D02*
D03*
X209393D02*
D03*
X220393D02*
D03*
X231393D02*
D03*
X242393D02*
D03*
X253393D02*
D03*
X264393D02*
D03*
X275393D02*
D03*
X286392D02*
D03*
X297393D02*
D03*
X308393D02*
D03*
X319393D02*
D03*
X330392D02*
D03*
X341392D02*
D03*
X352392D02*
D03*
X363392D02*
D03*
X374392D02*
D03*
X385392D02*
D03*
X396392D02*
D03*
X407392D02*
D03*
X418392D02*
D03*
X429392D02*
D03*
X440392D02*
D03*
X451392D02*
D03*
X462392D02*
D03*
X473392D02*
D03*
X484392D02*
D03*
X495392D02*
D03*
X506392D02*
D03*
X517392D02*
D03*
X528392D02*
D03*
X539392D02*
D03*
X550392D02*
D03*
X561392D02*
D03*
X572392D02*
D03*
X583392D02*
D03*
X594392D02*
D03*
X605392D02*
D03*
X616392D02*
D03*
X627392D02*
D03*
X638392D02*
D03*
X649392D02*
D03*
X660392D02*
D03*
X671392D02*
D03*
X682392D02*
D03*
X693392D02*
D03*
X704392D02*
D03*
X715392D02*
D03*
X726392D02*
D03*
X737392D02*
D03*
X748392D02*
D03*
X759392D02*
D03*
X770392D02*
D03*
X781392D02*
D03*
X792392D02*
D03*
X803391D02*
D03*
X814391D02*
D03*
X825391D02*
D03*
X836391D02*
D03*
X847391D02*
D03*
X858391D02*
D03*
X869391D02*
D03*
X880391D02*
D03*
X891391D02*
D03*
X902391D02*
D03*
X913391D02*
D03*
X924391D02*
D03*
X935391D02*
D03*
X946391D02*
D03*
X957366Y11930D02*
D03*
X967763Y15524D02*
D03*
X976729Y21896D02*
D03*
X983536Y30536D02*
D03*
X987672Y40729D02*
D03*
X988807Y51671D02*
D03*
Y62670D02*
D03*
Y73671D02*
D03*
Y84670D02*
D03*
Y95670D02*
D03*
Y106670D02*
D03*
Y117670D02*
D03*
Y128670D02*
D03*
Y139670D02*
D03*
Y150670D02*
D03*
Y161670D02*
D03*
Y172670D02*
D03*
Y183670D02*
D03*
Y194670D02*
D03*
Y205670D02*
D03*
Y216670D02*
D03*
Y227670D02*
D03*
Y238670D02*
D03*
Y249670D02*
D03*
Y260670D02*
D03*
Y271670D02*
D03*
Y282670D02*
D03*
Y293670D02*
D03*
Y304670D02*
D03*
Y315670D02*
D03*
Y326670D02*
D03*
Y337670D02*
D03*
Y348670D02*
D03*
X987577Y359601D02*
D03*
X983370Y369765D02*
D03*
X976473Y378334D02*
D03*
X967462Y384642D02*
D03*
X957029Y388128D02*
D03*
X946050Y388807D02*
D03*
X935050D02*
D03*
X924050D02*
D03*
X913050D02*
D03*
X902050D02*
D03*
X891050D02*
D03*
X880050D02*
D03*
X869050D02*
D03*
X858050D02*
D03*
X847051Y388937D02*
D03*
X836159Y390480D02*
D03*
X825711Y393920D02*
D03*
X816033Y399148D02*
D03*
X807473Y406056D02*
D03*
X800302Y414398D02*
D03*
X794688Y423857D02*
D03*
X790950Y434202D02*
D03*
X789095Y445045D02*
D03*
X788807Y456041D02*
D03*
Y467041D02*
D03*
Y478041D02*
D03*
Y489041D02*
D03*
Y500041D02*
D03*
Y511041D02*
D03*
Y522041D02*
D03*
Y533041D02*
D03*
Y544041D02*
D03*
Y555041D02*
D03*
Y566041D02*
D03*
Y577041D02*
D03*
Y588041D02*
D03*
Y599041D02*
D03*
Y610041D02*
D03*
Y621041D02*
D03*
Y632040D02*
D03*
Y643040D02*
D03*
Y654041D02*
D03*
Y665041D02*
D03*
Y676040D02*
D03*
Y687040D02*
D03*
Y698040D02*
D03*
Y709040D02*
D03*
Y720040D02*
D03*
Y731040D02*
D03*
Y742040D02*
D03*
Y753040D02*
D03*
Y764040D02*
D03*
Y775040D02*
D03*
Y786040D02*
D03*
Y797040D02*
D03*
Y808040D02*
D03*
Y819040D02*
D03*
Y830040D02*
D03*
Y841040D02*
D03*
Y852040D02*
D03*
Y863040D02*
D03*
Y874040D02*
D03*
Y885040D02*
D03*
Y896040D02*
D03*
Y907040D02*
D03*
Y918040D02*
D03*
Y929040D02*
D03*
Y940040D02*
D03*
X788769Y951040D02*
D03*
X786920Y961883D02*
D03*
X782090Y971766D02*
D03*
X774702Y979916D02*
D03*
X765299Y985624D02*
D03*
D74*
X301000Y780000D02*
D03*
X306000Y769000D02*
D03*
X471000Y827000D02*
D03*
X560000Y824000D02*
D03*
X386000Y339000D02*
D03*
X367000D02*
D03*
X465000Y407000D02*
D03*
Y397000D02*
D03*
X464000Y417000D02*
D03*
X460000Y422000D02*
D03*
X464000Y427000D02*
D03*
X438000Y521000D02*
D03*
X464000Y499000D02*
D03*
X465000Y507000D02*
D03*
X370000Y546000D02*
D03*
X297000D02*
D03*
X254000Y481000D02*
D03*
X224000Y478000D02*
D03*
X240000Y446000D02*
D03*
Y495000D02*
D03*
X652000Y778000D02*
D03*
X700000Y773000D02*
D03*
X711000Y802000D02*
D03*
X274000Y768000D02*
D03*
X107000Y613000D02*
D03*
X212000Y390450D02*
D03*
Y377450D02*
D03*
X132000Y436550D02*
D03*
Y423550D02*
D03*
X265000Y121000D02*
D03*
Y135000D02*
D03*
Y149000D02*
D03*
Y163000D02*
D03*
Y177000D02*
D03*
Y191000D02*
D03*
X330000Y135000D02*
D03*
X331000Y145000D02*
D03*
X352000Y166000D02*
D03*
X466000Y481000D02*
D03*
X459000Y521000D02*
D03*
X284000Y511000D02*
D03*
X281000Y503000D02*
D03*
X394000Y339000D02*
D03*
X359000D02*
D03*
X352000Y146000D02*
D03*
X382000Y176000D02*
D03*
Y186000D02*
D03*
X352000D02*
D03*
M02*
