G04*
G04 #@! TF.GenerationSoftware,Altium Limited,Altium Designer,24.9.1 (31)*
G04*
G04 Layer_Physical_Order=4*
G04 Layer_Color=16711680*
%FSLAX44Y44*%
%MOMM*%
G71*
G04*
G04 #@! TF.SameCoordinates,4335CC60-2305-4243-8225-37A9A20B0478*
G04*
G04*
G04 #@! TF.FilePolarity,Positive*
G04*
G01*
G75*
%ADD44C,2.0000*%
%ADD72C,1.5240*%
%ADD80C,0.3200*%
%ADD81C,0.5000*%
%ADD82C,0.2600*%
%ADD83C,1.6000*%
%ADD84R,1.6000X1.6000*%
%ADD85C,6.3500*%
%ADD86C,0.6000*%
%ADD87C,0.4000*%
G36*
X754680Y973528D02*
X759180Y972162D01*
X763327Y969946D01*
X766962Y966963D01*
X769946Y963327D01*
X772162Y959180D01*
X773528Y954680D01*
X773958Y950310D01*
X773927Y950000D01*
Y450000D01*
X773880D01*
X774359Y441477D01*
X775789Y433062D01*
X778152Y424859D01*
X781419Y416973D01*
X785548Y409502D01*
X790487Y402540D01*
X796175Y396175D01*
X802540Y390487D01*
X809502Y385548D01*
X816973Y381418D01*
X824859Y378152D01*
X833062Y375789D01*
X841477Y374359D01*
X850000Y373880D01*
Y373927D01*
X950000D01*
X950310Y373958D01*
X954680Y373528D01*
X959180Y372163D01*
X963327Y369946D01*
X966963Y366963D01*
X969946Y363327D01*
X972162Y359180D01*
X973528Y354680D01*
X973958Y350310D01*
X973927Y350000D01*
Y50000D01*
X973958Y49690D01*
X973528Y45320D01*
X972162Y40820D01*
X969946Y36673D01*
X966963Y33038D01*
X963327Y30054D01*
X959180Y27838D01*
X954680Y26472D01*
X950310Y26042D01*
X950000Y26073D01*
X50000D01*
X49690Y26042D01*
X45320Y26472D01*
X40820Y27838D01*
X36673Y30054D01*
X33038Y33038D01*
X30054Y36673D01*
X27838Y40820D01*
X26472Y45320D01*
X26042Y49690D01*
X26073Y50000D01*
Y950000D01*
X26042Y950310D01*
X26472Y954680D01*
X27838Y959180D01*
X30054Y963327D01*
X33038Y966963D01*
X36673Y969946D01*
X40820Y972162D01*
X45320Y973528D01*
X48034Y973795D01*
X49979Y973929D01*
X50000Y973927D01*
X51979Y973927D01*
X489884Y973927D01*
X490649Y972080D01*
X442035Y923465D01*
X440819Y921646D01*
X440392Y919500D01*
Y851500D01*
X440819Y849354D01*
X442035Y847535D01*
X459035Y830535D01*
X460854Y829319D01*
X463000Y828892D01*
X466000D01*
X468146Y829319D01*
X469965Y830535D01*
X471181Y832354D01*
X471608Y834500D01*
X471181Y836646D01*
X469965Y838465D01*
X468146Y839681D01*
X466000Y840108D01*
X465323D01*
X451608Y853823D01*
Y917177D01*
X504965Y970535D01*
X506181Y972354D01*
X506494Y973927D01*
X661019Y973927D01*
X662392Y972212D01*
Y905823D01*
X579677Y823108D01*
X563631D01*
X563500Y823304D01*
Y824696D01*
X562967Y825983D01*
X561983Y826967D01*
X560696Y827500D01*
X559304D01*
X558017Y826967D01*
X557033Y825983D01*
X556500Y824696D01*
Y823304D01*
X556369Y823108D01*
X480656D01*
X479298Y824465D01*
X477479Y825681D01*
X475333Y826108D01*
X473187Y825681D01*
X471368Y824465D01*
X470152Y822646D01*
X469725Y820500D01*
X470152Y818354D01*
X471368Y816535D01*
X474368Y813535D01*
X476187Y812319D01*
X478333Y811892D01*
X582000D01*
X584146Y812319D01*
X585965Y813535D01*
X671965Y899535D01*
X673181Y901354D01*
X673608Y903500D01*
Y973927D01*
X750000D01*
X750310Y973958D01*
X754680Y973528D01*
D02*
G37*
%LPC*%
G36*
X647251Y953900D02*
X644749D01*
X642333Y953253D01*
X640167Y952002D01*
X638398Y950233D01*
X637147Y948067D01*
X636500Y945651D01*
Y943149D01*
X637147Y940733D01*
X638398Y938567D01*
X640167Y936798D01*
X642333Y935547D01*
X644749Y934900D01*
X647251D01*
X649667Y935547D01*
X651833Y936798D01*
X653602Y938567D01*
X654853Y940733D01*
X655500Y943149D01*
Y945651D01*
X654853Y948067D01*
X653602Y950233D01*
X651833Y952002D01*
X649667Y953253D01*
X647251Y953900D01*
D02*
G37*
G36*
X655500Y928500D02*
X636500D01*
Y909500D01*
X655500D01*
Y928500D01*
D02*
G37*
G36*
X732892Y966750D02*
X727108D01*
X721394Y965845D01*
X715893Y964058D01*
X710739Y961431D01*
X706059Y958031D01*
X701969Y953941D01*
X698569Y949261D01*
X695942Y944107D01*
X694155Y938606D01*
X693250Y932892D01*
Y927108D01*
X694155Y921394D01*
X695942Y915893D01*
X698569Y910739D01*
X701969Y906059D01*
X706059Y901969D01*
X710739Y898569D01*
X715893Y895942D01*
X721394Y894155D01*
X727108Y893250D01*
X732892D01*
X738606Y894155D01*
X744107Y895942D01*
X749261Y898569D01*
X753941Y901969D01*
X758031Y906059D01*
X761431Y910739D01*
X764058Y915893D01*
X765845Y921394D01*
X766750Y927108D01*
Y932892D01*
X765845Y938606D01*
X764058Y944107D01*
X761431Y949261D01*
X758031Y953941D01*
X753941Y958031D01*
X749261Y961431D01*
X744107Y964058D01*
X738606Y965845D01*
X732892Y966750D01*
D02*
G37*
G36*
X72892D02*
X67108D01*
X61394Y965845D01*
X55893Y964058D01*
X50739Y961431D01*
X46059Y958031D01*
X41969Y953941D01*
X38569Y949261D01*
X35942Y944107D01*
X34155Y938606D01*
X33250Y932892D01*
Y927108D01*
X34155Y921394D01*
X35942Y915893D01*
X38569Y910739D01*
X41969Y906059D01*
X46059Y901969D01*
X50739Y898569D01*
X55893Y895942D01*
X61394Y894155D01*
X67108Y893250D01*
X72892D01*
X78606Y894155D01*
X84107Y895942D01*
X89261Y898569D01*
X93941Y901969D01*
X98031Y906059D01*
X101431Y910739D01*
X104058Y915893D01*
X105845Y921394D01*
X106750Y927108D01*
Y932892D01*
X105845Y938606D01*
X104058Y944107D01*
X101431Y949261D01*
X98031Y953941D01*
X93941Y958031D01*
X89261Y961431D01*
X84107Y964058D01*
X78606Y965845D01*
X72892Y966750D01*
D02*
G37*
G36*
X747251Y853300D02*
X744749D01*
X742333Y852653D01*
X740167Y851402D01*
X738398Y849633D01*
X737738Y848490D01*
X667800D01*
X666005Y848133D01*
X664484Y847116D01*
X648684Y831316D01*
X647667Y829795D01*
X647310Y828000D01*
Y778000D01*
X647667Y776205D01*
X648684Y774684D01*
X650205Y773667D01*
X652000Y773310D01*
X653795Y773667D01*
X655316Y774684D01*
X656333Y776205D01*
X656690Y778000D01*
Y826057D01*
X669743Y839110D01*
X737738D01*
X738398Y837967D01*
X740167Y836198D01*
X742333Y834947D01*
X744749Y834300D01*
X747251D01*
X749667Y834947D01*
X751833Y836198D01*
X753602Y837967D01*
X754853Y840133D01*
X755500Y842549D01*
Y845051D01*
X754853Y847467D01*
X753602Y849633D01*
X751833Y851402D01*
X749667Y852653D01*
X747251Y853300D01*
D02*
G37*
G36*
X747500Y828910D02*
Y819900D01*
X756510D01*
X755822Y822468D01*
X754434Y824872D01*
X752472Y826834D01*
X750068Y828222D01*
X747500Y828910D01*
D02*
G37*
G36*
X744500Y828910D02*
X741932Y828222D01*
X739528Y826834D01*
X737566Y824872D01*
X736178Y822468D01*
X735490Y819900D01*
X744500D01*
Y828910D01*
D02*
G37*
G36*
Y816900D02*
X735490D01*
X736178Y814332D01*
X737566Y811928D01*
X739528Y809966D01*
X741932Y808578D01*
X744500Y807890D01*
Y816900D01*
D02*
G37*
G36*
X756510D02*
X747500D01*
Y807890D01*
X750068Y808578D01*
X752472Y809966D01*
X754434Y811928D01*
X755822Y814332D01*
X756510Y816900D01*
D02*
G37*
G36*
X747251Y802500D02*
X744749D01*
X742333Y801852D01*
X740167Y800602D01*
X738398Y798833D01*
X737147Y796667D01*
X736500Y794251D01*
Y791749D01*
X737147Y789333D01*
X738398Y787167D01*
X740167Y785398D01*
X742333Y784147D01*
X744749Y783500D01*
X747251D01*
X749667Y784147D01*
X751833Y785398D01*
X753602Y787167D01*
X754853Y789333D01*
X755500Y791749D01*
Y794251D01*
X754853Y796667D01*
X753602Y798833D01*
X751833Y800602D01*
X749667Y801852D01*
X747251Y802500D01*
D02*
G37*
G36*
X274696Y771500D02*
X273304D01*
X272017Y770967D01*
X271033Y769983D01*
X270500Y768696D01*
Y767304D01*
X271033Y766017D01*
X272017Y765033D01*
X273304Y764500D01*
X274696D01*
X275983Y765033D01*
X276967Y766017D01*
X277500Y767304D01*
Y768696D01*
X276967Y769983D01*
X275983Y770967D01*
X274696Y771500D01*
D02*
G37*
G36*
X47500Y770510D02*
Y761500D01*
X56510D01*
X55822Y764068D01*
X54434Y766472D01*
X52472Y768434D01*
X50068Y769822D01*
X47500Y770510D01*
D02*
G37*
G36*
X44500Y770510D02*
X41932Y769822D01*
X39528Y768434D01*
X37566Y766472D01*
X36178Y764068D01*
X35490Y761500D01*
X44500D01*
Y770510D01*
D02*
G37*
G36*
X56510Y758500D02*
X47500D01*
Y749490D01*
X50068Y750178D01*
X52472Y751566D01*
X54434Y753528D01*
X55822Y755932D01*
X56510Y758500D01*
D02*
G37*
G36*
X44500D02*
X35490D01*
X36178Y755932D01*
X37566Y753528D01*
X39528Y751566D01*
X41932Y750178D01*
X44500Y749490D01*
Y758500D01*
D02*
G37*
G36*
X711000Y806690D02*
X709205Y806333D01*
X707684Y805316D01*
X706667Y803795D01*
X706310Y802000D01*
Y786902D01*
X706667Y785107D01*
X707684Y783586D01*
X739527Y751742D01*
X739675Y751293D01*
X739600Y749235D01*
X738398Y748033D01*
X737738Y746890D01*
X715743D01*
X698133Y764500D01*
X703316Y769684D01*
X704333Y771205D01*
X704690Y773000D01*
X704333Y774795D01*
X703316Y776316D01*
X701795Y777333D01*
X700000Y777690D01*
X698205Y777333D01*
X696684Y776316D01*
X689684Y769316D01*
X688667Y767795D01*
X688310Y766000D01*
Y763000D01*
X688667Y761205D01*
X689684Y759684D01*
X710484Y738884D01*
X712005Y737867D01*
X713800Y737510D01*
X737738D01*
X738398Y736367D01*
X740167Y734598D01*
X742333Y733347D01*
X744749Y732700D01*
X747251D01*
X749667Y733347D01*
X750410Y733776D01*
X752410Y732622D01*
Y729843D01*
X748526Y725958D01*
X747251Y726300D01*
X744749D01*
X742333Y725652D01*
X740167Y724402D01*
X738398Y722633D01*
X737147Y720467D01*
X736500Y718051D01*
Y715549D01*
X737147Y713133D01*
X738398Y710967D01*
X740167Y709198D01*
X742333Y707947D01*
X744749Y707300D01*
X747251D01*
X749667Y707947D01*
X751833Y709198D01*
X753602Y710967D01*
X754853Y713133D01*
X755500Y715549D01*
Y718051D01*
X755158Y719325D01*
X760416Y724584D01*
X761433Y726105D01*
X761790Y727900D01*
Y746798D01*
X761433Y748593D01*
X760416Y750114D01*
X752473Y758058D01*
X752325Y758507D01*
X752400Y760565D01*
X753602Y761767D01*
X754853Y763933D01*
X755500Y766349D01*
Y768851D01*
X754853Y771267D01*
X753602Y773433D01*
X751833Y775202D01*
X749667Y776452D01*
X747251Y777100D01*
X744749D01*
X742333Y776452D01*
X740167Y775202D01*
X738398Y773433D01*
X737147Y771267D01*
X736925Y770438D01*
X734695Y769840D01*
X715690Y788845D01*
Y802000D01*
X715333Y803795D01*
X714316Y805316D01*
X712795Y806333D01*
X711000Y806690D01*
D02*
G37*
G36*
X55500Y744100D02*
X36500D01*
Y725100D01*
X55500D01*
Y744100D01*
D02*
G37*
G36*
X747500Y701910D02*
Y692900D01*
X756510D01*
X755822Y695468D01*
X754434Y697872D01*
X752472Y699834D01*
X750068Y701222D01*
X747500Y701910D01*
D02*
G37*
G36*
X744500Y701910D02*
X741932Y701222D01*
X739528Y699834D01*
X737566Y697872D01*
X736178Y695468D01*
X735490Y692900D01*
X744500D01*
Y701910D01*
D02*
G37*
G36*
Y689900D02*
X735490D01*
X736178Y687332D01*
X737566Y684928D01*
X739528Y682966D01*
X741932Y681578D01*
X744500Y680890D01*
Y689900D01*
D02*
G37*
G36*
X756510D02*
X747500D01*
Y680890D01*
X750068Y681578D01*
X752472Y682966D01*
X754434Y684928D01*
X755822Y687332D01*
X756510Y689900D01*
D02*
G37*
G36*
X755500Y675500D02*
X736500D01*
Y656500D01*
X755500D01*
Y675500D01*
D02*
G37*
G36*
X107696Y616500D02*
X106304D01*
X105017Y615967D01*
X104033Y614983D01*
X103500Y613696D01*
Y612304D01*
X104033Y611017D01*
X105017Y610033D01*
X106304Y609500D01*
X107696D01*
X108983Y610033D01*
X109967Y611017D01*
X110500Y612304D01*
Y613696D01*
X109967Y614983D01*
X108983Y615967D01*
X107696Y616500D01*
D02*
G37*
G36*
X737251Y529700D02*
X734749D01*
X732333Y529053D01*
X730167Y527802D01*
X728398Y526033D01*
X727147Y523867D01*
X726500Y521451D01*
Y518949D01*
X727147Y516533D01*
X728398Y514367D01*
X730167Y512598D01*
X732333Y511347D01*
X734749Y510700D01*
X737251D01*
X739667Y511347D01*
X741833Y512598D01*
X743602Y514367D01*
X744853Y516533D01*
X745500Y518949D01*
Y521451D01*
X744853Y523867D01*
X743602Y526033D01*
X741833Y527802D01*
X739667Y529053D01*
X737251Y529700D01*
D02*
G37*
G36*
X737500Y505310D02*
Y496300D01*
X746510D01*
X745822Y498868D01*
X744434Y501272D01*
X742472Y503234D01*
X740068Y504622D01*
X737500Y505310D01*
D02*
G37*
G36*
X734500Y505310D02*
X731932Y504622D01*
X729528Y503234D01*
X727566Y501272D01*
X726178Y498868D01*
X725490Y496300D01*
X734500D01*
Y505310D01*
D02*
G37*
G36*
X240696Y498500D02*
X239304D01*
X238017Y497967D01*
X237033Y496983D01*
X236500Y495696D01*
Y494304D01*
X237033Y493017D01*
X238017Y492033D01*
X239304Y491500D01*
X240696D01*
X241983Y492033D01*
X242967Y493017D01*
X243500Y494304D01*
Y495696D01*
X242967Y496983D01*
X241983Y497967D01*
X240696Y498500D01*
D02*
G37*
G36*
X734500Y493300D02*
X725490D01*
X726178Y490732D01*
X727566Y488328D01*
X729528Y486366D01*
X731932Y484978D01*
X734500Y484290D01*
Y493300D01*
D02*
G37*
G36*
X746510D02*
X737500D01*
Y484290D01*
X740068Y484978D01*
X742472Y486366D01*
X744434Y488328D01*
X745822Y490732D01*
X746510Y493300D01*
D02*
G37*
G36*
X737251Y478900D02*
X734749D01*
X732333Y478253D01*
X730167Y477002D01*
X728398Y475233D01*
X727147Y473067D01*
X726500Y470651D01*
Y468149D01*
X727147Y465733D01*
X728398Y463567D01*
X730167Y461798D01*
X732333Y460547D01*
X734749Y459900D01*
X737251D01*
X739667Y460547D01*
X741833Y461798D01*
X743602Y463567D01*
X744853Y465733D01*
X745500Y468149D01*
Y470651D01*
X744853Y473067D01*
X743602Y475233D01*
X741833Y477002D01*
X739667Y478253D01*
X737251Y478900D01*
D02*
G37*
G36*
X240696Y449500D02*
X239304D01*
X238017Y448967D01*
X237033Y447983D01*
X236500Y446696D01*
Y445304D01*
X237033Y444017D01*
X238017Y443033D01*
X239304Y442500D01*
X240696D01*
X241983Y443033D01*
X242967Y444017D01*
X243500Y445304D01*
Y446696D01*
X242967Y447983D01*
X241983Y448967D01*
X240696Y449500D01*
D02*
G37*
G36*
X737251Y453500D02*
X734749D01*
X732333Y452853D01*
X730167Y451602D01*
X728398Y449833D01*
X727147Y447667D01*
X726500Y445251D01*
Y442749D01*
X727147Y440333D01*
X728398Y438167D01*
X730167Y436398D01*
X732333Y435147D01*
X734749Y434500D01*
X737251D01*
X739667Y435147D01*
X741833Y436398D01*
X743602Y438167D01*
X744853Y440333D01*
X745500Y442749D01*
Y445251D01*
X744853Y447667D01*
X743602Y449833D01*
X741833Y451602D01*
X739667Y452853D01*
X737251Y453500D01*
D02*
G37*
G36*
Y428100D02*
X734749D01*
X732333Y427453D01*
X730167Y426202D01*
X728398Y424433D01*
X727147Y422267D01*
X726500Y419851D01*
Y417349D01*
X727147Y414933D01*
X728398Y412767D01*
X730167Y410998D01*
X732333Y409747D01*
X734749Y409100D01*
X737251D01*
X739667Y409747D01*
X741833Y410998D01*
X743602Y412767D01*
X744853Y414933D01*
X745500Y417349D01*
Y419851D01*
X744853Y422267D01*
X743602Y424433D01*
X741833Y426202D01*
X739667Y427453D01*
X737251Y428100D01*
D02*
G37*
G36*
Y402700D02*
X734749D01*
X732333Y402053D01*
X730167Y400802D01*
X728398Y399033D01*
X727147Y396867D01*
X726500Y394451D01*
Y391949D01*
X727147Y389533D01*
X728398Y387367D01*
X730167Y385598D01*
X732333Y384347D01*
X734749Y383700D01*
X737251D01*
X739667Y384347D01*
X741833Y385598D01*
X743602Y387367D01*
X744853Y389533D01*
X745500Y391949D01*
Y394451D01*
X744853Y396867D01*
X743602Y399033D01*
X741833Y400802D01*
X739667Y402053D01*
X737251Y402700D01*
D02*
G37*
G36*
X164175Y454484D02*
X121825D01*
X120147Y454151D01*
X118725Y453200D01*
X114800Y449275D01*
X113849Y447853D01*
X113516Y446175D01*
Y431925D01*
X113849Y430247D01*
X114800Y428825D01*
X118725Y424900D01*
X120147Y423950D01*
X121825Y423616D01*
X125734D01*
X128900Y420450D01*
X130322Y419500D01*
X132000Y419166D01*
X133678Y419500D01*
X135100Y420450D01*
X136051Y421872D01*
X136384Y423550D01*
X136051Y425228D01*
X135100Y426650D01*
X131700Y430050D01*
X135100Y433450D01*
X136051Y434872D01*
X136384Y436550D01*
X136051Y438228D01*
X135100Y439650D01*
X135758Y441616D01*
X160661D01*
X170002Y432274D01*
Y400613D01*
X170336Y398936D01*
X171287Y397513D01*
X190000Y378800D01*
X191422Y377850D01*
X193100Y377516D01*
X205734D01*
X208900Y374350D01*
X210322Y373400D01*
X212000Y373066D01*
X213678Y373400D01*
X215100Y374350D01*
X216050Y375772D01*
X216384Y377450D01*
X216050Y379128D01*
X215100Y380550D01*
X211700Y383950D01*
X215100Y387350D01*
X216050Y388772D01*
X216384Y390450D01*
X216050Y392128D01*
X215100Y393550D01*
X213678Y394501D01*
X212000Y394834D01*
X210322Y394501D01*
X208900Y393550D01*
X205734Y390384D01*
X196614D01*
X182871Y404128D01*
Y435788D01*
X182537Y437466D01*
X181587Y438889D01*
X167275Y453200D01*
X165853Y454151D01*
X164175Y454484D01*
D02*
G37*
G36*
X737500Y378310D02*
Y369300D01*
X746510D01*
X745822Y371868D01*
X744434Y374272D01*
X742472Y376234D01*
X740068Y377622D01*
X737500Y378310D01*
D02*
G37*
G36*
X734500Y378310D02*
X731932Y377622D01*
X729528Y376234D01*
X727566Y374272D01*
X726178Y371868D01*
X725490Y369300D01*
X734500D01*
Y378310D01*
D02*
G37*
G36*
Y366300D02*
X725490D01*
X726178Y363732D01*
X727566Y361328D01*
X729528Y359366D01*
X731932Y357978D01*
X734500Y357290D01*
Y366300D01*
D02*
G37*
G36*
X746510D02*
X737500D01*
Y357290D01*
X740068Y357978D01*
X742472Y359366D01*
X744434Y361328D01*
X745822Y363732D01*
X746510Y366300D01*
D02*
G37*
G36*
X459000Y525690D02*
X457205Y525333D01*
X455684Y524316D01*
X423684Y492316D01*
X422667Y490795D01*
X422310Y489000D01*
Y292000D01*
Y264632D01*
X421251Y264091D01*
X420310Y263854D01*
X418995Y264733D01*
X417200Y265090D01*
X404568D01*
X404311Y265491D01*
X404286Y265559D01*
X404129Y267090D01*
X405316Y267884D01*
X406333Y269405D01*
X406690Y271200D01*
Y285000D01*
Y292000D01*
Y335000D01*
X406333Y336795D01*
X405316Y338316D01*
X401316Y342316D01*
X399795Y343333D01*
X398000Y343690D01*
X394000D01*
X392205Y343333D01*
X390684Y342316D01*
X389667Y340795D01*
X389310Y339000D01*
X389667Y337205D01*
X390684Y335684D01*
X392205Y334667D01*
X394000Y334310D01*
X396057D01*
X397310Y333057D01*
Y292000D01*
Y285000D01*
Y272290D01*
X397058D01*
X395264Y271933D01*
X393742Y270916D01*
X392725Y269395D01*
X392661Y269071D01*
X392280Y268778D01*
X391206Y267379D01*
X390531Y265749D01*
X390301Y264000D01*
X390531Y262251D01*
X391206Y260621D01*
X391767Y259890D01*
X390891Y257890D01*
X384600D01*
X382805Y257533D01*
X381284Y256516D01*
X380267Y254995D01*
X380202Y254671D01*
X379822Y254379D01*
X378748Y252979D01*
X378073Y251349D01*
X377842Y249600D01*
X378073Y247851D01*
X378748Y246221D01*
X379822Y244822D01*
X380202Y244529D01*
X380267Y244205D01*
X381284Y242684D01*
Y242117D01*
X380267Y240595D01*
X380202Y240271D01*
X379822Y239979D01*
X378748Y238579D01*
X378073Y236949D01*
X377842Y235200D01*
X378073Y233451D01*
X378748Y231821D01*
X379822Y230422D01*
X380202Y230129D01*
X380267Y229805D01*
X381284Y228284D01*
Y227717D01*
X380267Y226195D01*
X380202Y225871D01*
X379822Y225579D01*
X378748Y224179D01*
X378073Y222549D01*
X377842Y220800D01*
X377870Y220592D01*
X375975Y219657D01*
X372316Y223316D01*
X361816Y233816D01*
X334690Y260943D01*
Y292000D01*
Y305600D01*
X334333Y307395D01*
X333316Y308916D01*
X332129Y309710D01*
X332286Y311241D01*
X332311Y311309D01*
X332568Y311710D01*
X347400D01*
X349195Y312067D01*
X350716Y313084D01*
X351733Y314605D01*
X351798Y314929D01*
X352178Y315222D01*
X353252Y316621D01*
X353927Y318251D01*
X354158Y320000D01*
X353927Y321749D01*
X353252Y323379D01*
X352178Y324779D01*
X351798Y325071D01*
X351733Y325395D01*
X350716Y326917D01*
X349195Y327933D01*
X347400Y328290D01*
X343288D01*
X342412Y330290D01*
X342973Y331021D01*
X343648Y332651D01*
X343878Y334400D01*
X343648Y336149D01*
X342973Y337779D01*
X341899Y339179D01*
X341518Y339471D01*
X341454Y339795D01*
X340437Y341316D01*
X338915Y342333D01*
X337120Y342690D01*
X334690D01*
Y366000D01*
Y381057D01*
X337943Y384310D01*
X348057D01*
X354310Y378057D01*
Y339000D01*
X354667Y337205D01*
X355684Y335684D01*
X357205Y334667D01*
X359000Y334310D01*
X360795Y334667D01*
X362316Y335684D01*
X363333Y337205D01*
X363690Y339000D01*
Y380000D01*
X363333Y381795D01*
X362316Y383316D01*
X353316Y392316D01*
X351795Y393333D01*
X350000Y393690D01*
X336000D01*
X334205Y393333D01*
X332684Y392316D01*
X326684Y386316D01*
X325667Y384795D01*
X325310Y383000D01*
Y366000D01*
Y341600D01*
X325667Y339805D01*
X326684Y338284D01*
X327871Y337490D01*
X327714Y335959D01*
X327689Y335891D01*
X327432Y335490D01*
X312600D01*
X310805Y335133D01*
X309284Y334117D01*
X308267Y332595D01*
X308202Y332271D01*
X307822Y331979D01*
X306748Y330579D01*
X306073Y328949D01*
X305842Y327200D01*
X306073Y325451D01*
X306748Y323821D01*
X307822Y322422D01*
X308202Y322129D01*
X308267Y321805D01*
X309284Y320284D01*
Y319716D01*
X308267Y318195D01*
X308202Y317871D01*
X307822Y317579D01*
X306748Y316179D01*
X306073Y314549D01*
X305842Y312800D01*
X306073Y311051D01*
X306748Y309421D01*
X307822Y308022D01*
X308202Y307729D01*
X308267Y307405D01*
X309284Y305884D01*
X310805Y304867D01*
X312600Y304510D01*
X325310D01*
Y292000D01*
Y259000D01*
X325667Y257205D01*
X326684Y255684D01*
X355184Y227184D01*
X365684Y216684D01*
X390152Y192215D01*
Y190785D01*
X388042Y188675D01*
X385532Y188993D01*
X385316Y189316D01*
X351316Y223316D01*
X299690Y274943D01*
Y292000D01*
Y388000D01*
Y431510D01*
X306173D01*
X307967Y431867D01*
X309489Y432883D01*
X310506Y434405D01*
X310570Y434729D01*
X310951Y435021D01*
X312025Y436421D01*
X312700Y438051D01*
X312931Y439800D01*
X312700Y441549D01*
X312025Y443179D01*
X311464Y443910D01*
X312341Y445910D01*
X312400D01*
X314195Y446267D01*
X315716Y447284D01*
X316733Y448805D01*
X316798Y449129D01*
X317178Y449421D01*
X318252Y450821D01*
X318927Y452451D01*
X319158Y454200D01*
X318927Y455949D01*
X318252Y457579D01*
X317178Y458978D01*
X316798Y459271D01*
X316733Y459595D01*
X315716Y461116D01*
X314195Y462133D01*
X312400Y462490D01*
X299690D01*
Y507000D01*
X299333Y508795D01*
X298316Y510316D01*
X294316Y514316D01*
X292795Y515333D01*
X291000Y515690D01*
X284000D01*
X282205Y515333D01*
X280684Y514316D01*
X279667Y512795D01*
X279310Y511000D01*
X279617Y509454D01*
X279540Y508690D01*
X279205Y507333D01*
X278853Y507098D01*
X277684Y506316D01*
X276667Y504795D01*
X276310Y503000D01*
Y410000D01*
Y383600D01*
X276667Y381805D01*
X277684Y380284D01*
X278871Y379490D01*
X278714Y377959D01*
X278689Y377891D01*
X278432Y377490D01*
X263600D01*
X261805Y377133D01*
X260284Y376116D01*
X259267Y374595D01*
X259202Y374271D01*
X258822Y373979D01*
X257748Y372579D01*
X257073Y370949D01*
X256842Y369200D01*
X257073Y367451D01*
X257748Y365821D01*
X258822Y364422D01*
X259202Y364129D01*
X259267Y363805D01*
X260284Y362284D01*
Y361716D01*
X259267Y360195D01*
X259202Y359871D01*
X258822Y359579D01*
X257748Y358179D01*
X257073Y356549D01*
X256842Y354800D01*
X257073Y353051D01*
X257748Y351421D01*
X258822Y350022D01*
X259202Y349729D01*
X259267Y349405D01*
X260284Y347884D01*
X261805Y346867D01*
X263600Y346510D01*
X276310D01*
Y292000D01*
Y257000D01*
X276667Y255205D01*
X277684Y253684D01*
X338829Y192538D01*
X338064Y190690D01*
X278943D01*
X275316Y194316D01*
X273795Y195333D01*
X272000Y195690D01*
X265000D01*
X263205Y195333D01*
X261684Y194316D01*
X260667Y192795D01*
X260310Y191000D01*
X260667Y189205D01*
X261684Y187684D01*
X263205Y186667D01*
X265000Y186310D01*
X270057D01*
X273198Y183169D01*
X272213Y181326D01*
X271153Y181537D01*
X265770D01*
X265000Y181690D01*
X263205Y181333D01*
X261684Y180316D01*
X260667Y178795D01*
X260310Y177000D01*
X260667Y175205D01*
X261684Y173684D01*
X261837Y173531D01*
X263358Y172514D01*
X264910Y172205D01*
X265404Y171224D01*
X265524Y170157D01*
X261684Y166316D01*
X260667Y164795D01*
X260310Y163000D01*
X260667Y161205D01*
X261684Y159684D01*
X263205Y158667D01*
X265000Y158310D01*
X266795Y158667D01*
X268316Y159684D01*
X270943Y162310D01*
X274892D01*
X275205Y160333D01*
X273684Y159316D01*
X268210Y153843D01*
X265153D01*
X263358Y153486D01*
X261837Y152470D01*
X261684Y152316D01*
X260667Y150795D01*
X260310Y149000D01*
X260667Y147205D01*
X261684Y145684D01*
X263205Y144667D01*
X265000Y144310D01*
X265770Y144463D01*
X270153D01*
X271948Y144820D01*
X273470Y145837D01*
X278943Y151310D01*
X289892D01*
X290205Y149333D01*
X288684Y148316D01*
X280057Y139690D01*
X265000D01*
X263205Y139333D01*
X261684Y138316D01*
X260667Y136795D01*
X260310Y135000D01*
X260667Y133205D01*
X261684Y131684D01*
X263205Y130667D01*
X265000Y130310D01*
X282000D01*
X283795Y130667D01*
X285316Y131684D01*
X293943Y140310D01*
X301067D01*
X301677Y138338D01*
X301677Y138310D01*
X289057Y125690D01*
X265000D01*
X263205Y125333D01*
X261684Y124316D01*
X260667Y122795D01*
X260310Y121000D01*
X260667Y119205D01*
X261684Y117684D01*
X263205Y116667D01*
X265000Y116310D01*
X291000D01*
X292795Y116667D01*
X294316Y117684D01*
X306943Y130310D01*
X337257D01*
X337884Y129684D01*
X339405Y128667D01*
X341200Y128310D01*
X376000D01*
X377795Y128667D01*
X379316Y129684D01*
X440316Y190684D01*
X441333Y192205D01*
X441690Y194000D01*
Y197000D01*
Y292000D01*
Y377000D01*
Y384710D01*
X445436D01*
X447231Y385067D01*
X448753Y386084D01*
X449769Y387605D01*
X449834Y387929D01*
X450215Y388222D01*
X451289Y389621D01*
X451964Y391251D01*
X452194Y393000D01*
X451964Y394749D01*
X451289Y396379D01*
X450215Y397779D01*
X449834Y398071D01*
X449769Y398395D01*
X448753Y399916D01*
X447231Y400933D01*
X445436Y401290D01*
X441690D01*
Y412000D01*
Y450057D01*
X469316Y477684D01*
X470333Y479205D01*
X470690Y481000D01*
X470333Y482795D01*
X469316Y484316D01*
X467795Y485333D01*
X466000Y485690D01*
X464205Y485333D01*
X462684Y484316D01*
X433690Y455323D01*
X433662Y455323D01*
X431690Y455933D01*
Y487057D01*
X462316Y517684D01*
X463333Y519205D01*
X463690Y521000D01*
X463333Y522795D01*
X462316Y524316D01*
X460795Y525333D01*
X459000Y525690D01*
D02*
G37*
G36*
X745500Y351900D02*
X726500D01*
Y332900D01*
X745500D01*
Y351900D01*
D02*
G37*
G36*
X932892Y106750D02*
X927108D01*
X921394Y105845D01*
X915893Y104058D01*
X910739Y101431D01*
X906059Y98031D01*
X901969Y93941D01*
X898569Y89261D01*
X895942Y84107D01*
X894155Y78606D01*
X893250Y72892D01*
Y67108D01*
X894155Y61394D01*
X895942Y55893D01*
X898569Y50739D01*
X901969Y46059D01*
X906059Y41969D01*
X910739Y38569D01*
X915893Y35942D01*
X921394Y34155D01*
X927108Y33250D01*
X932892D01*
X938606Y34155D01*
X944107Y35942D01*
X949261Y38569D01*
X953941Y41969D01*
X958031Y46059D01*
X961431Y50739D01*
X964058Y55893D01*
X965845Y61394D01*
X966750Y67108D01*
Y72892D01*
X965845Y78606D01*
X964058Y84107D01*
X961431Y89261D01*
X958031Y93941D01*
X953941Y98031D01*
X949261Y101431D01*
X944107Y104058D01*
X938606Y105845D01*
X932892Y106750D01*
D02*
G37*
G36*
X72892D02*
X67108D01*
X61394Y105845D01*
X55893Y104058D01*
X50739Y101431D01*
X46059Y98031D01*
X41969Y93941D01*
X38569Y89261D01*
X35942Y84107D01*
X34155Y78606D01*
X33250Y72892D01*
Y67108D01*
X34155Y61394D01*
X35942Y55893D01*
X38569Y50739D01*
X41969Y46059D01*
X46059Y41969D01*
X50739Y38569D01*
X55893Y35942D01*
X61394Y34155D01*
X67108Y33250D01*
X72892D01*
X78606Y34155D01*
X84107Y35942D01*
X89261Y38569D01*
X93941Y41969D01*
X98031Y46059D01*
X101431Y50739D01*
X104058Y55893D01*
X105845Y61394D01*
X106750Y67108D01*
Y72892D01*
X105845Y78606D01*
X104058Y84107D01*
X101431Y89261D01*
X98031Y93941D01*
X93941Y98031D01*
X89261Y101431D01*
X84107Y104058D01*
X78606Y105845D01*
X72892Y106750D01*
D02*
G37*
%LPD*%
G36*
X290310Y505057D02*
Y463000D01*
Y461400D01*
X290667Y459605D01*
X291684Y458083D01*
X292871Y457290D01*
X292714Y455759D01*
X292689Y455691D01*
X292432Y455290D01*
X290800D01*
X289005Y454933D01*
X287690Y454054D01*
X286749Y454291D01*
X285690Y454832D01*
Y503000D01*
X285430Y504310D01*
X286543Y506310D01*
X289057D01*
X290310Y505057D01*
D02*
G37*
G36*
X289005Y439067D02*
X290800Y438710D01*
X292432D01*
X292689Y438309D01*
X292714Y438241D01*
X292871Y436710D01*
X291684Y435916D01*
X290667Y434395D01*
X290310Y432600D01*
Y388000D01*
Y384176D01*
X289134Y383624D01*
X288310Y383429D01*
X286957Y384333D01*
X285690Y384585D01*
Y410000D01*
Y439168D01*
X286749Y439709D01*
X287690Y439945D01*
X289005Y439067D01*
D02*
G37*
G36*
X421251Y220709D02*
X422310Y220168D01*
Y202943D01*
X419684Y200317D01*
X419684Y200316D01*
X408538Y189171D01*
X406690Y189936D01*
Y197000D01*
Y213600D01*
X406333Y215395D01*
X405316Y216917D01*
X404129Y217710D01*
X404286Y219241D01*
X404311Y219309D01*
X404568Y219710D01*
X417200D01*
X418995Y220067D01*
X420310Y220946D01*
X421251Y220709D01*
D02*
G37*
G36*
X289251Y354709D02*
X290310Y354168D01*
Y292000D01*
Y273000D01*
X290667Y271205D01*
X291684Y269684D01*
X344684Y216684D01*
X368829Y192538D01*
X368064Y190690D01*
X361000D01*
X359205Y190333D01*
X357684Y189316D01*
X357379Y189012D01*
X356004Y189147D01*
X355086Y189547D01*
X285690Y258943D01*
Y292000D01*
Y346000D01*
Y347600D01*
X285333Y349395D01*
X284316Y350916D01*
X283129Y351710D01*
X283286Y353241D01*
X283311Y353309D01*
X283568Y353710D01*
X285200D01*
X286995Y354067D01*
X288310Y354946D01*
X289251Y354709D01*
D02*
G37*
G36*
X378829Y159462D02*
X364057Y144690D01*
X355910D01*
X355500Y145304D01*
Y146696D01*
X354967Y147982D01*
X353983Y148967D01*
X352696Y149500D01*
X351304D01*
X350018Y148967D01*
X349033Y147983D01*
X346824Y147875D01*
X346383Y148316D01*
X344861Y149333D01*
X343588Y149586D01*
Y151626D01*
X343795Y151667D01*
X345316Y152684D01*
X353943Y161310D01*
X378064D01*
X378829Y159462D01*
D02*
G37*
G36*
X431413Y195951D02*
X431570Y195203D01*
X374784Y138417D01*
X373993Y138532D01*
X373289Y140656D01*
X426316Y193684D01*
X426316Y193684D01*
X429233Y196600D01*
X431413Y195951D01*
D02*
G37*
D44*
X789000Y450000D02*
G03*
X850000Y389000I61000J0D01*
G01*
X789000Y950000D02*
G03*
X750000Y989000I-39000J0D01*
G01*
X989000Y350000D02*
G03*
X950000Y389000I-39000J0D01*
G01*
Y11000D02*
G03*
X989000Y50000I0J39000D01*
G01*
X49966Y989000D02*
G03*
X11000Y950000I34J-39000D01*
G01*
Y50000D02*
G03*
X50000Y11000I39000J0D01*
G01*
X989000Y50000D02*
Y350000D01*
X789000Y450000D02*
Y950000D01*
X850000Y389000D02*
X950000D01*
X50000Y989000D02*
X750000Y989000D01*
X50000Y11000D02*
X950000D01*
X11000Y50000D02*
Y950000D01*
D72*
X70000Y92860D02*
D03*
X47140Y70000D02*
D03*
X70000Y47140D02*
D03*
X92860Y70000D02*
D03*
X86165Y86165D02*
D03*
X53836D02*
D03*
Y53836D02*
D03*
X86165D02*
D03*
X746164Y913836D02*
D03*
X713836D02*
D03*
Y946164D02*
D03*
X746164D02*
D03*
X752860Y930000D02*
D03*
X730000Y907140D02*
D03*
X707140Y930000D02*
D03*
X730000Y952860D02*
D03*
X946164Y53836D02*
D03*
X913836D02*
D03*
Y86165D02*
D03*
X946164D02*
D03*
X952860Y70000D02*
D03*
X930000Y47140D02*
D03*
X907140Y70000D02*
D03*
X930000Y92860D02*
D03*
X86165Y913836D02*
D03*
X53836D02*
D03*
Y946164D02*
D03*
X86165D02*
D03*
X92860Y930000D02*
D03*
X70000Y907140D02*
D03*
X47140Y930000D02*
D03*
X70000Y952860D02*
D03*
D80*
X281000Y383600D02*
G03*
X284600Y380000I3600J0D01*
G01*
X285162Y372800D02*
G03*
X285162Y380000I0J3600D01*
G01*
X263600Y372800D02*
G03*
X263600Y365600I0J-3600D01*
G01*
X285200Y358400D02*
G03*
X285200Y365600I0J3600D01*
G01*
X263600Y358400D02*
G03*
X263600Y351200I0J-3600D01*
G01*
X281000Y347600D02*
G03*
X277400Y351200I-3600J0D01*
G01*
X298600Y436200D02*
G03*
X295000Y432600I0J-3600D01*
G01*
X306173Y436200D02*
G03*
X306173Y443400I0J3600D01*
G01*
X290800Y450600D02*
G03*
X290800Y443400I0J-3600D01*
G01*
X312400Y450600D02*
G03*
X312400Y457800I0J3600D01*
G01*
X295000Y461400D02*
G03*
X298600Y457800I3600J0D01*
G01*
X330000Y341600D02*
G03*
X333600Y338000I3600J0D01*
G01*
X337120Y330800D02*
G03*
X337120Y338000I0J3600D01*
G01*
X312600Y330800D02*
G03*
X312600Y323600I0J-3600D01*
G01*
X347400Y316400D02*
G03*
X347400Y323600I0J3600D01*
G01*
X312600Y316400D02*
G03*
X312600Y309200I0J-3600D01*
G01*
X330000Y305600D02*
G03*
X326400Y309200I-3600J0D01*
G01*
X398400Y267600D02*
G03*
X402000Y271200I0J3600D01*
G01*
X397058Y267600D02*
G03*
X397058Y260400I0J-3600D01*
G01*
X417200Y253200D02*
G03*
X417200Y260400I0J3600D01*
G01*
X384600Y253200D02*
G03*
X384600Y246000I0J-3600D01*
G01*
X417200Y238800D02*
G03*
X417200Y246000I0J3600D01*
G01*
X384600Y238800D02*
G03*
X384600Y231600I0J-3600D01*
G01*
X417200Y224400D02*
G03*
X417200Y231600I0J3600D01*
G01*
X384600Y224400D02*
G03*
X384600Y217200I0J-3600D01*
G01*
X402000Y213600D02*
G03*
X398400Y217200I-3600J0D01*
G01*
X437000Y400200D02*
G03*
X440600Y396600I3600J0D01*
G01*
X445436Y389400D02*
G03*
X445436Y396600I0J3600D01*
G01*
X440600Y389400D02*
G03*
X437000Y385800I0J-3600D01*
G01*
X711000Y786902D02*
X743002Y754900D01*
X652000Y778000D02*
Y828000D01*
X265000Y121000D02*
X291000D01*
X305000Y135000D01*
X281000Y410000D02*
Y503000D01*
X291000Y511000D02*
X295000Y507000D01*
X427000Y292000D02*
Y489000D01*
X437000Y292000D02*
Y377000D01*
X427000Y201000D02*
Y292000D01*
X437000Y197000D02*
Y292000D01*
X713800Y742200D02*
X746000D01*
X693000Y763000D02*
X713800Y742200D01*
X693000Y763000D02*
Y766000D01*
X700000Y773000D01*
X376000Y133000D02*
X437000Y194000D01*
X341200Y133000D02*
X376000D01*
X366000Y140000D02*
X423000Y197000D01*
X348067Y140000D02*
X366000D01*
X339200Y135000D02*
X341200Y133000D01*
X343067Y145000D02*
X348067Y140000D01*
X331000Y145000D02*
X343067D01*
X349432Y172200D02*
X355968D01*
X344232Y167000D02*
X349432Y172200D01*
X292000Y167000D02*
X344232D01*
X343464Y175000D02*
X346864Y178400D01*
X273000Y175000D02*
X343464D01*
X355968Y172200D02*
X359768Y176000D01*
X353400Y178400D02*
X361000Y186000D01*
X346864Y178400D02*
X353400D01*
X342000Y156000D02*
X352000Y166000D01*
X277000Y156000D02*
X342000D01*
X330000Y135000D02*
X339200D01*
X292000Y145000D02*
X331000D01*
X305000Y135000D02*
X330000D01*
X281000Y257000D02*
X352000Y186000D01*
X277000D02*
X352000D01*
X380768Y166000D02*
X402000Y187232D01*
X394842Y188842D02*
Y194158D01*
X382000Y176000D02*
X394842Y188842D01*
X402000Y187232D02*
Y197000D01*
X369000Y220000D02*
X394842Y194158D01*
X352000Y166000D02*
X380768D01*
X295000Y273000D02*
X348000Y220000D01*
X330000Y259000D02*
Y292000D01*
Y259000D02*
X358500Y230500D01*
X330000Y292000D02*
Y304000D01*
X402000Y292000D02*
Y335000D01*
X398000Y339000D02*
X402000Y335000D01*
X295000Y292000D02*
Y388000D01*
Y273000D02*
Y292000D01*
X361000Y186000D02*
X382000D01*
X348000Y220000D02*
X382000Y186000D01*
X359768Y176000D02*
X382000D01*
X652000Y828000D02*
X667800Y843800D01*
X746000D01*
Y716800D02*
X757100Y727900D01*
X748998Y754900D02*
X757100Y746798D01*
X743002Y754900D02*
X748998D01*
X757100Y727900D02*
Y746798D01*
X711000Y786902D02*
Y802000D01*
X281000Y383600D02*
Y410000D01*
X284600Y380000D02*
X285162D01*
X263600Y372800D02*
X285162D01*
X263600Y365600D02*
X285200D01*
X263600Y358400D02*
X285200D01*
X263600Y351200D02*
X277400D01*
X281000Y346000D02*
Y347600D01*
Y292000D02*
Y346000D01*
X295000Y388000D02*
Y432600D01*
X298600Y436200D02*
X306173D01*
X290800Y443400D02*
X306173D01*
X290800Y450600D02*
X312400D01*
X298600Y457800D02*
X312400D01*
X295000Y461400D02*
Y463000D01*
Y507000D01*
X330000Y341600D02*
Y366000D01*
X333600Y338000D02*
X337120D01*
X312600Y330800D02*
X337120D01*
X312600Y323600D02*
X347400D01*
X312600Y316400D02*
X347400D01*
X312600Y309200D02*
X326400D01*
X330000Y304000D02*
Y305600D01*
Y366000D02*
Y383000D01*
X402000Y271200D02*
Y285000D01*
X397058Y267600D02*
X398400D01*
X397058Y260400D02*
X417200D01*
X384600Y253200D02*
X417200D01*
X384600Y246000D02*
X417200D01*
X384600Y238800D02*
X417200D01*
X384600Y231600D02*
X417200D01*
X384600Y224400D02*
X417200D01*
X384600Y217200D02*
X398400D01*
X402000Y212000D02*
Y213600D01*
Y285000D02*
Y292000D01*
Y197000D02*
Y212000D01*
X437000Y400200D02*
Y412000D01*
X440600Y396600D02*
X445436D01*
X440600Y389400D02*
X445436D01*
X437000Y377000D02*
Y385800D01*
Y412000D02*
Y452000D01*
Y194000D02*
Y197000D01*
X330000Y383000D02*
X336000Y389000D01*
X281000Y257000D02*
Y292000D01*
X350000Y389000D02*
X359000Y380000D01*
X336000Y389000D02*
X350000D01*
X359000Y339000D02*
Y380000D01*
X358500Y230500D02*
X369000Y220000D01*
X423000Y197000D02*
X427000Y201000D01*
Y489000D02*
X459000Y521000D01*
X437000Y452000D02*
X466000Y481000D01*
X394000Y339000D02*
X398000D01*
X269000Y167000D02*
X292000D01*
X265000Y163000D02*
X269000Y167000D01*
X282000Y135000D02*
X292000Y145000D01*
X265000Y135000D02*
X282000D01*
X270153Y149153D02*
X277000Y156000D01*
X265153Y149153D02*
X270153D01*
X265000Y149000D02*
X265153Y149153D01*
X271153Y176847D02*
X273000Y175000D01*
X265000Y177000D02*
X265153Y176847D01*
X271153D01*
X272000Y191000D02*
X277000Y186000D01*
X265000Y191000D02*
X272000D01*
X284000Y511000D02*
X291000D01*
D81*
X582000Y817500D02*
X668000Y903500D01*
X478333Y817500D02*
X582000D01*
X463000Y834500D02*
X466000D01*
X446000Y851500D02*
X463000Y834500D01*
X446000Y851500D02*
Y919500D01*
X501000Y974500D01*
X475333Y820500D02*
X478333Y817500D01*
X668000Y903500D02*
Y974500D01*
X667000Y975500D02*
X668000Y974500D01*
D82*
X207550Y386000D02*
X212000Y390450D01*
X207550Y381900D02*
X212000Y377450D01*
X194798Y386000D02*
X207550D01*
X174387Y400613D02*
X193100Y381900D01*
X207550D01*
X121825Y450100D02*
X164175D01*
X178487Y402312D02*
X194798Y386000D01*
X174387Y400613D02*
Y434090D01*
X164175Y450100D02*
X178487Y435788D01*
X162477Y446000D02*
X174387Y434090D01*
X178487Y402312D02*
Y435788D01*
X123523Y446000D02*
X162477D01*
X122000Y433623D02*
Y444477D01*
X123523Y446000D01*
X117900Y431925D02*
Y446175D01*
X121825Y450100D01*
X123523Y432100D02*
X127550D01*
X121825Y428000D02*
X127550D01*
X122000Y433623D02*
X123523Y432100D01*
X117900Y431925D02*
X121825Y428000D01*
X127550D02*
X132000Y423550D01*
X127550Y432100D02*
X132000Y436550D01*
D83*
X736000Y520200D02*
D03*
Y418600D02*
D03*
Y393200D02*
D03*
Y367800D02*
D03*
Y444000D02*
D03*
Y469400D02*
D03*
Y494800D02*
D03*
X746000Y843800D02*
D03*
Y742200D02*
D03*
Y716800D02*
D03*
Y691400D02*
D03*
Y767600D02*
D03*
Y793000D02*
D03*
Y818400D02*
D03*
X46000Y760000D02*
D03*
X646000Y944400D02*
D03*
D84*
X736000Y342400D02*
D03*
X746000Y666000D02*
D03*
X46000Y734600D02*
D03*
X646000Y919000D02*
D03*
D85*
X70000Y70000D02*
D03*
X730000Y930000D02*
D03*
X930000Y70000D02*
D03*
X70000Y930000D02*
D03*
D86*
X750132Y988820D02*
D03*
X739132Y988807D02*
D03*
X728132D02*
D03*
X717132D02*
D03*
X706132D02*
D03*
X695132D02*
D03*
X684132D02*
D03*
X673132D02*
D03*
X662132D02*
D03*
X651132D02*
D03*
X640132D02*
D03*
X629132D02*
D03*
X618132D02*
D03*
X607132D02*
D03*
X596132D02*
D03*
X585132D02*
D03*
X574132D02*
D03*
X563132D02*
D03*
X552132D02*
D03*
X541132D02*
D03*
X530132D02*
D03*
X519132D02*
D03*
X508132D02*
D03*
X497132D02*
D03*
X486132D02*
D03*
X475132D02*
D03*
X464132D02*
D03*
X453132D02*
D03*
X442132D02*
D03*
X431132D02*
D03*
X420132D02*
D03*
X409132D02*
D03*
X398132Y988807D02*
D03*
X387132D02*
D03*
X376132D02*
D03*
X365132D02*
D03*
X354132D02*
D03*
X343132D02*
D03*
X332132D02*
D03*
X321133D02*
D03*
X310133D02*
D03*
X299132D02*
D03*
X288132D02*
D03*
X277133D02*
D03*
X266133D02*
D03*
X255133D02*
D03*
X244133D02*
D03*
X233133D02*
D03*
X222133D02*
D03*
X211133D02*
D03*
X200133D02*
D03*
X189133D02*
D03*
X178133D02*
D03*
X167133D02*
D03*
X156133D02*
D03*
X145133D02*
D03*
X134133D02*
D03*
X123133D02*
D03*
X112133D02*
D03*
X101133D02*
D03*
X90133D02*
D03*
X79133D02*
D03*
X68133D02*
D03*
X57133D02*
D03*
X46135Y988611D02*
D03*
X35464Y985940D02*
D03*
X25929Y980454D02*
D03*
X18391Y972443D02*
D03*
X13312Y962686D02*
D03*
X11278Y951876D02*
D03*
X11193Y940876D02*
D03*
Y929877D02*
D03*
Y918877D02*
D03*
Y907877D02*
D03*
Y896877D02*
D03*
Y885877D02*
D03*
Y874877D02*
D03*
Y863877D02*
D03*
Y852877D02*
D03*
Y841877D02*
D03*
Y830877D02*
D03*
Y819877D02*
D03*
Y808877D02*
D03*
Y797877D02*
D03*
Y786877D02*
D03*
Y775877D02*
D03*
Y764877D02*
D03*
Y753877D02*
D03*
Y742877D02*
D03*
Y731877D02*
D03*
Y720877D02*
D03*
Y709877D02*
D03*
Y698877D02*
D03*
Y687877D02*
D03*
Y676877D02*
D03*
Y665877D02*
D03*
Y654877D02*
D03*
Y643877D02*
D03*
Y632877D02*
D03*
Y621877D02*
D03*
Y610877D02*
D03*
Y599877D02*
D03*
Y588877D02*
D03*
Y577877D02*
D03*
Y566877D02*
D03*
Y555877D02*
D03*
Y544877D02*
D03*
Y533877D02*
D03*
Y522877D02*
D03*
Y511877D02*
D03*
Y500877D02*
D03*
Y489877D02*
D03*
Y478877D02*
D03*
Y467878D02*
D03*
Y456878D02*
D03*
Y445877D02*
D03*
Y434878D02*
D03*
Y423878D02*
D03*
Y412878D02*
D03*
Y401878D02*
D03*
Y390878D02*
D03*
Y379878D02*
D03*
Y368878D02*
D03*
Y357878D02*
D03*
Y346878D02*
D03*
Y335878D02*
D03*
Y324878D02*
D03*
Y313878D02*
D03*
Y302878D02*
D03*
Y291878D02*
D03*
Y280878D02*
D03*
Y269878D02*
D03*
Y258878D02*
D03*
Y247878D02*
D03*
Y236878D02*
D03*
Y225878D02*
D03*
Y214878D02*
D03*
Y203878D02*
D03*
Y192878D02*
D03*
Y181878D02*
D03*
Y170878D02*
D03*
Y159878D02*
D03*
Y148878D02*
D03*
Y137878D02*
D03*
Y126878D02*
D03*
Y115878D02*
D03*
Y104878D02*
D03*
Y93878D02*
D03*
Y82878D02*
D03*
Y71878D02*
D03*
Y60878D02*
D03*
X11181Y49878D02*
D03*
X12825Y39002D02*
D03*
X17376Y28987D02*
D03*
X24609Y20700D02*
D03*
X33848Y14730D02*
D03*
X44402Y11629D02*
D03*
X55393Y11193D02*
D03*
X66393D02*
D03*
X77393D02*
D03*
X88393D02*
D03*
X99393D02*
D03*
X110393D02*
D03*
X121393D02*
D03*
X132393D02*
D03*
X143393D02*
D03*
X154393D02*
D03*
X165393D02*
D03*
X176393D02*
D03*
X187393D02*
D03*
X198393D02*
D03*
X209393D02*
D03*
X220393D02*
D03*
X231393D02*
D03*
X242393D02*
D03*
X253393D02*
D03*
X264393D02*
D03*
X275393D02*
D03*
X286392D02*
D03*
X297393D02*
D03*
X308393D02*
D03*
X319393D02*
D03*
X330392D02*
D03*
X341392D02*
D03*
X352392D02*
D03*
X363392D02*
D03*
X374392D02*
D03*
X385392D02*
D03*
X396392D02*
D03*
X407392D02*
D03*
X418392D02*
D03*
X429392D02*
D03*
X440392D02*
D03*
X451392D02*
D03*
X462392D02*
D03*
X473392D02*
D03*
X484392D02*
D03*
X495392D02*
D03*
X506392D02*
D03*
X517392D02*
D03*
X528392D02*
D03*
X539392D02*
D03*
X550392D02*
D03*
X561392D02*
D03*
X572392D02*
D03*
X583392D02*
D03*
X594392D02*
D03*
X605392D02*
D03*
X616392D02*
D03*
X627392D02*
D03*
X638392D02*
D03*
X649392D02*
D03*
X660392D02*
D03*
X671392D02*
D03*
X682392D02*
D03*
X693392D02*
D03*
X704392D02*
D03*
X715392D02*
D03*
X726392D02*
D03*
X737392D02*
D03*
X748392D02*
D03*
X759392D02*
D03*
X770392D02*
D03*
X781392D02*
D03*
X792392D02*
D03*
X803391D02*
D03*
X814391D02*
D03*
X825391D02*
D03*
X836391D02*
D03*
X847391D02*
D03*
X858391D02*
D03*
X869391D02*
D03*
X880391D02*
D03*
X891391D02*
D03*
X902391D02*
D03*
X913391D02*
D03*
X924391D02*
D03*
X935391D02*
D03*
X946391D02*
D03*
X957366Y11930D02*
D03*
X967763Y15524D02*
D03*
X976729Y21896D02*
D03*
X983536Y30536D02*
D03*
X987672Y40729D02*
D03*
X988807Y51671D02*
D03*
Y62670D02*
D03*
Y73671D02*
D03*
Y84670D02*
D03*
Y95670D02*
D03*
Y106670D02*
D03*
Y117670D02*
D03*
Y128670D02*
D03*
Y139670D02*
D03*
Y150670D02*
D03*
Y161670D02*
D03*
Y172670D02*
D03*
Y183670D02*
D03*
Y194670D02*
D03*
Y205670D02*
D03*
Y216670D02*
D03*
Y227670D02*
D03*
Y238670D02*
D03*
Y249670D02*
D03*
Y260670D02*
D03*
Y271670D02*
D03*
Y282670D02*
D03*
Y293670D02*
D03*
Y304670D02*
D03*
Y315670D02*
D03*
Y326670D02*
D03*
Y337670D02*
D03*
Y348670D02*
D03*
X987577Y359601D02*
D03*
X983370Y369765D02*
D03*
X976473Y378334D02*
D03*
X967462Y384642D02*
D03*
X957029Y388128D02*
D03*
X946050Y388807D02*
D03*
X935050D02*
D03*
X924050D02*
D03*
X913050D02*
D03*
X902050D02*
D03*
X891050D02*
D03*
X880050D02*
D03*
X869050D02*
D03*
X858050D02*
D03*
X847051Y388937D02*
D03*
X836159Y390480D02*
D03*
X825711Y393920D02*
D03*
X816033Y399148D02*
D03*
X807473Y406056D02*
D03*
X800302Y414398D02*
D03*
X794688Y423857D02*
D03*
X790950Y434202D02*
D03*
X789095Y445045D02*
D03*
X788807Y456041D02*
D03*
Y467041D02*
D03*
Y478041D02*
D03*
Y489041D02*
D03*
Y500041D02*
D03*
Y511041D02*
D03*
Y522041D02*
D03*
Y533041D02*
D03*
Y544041D02*
D03*
Y555041D02*
D03*
Y566041D02*
D03*
Y577041D02*
D03*
Y588041D02*
D03*
Y599041D02*
D03*
Y610041D02*
D03*
Y621041D02*
D03*
Y632040D02*
D03*
Y643040D02*
D03*
Y654041D02*
D03*
Y665041D02*
D03*
Y676040D02*
D03*
Y687040D02*
D03*
Y698040D02*
D03*
Y709040D02*
D03*
Y720040D02*
D03*
Y731040D02*
D03*
Y742040D02*
D03*
Y753040D02*
D03*
Y764040D02*
D03*
Y775040D02*
D03*
Y786040D02*
D03*
Y797040D02*
D03*
Y808040D02*
D03*
Y819040D02*
D03*
Y830040D02*
D03*
Y841040D02*
D03*
Y852040D02*
D03*
Y863040D02*
D03*
Y874040D02*
D03*
Y885040D02*
D03*
Y896040D02*
D03*
Y907040D02*
D03*
Y918040D02*
D03*
Y929040D02*
D03*
Y940040D02*
D03*
X788769Y951040D02*
D03*
X786920Y961883D02*
D03*
X782090Y971766D02*
D03*
X774702Y979916D02*
D03*
X765299Y985624D02*
D03*
D87*
X959571Y354161D02*
D03*
Y334161D02*
D03*
Y314161D02*
D03*
Y294161D02*
D03*
Y274161D02*
D03*
Y254161D02*
D03*
Y234161D02*
D03*
Y214161D02*
D03*
Y194161D02*
D03*
Y174161D02*
D03*
Y154161D02*
D03*
Y134161D02*
D03*
Y114161D02*
D03*
Y34161D02*
D03*
X939571Y354161D02*
D03*
Y334161D02*
D03*
Y314161D02*
D03*
Y294161D02*
D03*
Y274161D02*
D03*
Y254161D02*
D03*
Y234161D02*
D03*
Y214161D02*
D03*
Y194161D02*
D03*
Y174161D02*
D03*
Y154161D02*
D03*
Y134161D02*
D03*
Y114161D02*
D03*
X919571Y354161D02*
D03*
Y334161D02*
D03*
Y314161D02*
D03*
Y294161D02*
D03*
Y274161D02*
D03*
Y254161D02*
D03*
Y234161D02*
D03*
Y214161D02*
D03*
Y194161D02*
D03*
Y174161D02*
D03*
Y154161D02*
D03*
Y134161D02*
D03*
Y114161D02*
D03*
X899571Y354161D02*
D03*
Y334161D02*
D03*
Y314161D02*
D03*
Y294161D02*
D03*
Y274161D02*
D03*
Y254161D02*
D03*
Y234161D02*
D03*
Y214161D02*
D03*
Y194161D02*
D03*
Y174161D02*
D03*
Y154161D02*
D03*
Y134161D02*
D03*
Y114161D02*
D03*
Y94161D02*
D03*
Y34161D02*
D03*
X879571Y354161D02*
D03*
Y334161D02*
D03*
Y314161D02*
D03*
Y294161D02*
D03*
Y274161D02*
D03*
Y254161D02*
D03*
Y234161D02*
D03*
Y214161D02*
D03*
Y194161D02*
D03*
Y174161D02*
D03*
Y154161D02*
D03*
Y134161D02*
D03*
Y114161D02*
D03*
Y94161D02*
D03*
Y74161D02*
D03*
Y54161D02*
D03*
Y34161D02*
D03*
X859571Y354161D02*
D03*
Y334161D02*
D03*
Y314161D02*
D03*
Y294161D02*
D03*
Y274161D02*
D03*
Y254161D02*
D03*
Y234161D02*
D03*
Y214161D02*
D03*
Y194161D02*
D03*
Y174161D02*
D03*
Y154161D02*
D03*
Y134161D02*
D03*
Y114161D02*
D03*
Y94161D02*
D03*
Y74161D02*
D03*
Y54161D02*
D03*
Y34161D02*
D03*
X839571Y354161D02*
D03*
Y334161D02*
D03*
Y314161D02*
D03*
Y294161D02*
D03*
Y274161D02*
D03*
Y254161D02*
D03*
Y234161D02*
D03*
Y214161D02*
D03*
Y194161D02*
D03*
Y174161D02*
D03*
Y154161D02*
D03*
Y134161D02*
D03*
Y114161D02*
D03*
Y94161D02*
D03*
Y74161D02*
D03*
Y54161D02*
D03*
Y34161D02*
D03*
X819571Y374161D02*
D03*
Y354161D02*
D03*
Y334161D02*
D03*
Y314161D02*
D03*
Y294161D02*
D03*
Y274161D02*
D03*
Y254161D02*
D03*
Y234161D02*
D03*
Y214161D02*
D03*
Y194161D02*
D03*
Y174161D02*
D03*
Y154161D02*
D03*
Y134161D02*
D03*
Y114161D02*
D03*
Y94161D02*
D03*
Y74161D02*
D03*
Y54161D02*
D03*
Y34161D02*
D03*
X799571Y374161D02*
D03*
Y354161D02*
D03*
Y334161D02*
D03*
Y314161D02*
D03*
Y294161D02*
D03*
Y274161D02*
D03*
Y254161D02*
D03*
Y234161D02*
D03*
Y214161D02*
D03*
Y194161D02*
D03*
Y174161D02*
D03*
Y154161D02*
D03*
Y134161D02*
D03*
Y114161D02*
D03*
Y94161D02*
D03*
Y74161D02*
D03*
Y54161D02*
D03*
Y34161D02*
D03*
X779571Y414161D02*
D03*
Y394161D02*
D03*
Y374161D02*
D03*
Y354161D02*
D03*
Y334161D02*
D03*
Y314161D02*
D03*
Y294161D02*
D03*
Y274161D02*
D03*
Y254161D02*
D03*
Y234161D02*
D03*
Y214161D02*
D03*
Y194161D02*
D03*
Y174161D02*
D03*
Y154161D02*
D03*
Y134161D02*
D03*
Y114161D02*
D03*
Y94161D02*
D03*
Y74161D02*
D03*
Y54161D02*
D03*
Y34161D02*
D03*
X759571Y894161D02*
D03*
Y874161D02*
D03*
Y854161D02*
D03*
Y834161D02*
D03*
Y814161D02*
D03*
Y794161D02*
D03*
Y774161D02*
D03*
Y754161D02*
D03*
Y714161D02*
D03*
Y694161D02*
D03*
Y674161D02*
D03*
Y654161D02*
D03*
Y634161D02*
D03*
Y614161D02*
D03*
Y594161D02*
D03*
Y574161D02*
D03*
Y554161D02*
D03*
Y534161D02*
D03*
Y514161D02*
D03*
Y494161D02*
D03*
Y474161D02*
D03*
Y454161D02*
D03*
Y314161D02*
D03*
Y294161D02*
D03*
Y274161D02*
D03*
Y254161D02*
D03*
Y234161D02*
D03*
Y214161D02*
D03*
Y194161D02*
D03*
Y174161D02*
D03*
Y154161D02*
D03*
Y134161D02*
D03*
Y114161D02*
D03*
Y94161D02*
D03*
Y74161D02*
D03*
Y54161D02*
D03*
Y34161D02*
D03*
X739571Y874161D02*
D03*
Y854161D02*
D03*
Y834161D02*
D03*
Y654161D02*
D03*
Y634161D02*
D03*
Y614161D02*
D03*
Y594161D02*
D03*
Y574161D02*
D03*
Y554161D02*
D03*
Y534161D02*
D03*
Y354161D02*
D03*
Y294161D02*
D03*
Y274161D02*
D03*
Y254161D02*
D03*
Y234161D02*
D03*
Y214161D02*
D03*
Y194161D02*
D03*
Y174161D02*
D03*
Y154161D02*
D03*
Y134161D02*
D03*
Y114161D02*
D03*
Y94161D02*
D03*
Y74161D02*
D03*
Y54161D02*
D03*
Y34161D02*
D03*
X719571Y874161D02*
D03*
Y854161D02*
D03*
Y834161D02*
D03*
Y814161D02*
D03*
Y754161D02*
D03*
Y734161D02*
D03*
Y714161D02*
D03*
Y694161D02*
D03*
Y674161D02*
D03*
Y654161D02*
D03*
Y634161D02*
D03*
Y614161D02*
D03*
Y594161D02*
D03*
Y574161D02*
D03*
Y554161D02*
D03*
Y534161D02*
D03*
Y514161D02*
D03*
Y494161D02*
D03*
Y474161D02*
D03*
Y434161D02*
D03*
Y374161D02*
D03*
Y354161D02*
D03*
Y334161D02*
D03*
Y314161D02*
D03*
Y274161D02*
D03*
Y254161D02*
D03*
Y234161D02*
D03*
Y214161D02*
D03*
Y194161D02*
D03*
Y174161D02*
D03*
Y154161D02*
D03*
Y134161D02*
D03*
Y114161D02*
D03*
Y94161D02*
D03*
Y74161D02*
D03*
Y54161D02*
D03*
Y34161D02*
D03*
X699571Y954161D02*
D03*
Y894161D02*
D03*
Y874161D02*
D03*
Y854161D02*
D03*
Y834161D02*
D03*
Y814161D02*
D03*
Y734161D02*
D03*
Y714161D02*
D03*
Y694161D02*
D03*
Y674161D02*
D03*
Y654161D02*
D03*
Y634161D02*
D03*
Y614161D02*
D03*
Y594161D02*
D03*
Y574161D02*
D03*
Y554161D02*
D03*
Y534161D02*
D03*
Y514161D02*
D03*
Y494161D02*
D03*
Y474161D02*
D03*
Y434161D02*
D03*
Y394161D02*
D03*
Y354161D02*
D03*
Y334161D02*
D03*
Y314161D02*
D03*
Y294161D02*
D03*
Y254161D02*
D03*
Y234161D02*
D03*
Y214161D02*
D03*
Y194161D02*
D03*
Y174161D02*
D03*
Y154161D02*
D03*
Y134161D02*
D03*
Y114161D02*
D03*
Y94161D02*
D03*
Y74161D02*
D03*
Y54161D02*
D03*
Y34161D02*
D03*
X679571Y954161D02*
D03*
Y934161D02*
D03*
Y914161D02*
D03*
Y894161D02*
D03*
Y874161D02*
D03*
Y854161D02*
D03*
Y834161D02*
D03*
Y814161D02*
D03*
Y754161D02*
D03*
Y714161D02*
D03*
Y694161D02*
D03*
Y674161D02*
D03*
Y654161D02*
D03*
Y634161D02*
D03*
Y614161D02*
D03*
Y594161D02*
D03*
Y574161D02*
D03*
Y554161D02*
D03*
Y534161D02*
D03*
Y514161D02*
D03*
Y494161D02*
D03*
Y474161D02*
D03*
Y454161D02*
D03*
Y414161D02*
D03*
Y374161D02*
D03*
Y334161D02*
D03*
Y314161D02*
D03*
Y294161D02*
D03*
Y274161D02*
D03*
Y234161D02*
D03*
Y214161D02*
D03*
Y194161D02*
D03*
Y174161D02*
D03*
Y154161D02*
D03*
Y134161D02*
D03*
Y114161D02*
D03*
Y94161D02*
D03*
Y74161D02*
D03*
Y54161D02*
D03*
Y34161D02*
D03*
X659571Y954161D02*
D03*
Y934161D02*
D03*
Y914161D02*
D03*
Y874161D02*
D03*
Y854161D02*
D03*
Y814161D02*
D03*
Y754161D02*
D03*
Y714161D02*
D03*
Y694161D02*
D03*
Y674161D02*
D03*
Y654161D02*
D03*
Y634161D02*
D03*
Y614161D02*
D03*
Y594161D02*
D03*
Y574161D02*
D03*
Y554161D02*
D03*
Y534161D02*
D03*
Y514161D02*
D03*
Y474161D02*
D03*
Y454161D02*
D03*
Y434161D02*
D03*
Y394161D02*
D03*
Y354161D02*
D03*
Y314161D02*
D03*
Y294161D02*
D03*
Y274161D02*
D03*
Y254161D02*
D03*
Y214161D02*
D03*
Y194161D02*
D03*
Y174161D02*
D03*
Y154161D02*
D03*
Y134161D02*
D03*
Y114161D02*
D03*
Y94161D02*
D03*
Y74161D02*
D03*
Y54161D02*
D03*
Y34161D02*
D03*
X639571Y954161D02*
D03*
Y934161D02*
D03*
Y894161D02*
D03*
Y854161D02*
D03*
Y834161D02*
D03*
Y814161D02*
D03*
Y754161D02*
D03*
Y714161D02*
D03*
Y694161D02*
D03*
Y674161D02*
D03*
Y654161D02*
D03*
Y634161D02*
D03*
Y614161D02*
D03*
Y594161D02*
D03*
Y574161D02*
D03*
Y554161D02*
D03*
Y534161D02*
D03*
Y514161D02*
D03*
Y494161D02*
D03*
Y474161D02*
D03*
Y454161D02*
D03*
Y434161D02*
D03*
Y414161D02*
D03*
Y374161D02*
D03*
Y334161D02*
D03*
Y294161D02*
D03*
Y274161D02*
D03*
Y254161D02*
D03*
Y234161D02*
D03*
Y194161D02*
D03*
Y174161D02*
D03*
Y154161D02*
D03*
Y134161D02*
D03*
Y114161D02*
D03*
Y94161D02*
D03*
Y74161D02*
D03*
Y54161D02*
D03*
Y34161D02*
D03*
X619571Y914161D02*
D03*
Y894161D02*
D03*
Y874161D02*
D03*
Y834161D02*
D03*
Y814161D02*
D03*
Y754161D02*
D03*
Y714161D02*
D03*
Y694161D02*
D03*
Y674161D02*
D03*
Y654161D02*
D03*
Y634161D02*
D03*
Y614161D02*
D03*
Y594161D02*
D03*
Y574161D02*
D03*
Y554161D02*
D03*
Y534161D02*
D03*
Y514161D02*
D03*
Y494161D02*
D03*
Y474161D02*
D03*
Y454161D02*
D03*
Y434161D02*
D03*
Y414161D02*
D03*
Y394161D02*
D03*
Y354161D02*
D03*
Y314161D02*
D03*
Y274161D02*
D03*
Y254161D02*
D03*
Y234161D02*
D03*
Y214161D02*
D03*
Y194161D02*
D03*
Y174161D02*
D03*
Y154161D02*
D03*
Y134161D02*
D03*
Y114161D02*
D03*
Y94161D02*
D03*
Y74161D02*
D03*
Y54161D02*
D03*
Y34161D02*
D03*
X599571Y894161D02*
D03*
Y854161D02*
D03*
Y814161D02*
D03*
Y754161D02*
D03*
Y714161D02*
D03*
Y694161D02*
D03*
Y674161D02*
D03*
Y654161D02*
D03*
Y634161D02*
D03*
Y614161D02*
D03*
Y594161D02*
D03*
Y574161D02*
D03*
Y554161D02*
D03*
Y534161D02*
D03*
Y514161D02*
D03*
Y494161D02*
D03*
Y474161D02*
D03*
Y454161D02*
D03*
Y434161D02*
D03*
Y414161D02*
D03*
Y394161D02*
D03*
Y374161D02*
D03*
Y334161D02*
D03*
Y294161D02*
D03*
Y254161D02*
D03*
Y234161D02*
D03*
Y214161D02*
D03*
Y194161D02*
D03*
Y174161D02*
D03*
Y154161D02*
D03*
Y134161D02*
D03*
Y114161D02*
D03*
Y94161D02*
D03*
Y74161D02*
D03*
Y54161D02*
D03*
Y34161D02*
D03*
X579571Y894161D02*
D03*
Y874161D02*
D03*
Y834161D02*
D03*
Y754161D02*
D03*
Y714161D02*
D03*
Y694161D02*
D03*
Y674161D02*
D03*
Y654161D02*
D03*
Y634161D02*
D03*
Y614161D02*
D03*
Y594161D02*
D03*
Y574161D02*
D03*
Y554161D02*
D03*
Y534161D02*
D03*
Y514161D02*
D03*
Y494161D02*
D03*
Y474161D02*
D03*
Y414161D02*
D03*
Y394161D02*
D03*
Y374161D02*
D03*
Y354161D02*
D03*
Y314161D02*
D03*
Y274161D02*
D03*
Y234161D02*
D03*
Y214161D02*
D03*
Y194161D02*
D03*
Y174161D02*
D03*
Y154161D02*
D03*
Y134161D02*
D03*
Y114161D02*
D03*
Y94161D02*
D03*
Y74161D02*
D03*
Y54161D02*
D03*
Y34161D02*
D03*
X559571Y894161D02*
D03*
Y874161D02*
D03*
Y834161D02*
D03*
Y754161D02*
D03*
Y714161D02*
D03*
Y694161D02*
D03*
Y674161D02*
D03*
Y654161D02*
D03*
Y634161D02*
D03*
Y614161D02*
D03*
Y594161D02*
D03*
Y574161D02*
D03*
Y554161D02*
D03*
Y534161D02*
D03*
Y514161D02*
D03*
Y494161D02*
D03*
Y414161D02*
D03*
Y394161D02*
D03*
Y374161D02*
D03*
Y354161D02*
D03*
Y334161D02*
D03*
Y294161D02*
D03*
Y254161D02*
D03*
Y214161D02*
D03*
Y194161D02*
D03*
Y174161D02*
D03*
Y154161D02*
D03*
Y134161D02*
D03*
Y114161D02*
D03*
Y94161D02*
D03*
Y74161D02*
D03*
Y54161D02*
D03*
Y34161D02*
D03*
X539571Y954161D02*
D03*
Y934161D02*
D03*
Y914161D02*
D03*
Y894161D02*
D03*
Y874161D02*
D03*
Y754161D02*
D03*
Y714161D02*
D03*
Y694161D02*
D03*
Y674161D02*
D03*
Y654161D02*
D03*
Y634161D02*
D03*
Y614161D02*
D03*
Y594161D02*
D03*
Y574161D02*
D03*
Y554161D02*
D03*
Y534161D02*
D03*
Y514161D02*
D03*
Y494161D02*
D03*
Y474161D02*
D03*
Y414161D02*
D03*
Y394161D02*
D03*
Y374161D02*
D03*
Y354161D02*
D03*
Y334161D02*
D03*
Y314161D02*
D03*
Y274161D02*
D03*
Y234161D02*
D03*
Y194161D02*
D03*
Y174161D02*
D03*
Y154161D02*
D03*
Y134161D02*
D03*
Y114161D02*
D03*
Y94161D02*
D03*
Y74161D02*
D03*
Y54161D02*
D03*
Y34161D02*
D03*
X519571Y894161D02*
D03*
Y874161D02*
D03*
Y754161D02*
D03*
Y714161D02*
D03*
Y694161D02*
D03*
Y674161D02*
D03*
Y654161D02*
D03*
Y634161D02*
D03*
Y614161D02*
D03*
Y594161D02*
D03*
Y574161D02*
D03*
Y554161D02*
D03*
Y534161D02*
D03*
Y414161D02*
D03*
Y354161D02*
D03*
Y334161D02*
D03*
Y314161D02*
D03*
Y294161D02*
D03*
Y254161D02*
D03*
Y194161D02*
D03*
Y174161D02*
D03*
Y154161D02*
D03*
Y134161D02*
D03*
Y114161D02*
D03*
Y94161D02*
D03*
Y74161D02*
D03*
Y54161D02*
D03*
Y34161D02*
D03*
X499571Y954161D02*
D03*
Y894161D02*
D03*
Y874161D02*
D03*
Y754161D02*
D03*
Y714161D02*
D03*
Y694161D02*
D03*
Y674161D02*
D03*
Y654161D02*
D03*
Y634161D02*
D03*
Y614161D02*
D03*
Y594161D02*
D03*
Y574161D02*
D03*
Y554161D02*
D03*
Y534161D02*
D03*
Y414161D02*
D03*
Y354161D02*
D03*
Y334161D02*
D03*
Y314161D02*
D03*
Y294161D02*
D03*
Y274161D02*
D03*
Y234161D02*
D03*
Y194161D02*
D03*
Y174161D02*
D03*
Y154161D02*
D03*
Y134161D02*
D03*
Y114161D02*
D03*
Y94161D02*
D03*
Y74161D02*
D03*
Y54161D02*
D03*
Y34161D02*
D03*
X479571Y934161D02*
D03*
Y914161D02*
D03*
Y894161D02*
D03*
Y874161D02*
D03*
Y754161D02*
D03*
Y714161D02*
D03*
Y694161D02*
D03*
Y674161D02*
D03*
Y654161D02*
D03*
Y634161D02*
D03*
Y614161D02*
D03*
Y594161D02*
D03*
Y574161D02*
D03*
Y554161D02*
D03*
Y534161D02*
D03*
Y334161D02*
D03*
Y314161D02*
D03*
Y294161D02*
D03*
Y274161D02*
D03*
Y254161D02*
D03*
Y194161D02*
D03*
Y174161D02*
D03*
Y154161D02*
D03*
Y134161D02*
D03*
Y114161D02*
D03*
Y94161D02*
D03*
Y74161D02*
D03*
Y54161D02*
D03*
Y34161D02*
D03*
X459571Y954161D02*
D03*
Y914161D02*
D03*
Y854161D02*
D03*
Y814161D02*
D03*
Y734161D02*
D03*
Y714161D02*
D03*
Y694161D02*
D03*
Y674161D02*
D03*
Y494161D02*
D03*
Y454161D02*
D03*
Y434161D02*
D03*
Y394161D02*
D03*
Y374161D02*
D03*
Y354161D02*
D03*
Y334161D02*
D03*
Y254161D02*
D03*
Y174161D02*
D03*
Y154161D02*
D03*
Y134161D02*
D03*
Y114161D02*
D03*
Y94161D02*
D03*
Y74161D02*
D03*
Y54161D02*
D03*
Y34161D02*
D03*
X439571Y954161D02*
D03*
Y934161D02*
D03*
Y834161D02*
D03*
Y794161D02*
D03*
Y734161D02*
D03*
Y714161D02*
D03*
Y694161D02*
D03*
Y594161D02*
D03*
Y514161D02*
D03*
Y474161D02*
D03*
Y94161D02*
D03*
Y74161D02*
D03*
Y54161D02*
D03*
X419571Y954161D02*
D03*
Y934161D02*
D03*
Y914161D02*
D03*
Y854161D02*
D03*
Y814161D02*
D03*
Y794161D02*
D03*
Y754161D02*
D03*
Y734161D02*
D03*
Y714161D02*
D03*
Y694161D02*
D03*
Y674161D02*
D03*
Y654161D02*
D03*
Y634161D02*
D03*
Y594161D02*
D03*
Y574161D02*
D03*
Y554161D02*
D03*
Y514161D02*
D03*
Y494161D02*
D03*
Y474161D02*
D03*
Y454161D02*
D03*
Y434161D02*
D03*
Y414161D02*
D03*
Y394161D02*
D03*
Y374161D02*
D03*
Y354161D02*
D03*
Y334161D02*
D03*
Y274161D02*
D03*
Y94161D02*
D03*
Y74161D02*
D03*
X399571Y954161D02*
D03*
Y934161D02*
D03*
Y914161D02*
D03*
Y854161D02*
D03*
Y834161D02*
D03*
Y814161D02*
D03*
Y794161D02*
D03*
Y754161D02*
D03*
Y734161D02*
D03*
Y714161D02*
D03*
Y694161D02*
D03*
Y634161D02*
D03*
Y614161D02*
D03*
Y594161D02*
D03*
Y574161D02*
D03*
Y554161D02*
D03*
Y514161D02*
D03*
Y494161D02*
D03*
Y474161D02*
D03*
Y454161D02*
D03*
Y434161D02*
D03*
Y414161D02*
D03*
Y394161D02*
D03*
Y374161D02*
D03*
Y354161D02*
D03*
Y94161D02*
D03*
Y74161D02*
D03*
X379571Y954161D02*
D03*
Y934161D02*
D03*
Y914161D02*
D03*
Y894161D02*
D03*
Y774161D02*
D03*
Y754161D02*
D03*
Y734161D02*
D03*
Y714161D02*
D03*
Y594161D02*
D03*
Y574161D02*
D03*
Y554161D02*
D03*
Y514161D02*
D03*
Y494161D02*
D03*
Y474161D02*
D03*
Y454161D02*
D03*
Y434161D02*
D03*
Y414161D02*
D03*
Y394161D02*
D03*
Y374161D02*
D03*
Y354161D02*
D03*
Y334161D02*
D03*
Y274161D02*
D03*
Y94161D02*
D03*
Y74161D02*
D03*
Y54161D02*
D03*
Y34161D02*
D03*
X359571Y954161D02*
D03*
Y934161D02*
D03*
Y914161D02*
D03*
Y894161D02*
D03*
Y874161D02*
D03*
Y854161D02*
D03*
Y834161D02*
D03*
Y654161D02*
D03*
Y634161D02*
D03*
Y614161D02*
D03*
Y594161D02*
D03*
Y514161D02*
D03*
Y494161D02*
D03*
Y474161D02*
D03*
Y454161D02*
D03*
Y434161D02*
D03*
Y414161D02*
D03*
Y394161D02*
D03*
Y294161D02*
D03*
Y274161D02*
D03*
Y194161D02*
D03*
Y94161D02*
D03*
Y74161D02*
D03*
X339571Y954161D02*
D03*
Y934161D02*
D03*
Y914161D02*
D03*
Y894161D02*
D03*
Y874161D02*
D03*
Y774161D02*
D03*
Y754161D02*
D03*
Y734161D02*
D03*
Y714161D02*
D03*
Y694161D02*
D03*
Y674161D02*
D03*
Y654161D02*
D03*
Y634161D02*
D03*
Y614161D02*
D03*
Y594161D02*
D03*
Y574161D02*
D03*
Y554161D02*
D03*
Y514161D02*
D03*
Y494161D02*
D03*
Y474161D02*
D03*
Y454161D02*
D03*
Y434161D02*
D03*
Y414161D02*
D03*
Y374161D02*
D03*
Y354161D02*
D03*
Y274161D02*
D03*
Y94161D02*
D03*
Y74161D02*
D03*
X319571Y954161D02*
D03*
Y934161D02*
D03*
Y914161D02*
D03*
Y894161D02*
D03*
Y874161D02*
D03*
Y854161D02*
D03*
Y834161D02*
D03*
Y754161D02*
D03*
Y734161D02*
D03*
Y714161D02*
D03*
Y694161D02*
D03*
Y674161D02*
D03*
Y654161D02*
D03*
Y634161D02*
D03*
Y614161D02*
D03*
Y594161D02*
D03*
Y574161D02*
D03*
Y554161D02*
D03*
Y514161D02*
D03*
Y494161D02*
D03*
Y474161D02*
D03*
Y434161D02*
D03*
Y414161D02*
D03*
Y394161D02*
D03*
Y374161D02*
D03*
Y354161D02*
D03*
Y294161D02*
D03*
Y274161D02*
D03*
Y234161D02*
D03*
Y114161D02*
D03*
Y94161D02*
D03*
Y74161D02*
D03*
X299571Y954161D02*
D03*
Y934161D02*
D03*
Y914161D02*
D03*
Y894161D02*
D03*
Y874161D02*
D03*
Y854161D02*
D03*
Y834161D02*
D03*
Y814161D02*
D03*
Y774161D02*
D03*
Y754161D02*
D03*
Y734161D02*
D03*
Y714161D02*
D03*
Y694161D02*
D03*
Y674161D02*
D03*
Y654161D02*
D03*
Y634161D02*
D03*
Y614161D02*
D03*
Y594161D02*
D03*
Y514161D02*
D03*
Y254161D02*
D03*
Y194161D02*
D03*
Y114161D02*
D03*
Y94161D02*
D03*
Y74161D02*
D03*
Y54161D02*
D03*
Y34161D02*
D03*
X279571Y954161D02*
D03*
Y934161D02*
D03*
Y914161D02*
D03*
Y894161D02*
D03*
Y874161D02*
D03*
Y854161D02*
D03*
Y834161D02*
D03*
Y814161D02*
D03*
Y714161D02*
D03*
Y694161D02*
D03*
Y674161D02*
D03*
Y654161D02*
D03*
Y634161D02*
D03*
Y614161D02*
D03*
Y594161D02*
D03*
Y214161D02*
D03*
Y194161D02*
D03*
Y114161D02*
D03*
Y94161D02*
D03*
Y74161D02*
D03*
Y54161D02*
D03*
Y34161D02*
D03*
X259571Y954161D02*
D03*
Y934161D02*
D03*
Y914161D02*
D03*
Y894161D02*
D03*
Y874161D02*
D03*
Y854161D02*
D03*
Y834161D02*
D03*
Y814161D02*
D03*
Y754161D02*
D03*
Y734161D02*
D03*
Y694161D02*
D03*
Y674161D02*
D03*
Y654161D02*
D03*
Y634161D02*
D03*
Y614161D02*
D03*
Y594161D02*
D03*
Y574161D02*
D03*
Y554161D02*
D03*
Y534161D02*
D03*
Y334161D02*
D03*
Y314161D02*
D03*
Y234161D02*
D03*
Y94161D02*
D03*
Y74161D02*
D03*
Y54161D02*
D03*
Y34161D02*
D03*
X239571Y954161D02*
D03*
Y934161D02*
D03*
Y914161D02*
D03*
Y894161D02*
D03*
Y874161D02*
D03*
Y854161D02*
D03*
Y694161D02*
D03*
Y674161D02*
D03*
Y654161D02*
D03*
Y634161D02*
D03*
Y614161D02*
D03*
Y594161D02*
D03*
Y574161D02*
D03*
Y554161D02*
D03*
Y534161D02*
D03*
Y514161D02*
D03*
Y474161D02*
D03*
Y454161D02*
D03*
Y394161D02*
D03*
Y314161D02*
D03*
Y294161D02*
D03*
Y234161D02*
D03*
Y214161D02*
D03*
Y94161D02*
D03*
Y74161D02*
D03*
Y54161D02*
D03*
Y34161D02*
D03*
X219571Y954161D02*
D03*
Y934161D02*
D03*
Y914161D02*
D03*
Y894161D02*
D03*
Y874161D02*
D03*
Y854161D02*
D03*
Y694161D02*
D03*
Y674161D02*
D03*
Y654161D02*
D03*
Y634161D02*
D03*
Y614161D02*
D03*
Y594161D02*
D03*
Y574161D02*
D03*
Y554161D02*
D03*
Y534161D02*
D03*
Y514161D02*
D03*
Y454161D02*
D03*
Y314161D02*
D03*
Y294161D02*
D03*
Y274161D02*
D03*
Y254161D02*
D03*
Y234161D02*
D03*
Y214161D02*
D03*
Y194161D02*
D03*
Y174161D02*
D03*
Y154161D02*
D03*
Y134161D02*
D03*
Y114161D02*
D03*
Y94161D02*
D03*
Y74161D02*
D03*
Y54161D02*
D03*
Y34161D02*
D03*
X199571Y954161D02*
D03*
Y934161D02*
D03*
Y914161D02*
D03*
Y894161D02*
D03*
Y874161D02*
D03*
Y854161D02*
D03*
Y694161D02*
D03*
Y634161D02*
D03*
Y614161D02*
D03*
Y594161D02*
D03*
Y574161D02*
D03*
Y554161D02*
D03*
Y534161D02*
D03*
Y514161D02*
D03*
Y494161D02*
D03*
Y474161D02*
D03*
Y454161D02*
D03*
Y414161D02*
D03*
Y354161D02*
D03*
Y334161D02*
D03*
Y314161D02*
D03*
Y294161D02*
D03*
Y274161D02*
D03*
Y254161D02*
D03*
Y234161D02*
D03*
Y214161D02*
D03*
Y194161D02*
D03*
Y174161D02*
D03*
Y154161D02*
D03*
Y134161D02*
D03*
Y114161D02*
D03*
Y94161D02*
D03*
Y74161D02*
D03*
Y54161D02*
D03*
Y34161D02*
D03*
X179571Y954161D02*
D03*
Y934161D02*
D03*
Y914161D02*
D03*
Y894161D02*
D03*
Y874161D02*
D03*
Y854161D02*
D03*
Y694161D02*
D03*
Y674161D02*
D03*
Y654161D02*
D03*
Y634161D02*
D03*
Y614161D02*
D03*
Y594161D02*
D03*
Y574161D02*
D03*
Y554161D02*
D03*
Y534161D02*
D03*
Y514161D02*
D03*
Y494161D02*
D03*
Y474161D02*
D03*
Y374161D02*
D03*
Y354161D02*
D03*
Y334161D02*
D03*
Y314161D02*
D03*
Y294161D02*
D03*
Y274161D02*
D03*
Y254161D02*
D03*
Y234161D02*
D03*
Y214161D02*
D03*
Y194161D02*
D03*
Y174161D02*
D03*
Y154161D02*
D03*
Y134161D02*
D03*
Y114161D02*
D03*
Y94161D02*
D03*
Y74161D02*
D03*
Y54161D02*
D03*
Y34161D02*
D03*
X159571Y954161D02*
D03*
Y934161D02*
D03*
Y914161D02*
D03*
Y894161D02*
D03*
Y874161D02*
D03*
Y854161D02*
D03*
Y694161D02*
D03*
Y674161D02*
D03*
Y654161D02*
D03*
Y634161D02*
D03*
Y614161D02*
D03*
Y594161D02*
D03*
Y574161D02*
D03*
Y554161D02*
D03*
Y534161D02*
D03*
Y514161D02*
D03*
Y494161D02*
D03*
Y474161D02*
D03*
Y434161D02*
D03*
Y414161D02*
D03*
Y374161D02*
D03*
Y354161D02*
D03*
Y334161D02*
D03*
Y314161D02*
D03*
Y294161D02*
D03*
Y274161D02*
D03*
Y254161D02*
D03*
Y234161D02*
D03*
Y214161D02*
D03*
Y194161D02*
D03*
Y174161D02*
D03*
Y154161D02*
D03*
Y134161D02*
D03*
Y114161D02*
D03*
Y94161D02*
D03*
Y74161D02*
D03*
Y54161D02*
D03*
Y34161D02*
D03*
X139571Y954161D02*
D03*
Y934161D02*
D03*
Y914161D02*
D03*
Y894161D02*
D03*
Y874161D02*
D03*
Y854161D02*
D03*
Y834161D02*
D03*
Y814161D02*
D03*
Y794161D02*
D03*
Y774161D02*
D03*
Y754161D02*
D03*
Y734161D02*
D03*
Y694161D02*
D03*
Y614161D02*
D03*
Y594161D02*
D03*
Y574161D02*
D03*
Y554161D02*
D03*
Y534161D02*
D03*
Y514161D02*
D03*
Y494161D02*
D03*
Y474161D02*
D03*
Y374161D02*
D03*
Y354161D02*
D03*
Y334161D02*
D03*
Y314161D02*
D03*
Y294161D02*
D03*
Y274161D02*
D03*
Y254161D02*
D03*
Y234161D02*
D03*
Y214161D02*
D03*
Y194161D02*
D03*
Y174161D02*
D03*
Y154161D02*
D03*
Y134161D02*
D03*
Y114161D02*
D03*
Y94161D02*
D03*
Y74161D02*
D03*
Y54161D02*
D03*
Y34161D02*
D03*
X119571Y954161D02*
D03*
Y934161D02*
D03*
Y914161D02*
D03*
Y894161D02*
D03*
Y874161D02*
D03*
Y854161D02*
D03*
Y834161D02*
D03*
Y794161D02*
D03*
Y734161D02*
D03*
Y694161D02*
D03*
Y654161D02*
D03*
Y614161D02*
D03*
Y594161D02*
D03*
Y574161D02*
D03*
Y554161D02*
D03*
Y534161D02*
D03*
Y514161D02*
D03*
Y494161D02*
D03*
Y474161D02*
D03*
Y414161D02*
D03*
Y374161D02*
D03*
Y354161D02*
D03*
Y334161D02*
D03*
Y314161D02*
D03*
Y294161D02*
D03*
Y274161D02*
D03*
Y254161D02*
D03*
Y234161D02*
D03*
Y214161D02*
D03*
Y194161D02*
D03*
Y174161D02*
D03*
Y154161D02*
D03*
Y134161D02*
D03*
Y114161D02*
D03*
Y94161D02*
D03*
Y74161D02*
D03*
Y54161D02*
D03*
Y34161D02*
D03*
X99571Y894161D02*
D03*
Y874161D02*
D03*
Y854161D02*
D03*
Y834161D02*
D03*
Y794161D02*
D03*
Y734161D02*
D03*
Y714161D02*
D03*
Y594161D02*
D03*
Y574161D02*
D03*
Y554161D02*
D03*
Y534161D02*
D03*
Y514161D02*
D03*
Y494161D02*
D03*
Y474161D02*
D03*
Y454161D02*
D03*
Y414161D02*
D03*
Y374161D02*
D03*
Y354161D02*
D03*
Y334161D02*
D03*
Y314161D02*
D03*
Y294161D02*
D03*
Y274161D02*
D03*
Y254161D02*
D03*
Y234161D02*
D03*
Y214161D02*
D03*
Y194161D02*
D03*
Y174161D02*
D03*
Y154161D02*
D03*
Y134161D02*
D03*
Y114161D02*
D03*
Y34161D02*
D03*
X79570Y874161D02*
D03*
Y854161D02*
D03*
Y834161D02*
D03*
Y814161D02*
D03*
Y794161D02*
D03*
Y774161D02*
D03*
Y714161D02*
D03*
Y694161D02*
D03*
Y674161D02*
D03*
Y654161D02*
D03*
Y614161D02*
D03*
Y594161D02*
D03*
Y574161D02*
D03*
Y554161D02*
D03*
Y534161D02*
D03*
Y514161D02*
D03*
Y494161D02*
D03*
Y474161D02*
D03*
Y454161D02*
D03*
Y434161D02*
D03*
Y334161D02*
D03*
Y314161D02*
D03*
Y294161D02*
D03*
Y274161D02*
D03*
Y254161D02*
D03*
Y234161D02*
D03*
Y214161D02*
D03*
Y194161D02*
D03*
Y174161D02*
D03*
Y154161D02*
D03*
Y134161D02*
D03*
Y114161D02*
D03*
X59570Y874161D02*
D03*
Y854161D02*
D03*
Y834161D02*
D03*
Y814161D02*
D03*
Y774161D02*
D03*
Y754161D02*
D03*
Y714161D02*
D03*
Y694161D02*
D03*
Y674161D02*
D03*
Y614161D02*
D03*
Y594161D02*
D03*
Y574161D02*
D03*
Y554161D02*
D03*
Y534161D02*
D03*
Y514161D02*
D03*
Y494161D02*
D03*
Y474161D02*
D03*
Y454161D02*
D03*
Y434161D02*
D03*
Y334161D02*
D03*
Y314161D02*
D03*
Y294161D02*
D03*
Y274161D02*
D03*
Y254161D02*
D03*
Y234161D02*
D03*
Y214161D02*
D03*
Y194161D02*
D03*
Y174161D02*
D03*
Y154161D02*
D03*
Y134161D02*
D03*
Y114161D02*
D03*
X39571Y954161D02*
D03*
Y894161D02*
D03*
Y874161D02*
D03*
Y854161D02*
D03*
Y834161D02*
D03*
Y774161D02*
D03*
Y714161D02*
D03*
Y694161D02*
D03*
Y674161D02*
D03*
Y654161D02*
D03*
Y634161D02*
D03*
Y614161D02*
D03*
Y594161D02*
D03*
Y574161D02*
D03*
Y554161D02*
D03*
Y534161D02*
D03*
Y514161D02*
D03*
Y494161D02*
D03*
Y474161D02*
D03*
Y454161D02*
D03*
Y434161D02*
D03*
Y414161D02*
D03*
Y394161D02*
D03*
Y374161D02*
D03*
Y354161D02*
D03*
Y334161D02*
D03*
Y314161D02*
D03*
Y294161D02*
D03*
Y274161D02*
D03*
Y254161D02*
D03*
Y234161D02*
D03*
Y214161D02*
D03*
Y194161D02*
D03*
Y174161D02*
D03*
Y154161D02*
D03*
Y134161D02*
D03*
Y114161D02*
D03*
Y94161D02*
D03*
Y34161D02*
D03*
X301000Y780000D02*
D03*
X306000Y769000D02*
D03*
X471000Y827000D02*
D03*
X560000Y824000D02*
D03*
X386000Y339000D02*
D03*
X367000D02*
D03*
X465000Y407000D02*
D03*
Y397000D02*
D03*
X464000Y417000D02*
D03*
X460000Y422000D02*
D03*
X464000Y427000D02*
D03*
X438000Y521000D02*
D03*
X464000Y499000D02*
D03*
X465000Y507000D02*
D03*
X370000Y546000D02*
D03*
X297000D02*
D03*
X254000Y481000D02*
D03*
X224000Y478000D02*
D03*
X240000Y446000D02*
D03*
Y495000D02*
D03*
X652000Y778000D02*
D03*
X700000Y773000D02*
D03*
X711000Y802000D02*
D03*
X274000Y768000D02*
D03*
X107000Y613000D02*
D03*
X212000Y390450D02*
D03*
Y377450D02*
D03*
X132000Y436550D02*
D03*
Y423550D02*
D03*
X265000Y121000D02*
D03*
Y135000D02*
D03*
Y149000D02*
D03*
Y163000D02*
D03*
Y177000D02*
D03*
Y191000D02*
D03*
X330000Y135000D02*
D03*
X331000Y145000D02*
D03*
X352000Y166000D02*
D03*
X466000Y481000D02*
D03*
X459000Y521000D02*
D03*
X284000Y511000D02*
D03*
X281000Y503000D02*
D03*
X394000Y339000D02*
D03*
X359000D02*
D03*
X352000Y146000D02*
D03*
X382000Y176000D02*
D03*
Y186000D02*
D03*
X352000D02*
D03*
M02*
