G04*
G04 #@! TF.GenerationSoftware,Altium Limited,Altium Designer,24.9.1 (31)*
G04*
G04 Layer_Physical_Order=3*
G04 Layer_Color=3707366*
%FSLAX44Y44*%
%MOMM*%
G71*
G04*
G04 #@! TF.SameCoordinates,4335CC60-2305-4243-8225-37A9A20B0478*
G04*
G04*
G04 #@! TF.FilePolarity,Positive*
G04*
G01*
G75*
%ADD44C,2.0000*%
%ADD72C,1.5240*%
%ADD81C,0.5000*%
%ADD83C,1.6000*%
%ADD84R,1.6000X1.6000*%
%ADD85C,6.3500*%
%ADD86C,0.6000*%
%ADD87C,0.4000*%
G36*
X476000Y518000D02*
Y205000D01*
X358000Y87000D01*
X260000D01*
X231000Y116000D01*
Y346000D01*
X214000Y363000D01*
X156000D01*
X99000Y420000D01*
Y446000D01*
X114000Y461000D01*
X171000D01*
X227000Y405000D01*
X244000D01*
X269000Y430000D01*
Y519000D01*
X407000D01*
X408000Y518000D01*
X424000Y534000D01*
X460000D01*
X476000Y518000D01*
D02*
G37*
%LPC*%
G36*
X459696Y524500D02*
X458304D01*
X457017Y523967D01*
X456033Y522983D01*
X455500Y521696D01*
Y520304D01*
X456033Y519017D01*
X457017Y518033D01*
X458304Y517500D01*
X459696D01*
X460983Y518033D01*
X461967Y519017D01*
X462500Y520304D01*
Y521696D01*
X461967Y522983D01*
X460983Y523967D01*
X459696Y524500D01*
D02*
G37*
G36*
X284696Y514500D02*
X283304D01*
X282017Y513967D01*
X281033Y512983D01*
X280500Y511696D01*
Y510304D01*
X281033Y509017D01*
X281550Y508500D01*
X280890Y506500D01*
X280304D01*
X279017Y505967D01*
X278033Y504983D01*
X277500Y503696D01*
Y502304D01*
X278033Y501017D01*
X279017Y500033D01*
X280304Y499500D01*
X281696D01*
X282983Y500033D01*
X283967Y501017D01*
X284500Y502304D01*
Y503696D01*
X283967Y504983D01*
X283450Y505500D01*
X284110Y507500D01*
X284696D01*
X285983Y508033D01*
X286967Y509017D01*
X287500Y510304D01*
Y511696D01*
X286967Y512983D01*
X285983Y513967D01*
X284696Y514500D01*
D02*
G37*
G36*
X466696Y484500D02*
X465304D01*
X464017Y483967D01*
X463033Y482983D01*
X462500Y481696D01*
Y480304D01*
X463033Y479017D01*
X464017Y478033D01*
X465304Y477500D01*
X466696D01*
X467983Y478033D01*
X468967Y479017D01*
X469500Y480304D01*
Y481696D01*
X468967Y482983D01*
X467983Y483967D01*
X466696Y484500D01*
D02*
G37*
G36*
X132696Y440050D02*
X131304D01*
X130017Y439517D01*
X129033Y438533D01*
X128500Y437246D01*
Y435854D01*
X129033Y434567D01*
X130017Y433583D01*
X131304Y433050D01*
X132696D01*
X133983Y433583D01*
X134967Y434567D01*
X135500Y435854D01*
Y437246D01*
X134967Y438533D01*
X133983Y439517D01*
X132696Y440050D01*
D02*
G37*
G36*
Y427050D02*
X131304D01*
X130017Y426517D01*
X129033Y425533D01*
X128500Y424246D01*
Y422854D01*
X129033Y421567D01*
X130017Y420583D01*
X131304Y420050D01*
X132696D01*
X133983Y420583D01*
X134967Y421567D01*
X135500Y422854D01*
Y424246D01*
X134967Y425533D01*
X133983Y426517D01*
X132696Y427050D01*
D02*
G37*
G36*
X212696Y393950D02*
X211304D01*
X210017Y393417D01*
X209033Y392433D01*
X208500Y391146D01*
Y389754D01*
X209033Y388467D01*
X210017Y387483D01*
X211304Y386950D01*
X212696D01*
X213983Y387483D01*
X214967Y388467D01*
X215500Y389754D01*
Y391146D01*
X214967Y392433D01*
X213983Y393417D01*
X212696Y393950D01*
D02*
G37*
G36*
Y380950D02*
X211304D01*
X210017Y380417D01*
X209033Y379433D01*
X208500Y378146D01*
Y376754D01*
X209033Y375467D01*
X210017Y374483D01*
X211304Y373950D01*
X212696D01*
X213983Y374483D01*
X214967Y375467D01*
X215500Y376754D01*
Y378146D01*
X214967Y379433D01*
X213983Y380417D01*
X212696Y380950D01*
D02*
G37*
G36*
X394696Y342500D02*
X393304D01*
X392017Y341967D01*
X391033Y340983D01*
X390500Y339696D01*
Y338304D01*
X391033Y337017D01*
X392017Y336033D01*
X393304Y335500D01*
X394696D01*
X395983Y336033D01*
X396967Y337017D01*
X397500Y338304D01*
Y339696D01*
X396967Y340983D01*
X395983Y341967D01*
X394696Y342500D01*
D02*
G37*
G36*
X359696D02*
X358304D01*
X357017Y341967D01*
X356033Y340983D01*
X355500Y339696D01*
Y338304D01*
X356033Y337017D01*
X357017Y336033D01*
X358304Y335500D01*
X359696D01*
X360983Y336033D01*
X361967Y337017D01*
X362500Y338304D01*
Y339696D01*
X361967Y340983D01*
X360983Y341967D01*
X359696Y342500D01*
D02*
G37*
G36*
X265696Y194500D02*
X264304D01*
X263017Y193967D01*
X262033Y192983D01*
X261500Y191696D01*
Y190304D01*
X262033Y189017D01*
X263017Y188033D01*
X264304Y187500D01*
X265696D01*
X266983Y188033D01*
X267967Y189017D01*
X268500Y190304D01*
Y191696D01*
X267967Y192983D01*
X266983Y193967D01*
X265696Y194500D01*
D02*
G37*
G36*
X382696Y189500D02*
X381304D01*
X380017Y188967D01*
X379033Y187983D01*
X378500Y186696D01*
Y185304D01*
X379033Y184017D01*
X380017Y183033D01*
X381304Y182500D01*
X382696D01*
X383983Y183033D01*
X384967Y184017D01*
X385500Y185304D01*
Y186696D01*
X384967Y187983D01*
X383983Y188967D01*
X382696Y189500D01*
D02*
G37*
G36*
X352696D02*
X351304D01*
X350017Y188967D01*
X349033Y187983D01*
X348500Y186696D01*
Y185304D01*
X349033Y184017D01*
X350017Y183033D01*
X351304Y182500D01*
X352696D01*
X353983Y183033D01*
X354967Y184017D01*
X355500Y185304D01*
Y186696D01*
X354967Y187983D01*
X353983Y188967D01*
X352696Y189500D01*
D02*
G37*
G36*
X265696Y180500D02*
X264304D01*
X263017Y179967D01*
X262033Y178983D01*
X261500Y177696D01*
Y176304D01*
X262033Y175017D01*
X263017Y174033D01*
X264304Y173500D01*
X265696D01*
X266983Y174033D01*
X267967Y175017D01*
X268500Y176304D01*
Y177696D01*
X267967Y178983D01*
X266983Y179967D01*
X265696Y180500D01*
D02*
G37*
G36*
X382696Y179500D02*
X381304D01*
X380017Y178967D01*
X379033Y177983D01*
X378500Y176696D01*
Y175304D01*
X379033Y174017D01*
X380017Y173033D01*
X381304Y172500D01*
X382696D01*
X383983Y173033D01*
X384967Y174017D01*
X385500Y175304D01*
Y176696D01*
X384967Y177983D01*
X383983Y178967D01*
X382696Y179500D01*
D02*
G37*
G36*
X352696Y169500D02*
X351304D01*
X350017Y168967D01*
X349033Y167983D01*
X348500Y166696D01*
Y165304D01*
X349033Y164017D01*
X350017Y163033D01*
X351304Y162500D01*
X352696D01*
X353983Y163033D01*
X354967Y164017D01*
X355500Y165304D01*
Y166696D01*
X354967Y167983D01*
X353983Y168967D01*
X352696Y169500D01*
D02*
G37*
G36*
X265696Y166500D02*
X264304D01*
X263017Y165967D01*
X262033Y164983D01*
X261500Y163696D01*
Y162304D01*
X262033Y161017D01*
X263017Y160033D01*
X264304Y159500D01*
X265696D01*
X266983Y160033D01*
X267967Y161017D01*
X268500Y162304D01*
Y163696D01*
X267967Y164983D01*
X266983Y165967D01*
X265696Y166500D01*
D02*
G37*
G36*
Y152500D02*
X264304D01*
X263017Y151967D01*
X262033Y150983D01*
X261500Y149696D01*
Y148304D01*
X262033Y147017D01*
X263017Y146033D01*
X264304Y145500D01*
X265696D01*
X266983Y146033D01*
X267967Y147017D01*
X268500Y148304D01*
Y149696D01*
X267967Y150983D01*
X266983Y151967D01*
X265696Y152500D01*
D02*
G37*
G36*
X352696Y149500D02*
X351304D01*
X350018Y148967D01*
X349033Y147982D01*
X348500Y146696D01*
Y145304D01*
X349033Y144017D01*
X350018Y143033D01*
X351304Y142500D01*
X352696D01*
X353983Y143033D01*
X354967Y144017D01*
X355500Y145304D01*
Y146696D01*
X354967Y147982D01*
X353983Y148967D01*
X352696Y149500D01*
D02*
G37*
G36*
X331696Y148500D02*
X330304D01*
X329017Y147967D01*
X328033Y146983D01*
X327500Y145696D01*
Y144304D01*
X328033Y143017D01*
X329017Y142033D01*
X330304Y141500D01*
X331696D01*
X332983Y142033D01*
X333967Y143017D01*
X334500Y144304D01*
Y145696D01*
X333967Y146983D01*
X332983Y147967D01*
X331696Y148500D01*
D02*
G37*
G36*
X330696Y138500D02*
X329304D01*
X328017Y137967D01*
X327033Y136983D01*
X326500Y135696D01*
Y134304D01*
X327033Y133017D01*
X328017Y132033D01*
X329304Y131500D01*
X330696D01*
X331983Y132033D01*
X332967Y133017D01*
X333500Y134304D01*
Y135696D01*
X332967Y136983D01*
X331983Y137967D01*
X330696Y138500D01*
D02*
G37*
G36*
X265696D02*
X264304D01*
X263017Y137967D01*
X262033Y136983D01*
X261500Y135696D01*
Y134304D01*
X262033Y133017D01*
X263017Y132033D01*
X264304Y131500D01*
X265696D01*
X266983Y132033D01*
X267967Y133017D01*
X268500Y134304D01*
Y135696D01*
X267967Y136983D01*
X266983Y137967D01*
X265696Y138500D01*
D02*
G37*
G36*
Y124500D02*
X264304D01*
X263017Y123967D01*
X262033Y122983D01*
X261500Y121696D01*
Y120304D01*
X262033Y119017D01*
X263017Y118033D01*
X264304Y117500D01*
X265696D01*
X266983Y118033D01*
X267967Y119017D01*
X268500Y120304D01*
Y121696D01*
X267967Y122983D01*
X266983Y123967D01*
X265696Y124500D01*
D02*
G37*
%LPD*%
D44*
X789000Y450000D02*
G03*
X850000Y389000I61000J0D01*
G01*
X789000Y950000D02*
G03*
X750000Y989000I-39000J0D01*
G01*
X989000Y350000D02*
G03*
X950000Y389000I-39000J0D01*
G01*
Y11000D02*
G03*
X989000Y50000I0J39000D01*
G01*
X49966Y989000D02*
G03*
X11000Y950000I34J-39000D01*
G01*
Y50000D02*
G03*
X50000Y11000I39000J0D01*
G01*
X989000Y50000D02*
Y350000D01*
X789000Y450000D02*
Y950000D01*
X850000Y389000D02*
X950000D01*
X50000Y989000D02*
X750000Y989000D01*
X50000Y11000D02*
X950000D01*
X11000Y50000D02*
Y950000D01*
D72*
X70000Y92860D02*
D03*
X47140Y70000D02*
D03*
X70000Y47140D02*
D03*
X92860Y70000D02*
D03*
X86165Y86165D02*
D03*
X53836D02*
D03*
Y53836D02*
D03*
X86165D02*
D03*
X746164Y913836D02*
D03*
X713836D02*
D03*
Y946164D02*
D03*
X746164D02*
D03*
X752860Y930000D02*
D03*
X730000Y907140D02*
D03*
X707140Y930000D02*
D03*
X730000Y952860D02*
D03*
X946164Y53836D02*
D03*
X913836D02*
D03*
Y86165D02*
D03*
X946164D02*
D03*
X952860Y70000D02*
D03*
X930000Y47140D02*
D03*
X907140Y70000D02*
D03*
X930000Y92860D02*
D03*
X86165Y913836D02*
D03*
X53836D02*
D03*
Y946164D02*
D03*
X86165D02*
D03*
X92860Y930000D02*
D03*
X70000Y907140D02*
D03*
X47140Y930000D02*
D03*
X70000Y952860D02*
D03*
D81*
X559743Y814000D02*
X578500D01*
X668000Y903500D01*
X483500Y814000D02*
X533000D01*
X446000Y851500D02*
X483500Y814000D01*
X667000Y975500D02*
X668000Y974500D01*
Y903500D02*
Y974500D01*
X446000Y919500D02*
X501000Y974500D01*
X446000Y851500D02*
Y919500D01*
D83*
X736000Y520200D02*
D03*
Y418600D02*
D03*
Y393200D02*
D03*
Y367800D02*
D03*
Y444000D02*
D03*
Y469400D02*
D03*
Y494800D02*
D03*
X746000Y843800D02*
D03*
Y742200D02*
D03*
Y716800D02*
D03*
Y691400D02*
D03*
Y767600D02*
D03*
Y793000D02*
D03*
Y818400D02*
D03*
X46000Y760000D02*
D03*
X646000Y944400D02*
D03*
D84*
X736000Y342400D02*
D03*
X746000Y666000D02*
D03*
X46000Y734600D02*
D03*
X646000Y919000D02*
D03*
D85*
X70000Y70000D02*
D03*
X730000Y930000D02*
D03*
X930000Y70000D02*
D03*
X70000Y930000D02*
D03*
D86*
X750132Y988820D02*
D03*
X739132Y988807D02*
D03*
X728132D02*
D03*
X717132D02*
D03*
X706132D02*
D03*
X695132D02*
D03*
X684132D02*
D03*
X673132D02*
D03*
X662132D02*
D03*
X651132D02*
D03*
X640132D02*
D03*
X629132D02*
D03*
X618132D02*
D03*
X607132D02*
D03*
X596132D02*
D03*
X585132D02*
D03*
X574132D02*
D03*
X563132D02*
D03*
X552132D02*
D03*
X541132D02*
D03*
X530132D02*
D03*
X519132D02*
D03*
X508132D02*
D03*
X497132D02*
D03*
X486132D02*
D03*
X475132D02*
D03*
X464132D02*
D03*
X453132D02*
D03*
X442132D02*
D03*
X431132D02*
D03*
X420132D02*
D03*
X409132D02*
D03*
X398132Y988807D02*
D03*
X387132D02*
D03*
X376132D02*
D03*
X365132D02*
D03*
X354132D02*
D03*
X343132D02*
D03*
X332132D02*
D03*
X321133D02*
D03*
X310133D02*
D03*
X299132D02*
D03*
X288132D02*
D03*
X277133D02*
D03*
X266133D02*
D03*
X255133D02*
D03*
X244133D02*
D03*
X233133D02*
D03*
X222133D02*
D03*
X211133D02*
D03*
X200133D02*
D03*
X189133D02*
D03*
X178133D02*
D03*
X167133D02*
D03*
X156133D02*
D03*
X145133D02*
D03*
X134133D02*
D03*
X123133D02*
D03*
X112133D02*
D03*
X101133D02*
D03*
X90133D02*
D03*
X79133D02*
D03*
X68133D02*
D03*
X57133D02*
D03*
X46135Y988611D02*
D03*
X35464Y985940D02*
D03*
X25929Y980454D02*
D03*
X18391Y972443D02*
D03*
X13312Y962686D02*
D03*
X11278Y951876D02*
D03*
X11193Y940876D02*
D03*
Y929877D02*
D03*
Y918877D02*
D03*
Y907877D02*
D03*
Y896877D02*
D03*
Y885877D02*
D03*
Y874877D02*
D03*
Y863877D02*
D03*
Y852877D02*
D03*
Y841877D02*
D03*
Y830877D02*
D03*
Y819877D02*
D03*
Y808877D02*
D03*
Y797877D02*
D03*
Y786877D02*
D03*
Y775877D02*
D03*
Y764877D02*
D03*
Y753877D02*
D03*
Y742877D02*
D03*
Y731877D02*
D03*
Y720877D02*
D03*
Y709877D02*
D03*
Y698877D02*
D03*
Y687877D02*
D03*
Y676877D02*
D03*
Y665877D02*
D03*
Y654877D02*
D03*
Y643877D02*
D03*
Y632877D02*
D03*
Y621877D02*
D03*
Y610877D02*
D03*
Y599877D02*
D03*
Y588877D02*
D03*
Y577877D02*
D03*
Y566877D02*
D03*
Y555877D02*
D03*
Y544877D02*
D03*
Y533877D02*
D03*
Y522877D02*
D03*
Y511877D02*
D03*
Y500877D02*
D03*
Y489877D02*
D03*
Y478877D02*
D03*
Y467878D02*
D03*
Y456878D02*
D03*
Y445877D02*
D03*
Y434878D02*
D03*
Y423878D02*
D03*
Y412878D02*
D03*
Y401878D02*
D03*
Y390878D02*
D03*
Y379878D02*
D03*
Y368878D02*
D03*
Y357878D02*
D03*
Y346878D02*
D03*
Y335878D02*
D03*
Y324878D02*
D03*
Y313878D02*
D03*
Y302878D02*
D03*
Y291878D02*
D03*
Y280878D02*
D03*
Y269878D02*
D03*
Y258878D02*
D03*
Y247878D02*
D03*
Y236878D02*
D03*
Y225878D02*
D03*
Y214878D02*
D03*
Y203878D02*
D03*
Y192878D02*
D03*
Y181878D02*
D03*
Y170878D02*
D03*
Y159878D02*
D03*
Y148878D02*
D03*
Y137878D02*
D03*
Y126878D02*
D03*
Y115878D02*
D03*
Y104878D02*
D03*
Y93878D02*
D03*
Y82878D02*
D03*
Y71878D02*
D03*
Y60878D02*
D03*
X11181Y49878D02*
D03*
X12825Y39002D02*
D03*
X17376Y28987D02*
D03*
X24609Y20700D02*
D03*
X33848Y14730D02*
D03*
X44402Y11629D02*
D03*
X55393Y11193D02*
D03*
X66393D02*
D03*
X77393D02*
D03*
X88393D02*
D03*
X99393D02*
D03*
X110393D02*
D03*
X121393D02*
D03*
X132393D02*
D03*
X143393D02*
D03*
X154393D02*
D03*
X165393D02*
D03*
X176393D02*
D03*
X187393D02*
D03*
X198393D02*
D03*
X209393D02*
D03*
X220393D02*
D03*
X231393D02*
D03*
X242393D02*
D03*
X253393D02*
D03*
X264393D02*
D03*
X275393D02*
D03*
X286392D02*
D03*
X297393D02*
D03*
X308393D02*
D03*
X319393D02*
D03*
X330392D02*
D03*
X341392D02*
D03*
X352392D02*
D03*
X363392D02*
D03*
X374392D02*
D03*
X385392D02*
D03*
X396392D02*
D03*
X407392D02*
D03*
X418392D02*
D03*
X429392D02*
D03*
X440392D02*
D03*
X451392D02*
D03*
X462392D02*
D03*
X473392D02*
D03*
X484392D02*
D03*
X495392D02*
D03*
X506392D02*
D03*
X517392D02*
D03*
X528392D02*
D03*
X539392D02*
D03*
X550392D02*
D03*
X561392D02*
D03*
X572392D02*
D03*
X583392D02*
D03*
X594392D02*
D03*
X605392D02*
D03*
X616392D02*
D03*
X627392D02*
D03*
X638392D02*
D03*
X649392D02*
D03*
X660392D02*
D03*
X671392D02*
D03*
X682392D02*
D03*
X693392D02*
D03*
X704392D02*
D03*
X715392D02*
D03*
X726392D02*
D03*
X737392D02*
D03*
X748392D02*
D03*
X759392D02*
D03*
X770392D02*
D03*
X781392D02*
D03*
X792392D02*
D03*
X803391D02*
D03*
X814391D02*
D03*
X825391D02*
D03*
X836391D02*
D03*
X847391D02*
D03*
X858391D02*
D03*
X869391D02*
D03*
X880391D02*
D03*
X891391D02*
D03*
X902391D02*
D03*
X913391D02*
D03*
X924391D02*
D03*
X935391D02*
D03*
X946391D02*
D03*
X957366Y11930D02*
D03*
X967763Y15524D02*
D03*
X976729Y21896D02*
D03*
X983536Y30536D02*
D03*
X987672Y40729D02*
D03*
X988807Y51671D02*
D03*
Y62670D02*
D03*
Y73671D02*
D03*
Y84670D02*
D03*
Y95670D02*
D03*
Y106670D02*
D03*
Y117670D02*
D03*
Y128670D02*
D03*
Y139670D02*
D03*
Y150670D02*
D03*
Y161670D02*
D03*
Y172670D02*
D03*
Y183670D02*
D03*
Y194670D02*
D03*
Y205670D02*
D03*
Y216670D02*
D03*
Y227670D02*
D03*
Y238670D02*
D03*
Y249670D02*
D03*
Y260670D02*
D03*
Y271670D02*
D03*
Y282670D02*
D03*
Y293670D02*
D03*
Y304670D02*
D03*
Y315670D02*
D03*
Y326670D02*
D03*
Y337670D02*
D03*
Y348670D02*
D03*
X987577Y359601D02*
D03*
X983370Y369765D02*
D03*
X976473Y378334D02*
D03*
X967462Y384642D02*
D03*
X957029Y388128D02*
D03*
X946050Y388807D02*
D03*
X935050D02*
D03*
X924050D02*
D03*
X913050D02*
D03*
X902050D02*
D03*
X891050D02*
D03*
X880050D02*
D03*
X869050D02*
D03*
X858050D02*
D03*
X847051Y388937D02*
D03*
X836159Y390480D02*
D03*
X825711Y393920D02*
D03*
X816033Y399148D02*
D03*
X807473Y406056D02*
D03*
X800302Y414398D02*
D03*
X794688Y423857D02*
D03*
X790950Y434202D02*
D03*
X789095Y445045D02*
D03*
X788807Y456041D02*
D03*
Y467041D02*
D03*
Y478041D02*
D03*
Y489041D02*
D03*
Y500041D02*
D03*
Y511041D02*
D03*
Y522041D02*
D03*
Y533041D02*
D03*
Y544041D02*
D03*
Y555041D02*
D03*
Y566041D02*
D03*
Y577041D02*
D03*
Y588041D02*
D03*
Y599041D02*
D03*
Y610041D02*
D03*
Y621041D02*
D03*
Y632040D02*
D03*
Y643040D02*
D03*
Y654041D02*
D03*
Y665041D02*
D03*
Y676040D02*
D03*
Y687040D02*
D03*
Y698040D02*
D03*
Y709040D02*
D03*
Y720040D02*
D03*
Y731040D02*
D03*
Y742040D02*
D03*
Y753040D02*
D03*
Y764040D02*
D03*
Y775040D02*
D03*
Y786040D02*
D03*
Y797040D02*
D03*
Y808040D02*
D03*
Y819040D02*
D03*
Y830040D02*
D03*
Y841040D02*
D03*
Y852040D02*
D03*
Y863040D02*
D03*
Y874040D02*
D03*
Y885040D02*
D03*
Y896040D02*
D03*
Y907040D02*
D03*
Y918040D02*
D03*
Y929040D02*
D03*
Y940040D02*
D03*
X788769Y951040D02*
D03*
X786920Y961883D02*
D03*
X782090Y971766D02*
D03*
X774702Y979916D02*
D03*
X765299Y985624D02*
D03*
D87*
X959571Y354161D02*
D03*
Y334161D02*
D03*
Y314161D02*
D03*
Y294161D02*
D03*
Y274161D02*
D03*
Y254161D02*
D03*
Y234161D02*
D03*
Y214161D02*
D03*
Y194161D02*
D03*
Y174161D02*
D03*
Y154161D02*
D03*
Y134161D02*
D03*
Y114161D02*
D03*
Y34161D02*
D03*
X939571Y354161D02*
D03*
Y334161D02*
D03*
Y314161D02*
D03*
Y294161D02*
D03*
Y274161D02*
D03*
Y254161D02*
D03*
Y234161D02*
D03*
Y214161D02*
D03*
Y194161D02*
D03*
Y174161D02*
D03*
Y154161D02*
D03*
Y134161D02*
D03*
Y114161D02*
D03*
X919571Y354161D02*
D03*
Y334161D02*
D03*
Y314161D02*
D03*
Y294161D02*
D03*
Y274161D02*
D03*
Y254161D02*
D03*
Y234161D02*
D03*
Y214161D02*
D03*
Y194161D02*
D03*
Y174161D02*
D03*
Y154161D02*
D03*
Y134161D02*
D03*
Y114161D02*
D03*
X899571Y354161D02*
D03*
Y334161D02*
D03*
Y314161D02*
D03*
Y294161D02*
D03*
Y274161D02*
D03*
Y254161D02*
D03*
Y234161D02*
D03*
Y214161D02*
D03*
Y194161D02*
D03*
Y174161D02*
D03*
Y154161D02*
D03*
Y134161D02*
D03*
Y114161D02*
D03*
Y94161D02*
D03*
Y34161D02*
D03*
X879571Y354161D02*
D03*
Y334161D02*
D03*
Y314161D02*
D03*
Y294161D02*
D03*
Y274161D02*
D03*
Y254161D02*
D03*
Y234161D02*
D03*
Y214161D02*
D03*
Y194161D02*
D03*
Y174161D02*
D03*
Y154161D02*
D03*
Y134161D02*
D03*
Y114161D02*
D03*
Y94161D02*
D03*
Y74161D02*
D03*
Y54161D02*
D03*
Y34161D02*
D03*
X859571Y354161D02*
D03*
Y334161D02*
D03*
Y314161D02*
D03*
Y294161D02*
D03*
Y274161D02*
D03*
Y254161D02*
D03*
Y234161D02*
D03*
Y214161D02*
D03*
Y194161D02*
D03*
Y174161D02*
D03*
Y154161D02*
D03*
Y134161D02*
D03*
Y114161D02*
D03*
Y94161D02*
D03*
Y74161D02*
D03*
Y54161D02*
D03*
Y34161D02*
D03*
X839571Y354161D02*
D03*
Y334161D02*
D03*
Y314161D02*
D03*
Y294161D02*
D03*
Y274161D02*
D03*
Y254161D02*
D03*
Y234161D02*
D03*
Y214161D02*
D03*
Y194161D02*
D03*
Y174161D02*
D03*
Y154161D02*
D03*
Y134161D02*
D03*
Y114161D02*
D03*
Y94161D02*
D03*
Y74161D02*
D03*
Y54161D02*
D03*
Y34161D02*
D03*
X819571Y374161D02*
D03*
Y354161D02*
D03*
Y334161D02*
D03*
Y314161D02*
D03*
Y294161D02*
D03*
Y274161D02*
D03*
Y254161D02*
D03*
Y234161D02*
D03*
Y214161D02*
D03*
Y194161D02*
D03*
Y174161D02*
D03*
Y154161D02*
D03*
Y134161D02*
D03*
Y114161D02*
D03*
Y94161D02*
D03*
Y74161D02*
D03*
Y54161D02*
D03*
Y34161D02*
D03*
X799571Y374161D02*
D03*
Y354161D02*
D03*
Y334161D02*
D03*
Y314161D02*
D03*
Y294161D02*
D03*
Y274161D02*
D03*
Y254161D02*
D03*
Y234161D02*
D03*
Y214161D02*
D03*
Y194161D02*
D03*
Y174161D02*
D03*
Y154161D02*
D03*
Y134161D02*
D03*
Y114161D02*
D03*
Y94161D02*
D03*
Y74161D02*
D03*
Y54161D02*
D03*
Y34161D02*
D03*
X779571Y414161D02*
D03*
Y394161D02*
D03*
Y374161D02*
D03*
Y354161D02*
D03*
Y334161D02*
D03*
Y314161D02*
D03*
Y294161D02*
D03*
Y274161D02*
D03*
Y254161D02*
D03*
Y234161D02*
D03*
Y214161D02*
D03*
Y194161D02*
D03*
Y174161D02*
D03*
Y154161D02*
D03*
Y134161D02*
D03*
Y114161D02*
D03*
Y94161D02*
D03*
Y74161D02*
D03*
Y54161D02*
D03*
Y34161D02*
D03*
X759571Y894161D02*
D03*
Y874161D02*
D03*
Y854161D02*
D03*
Y834161D02*
D03*
Y814161D02*
D03*
Y794161D02*
D03*
Y774161D02*
D03*
Y754161D02*
D03*
Y714161D02*
D03*
Y694161D02*
D03*
Y674161D02*
D03*
Y654161D02*
D03*
Y634161D02*
D03*
Y614161D02*
D03*
Y594161D02*
D03*
Y574161D02*
D03*
Y554161D02*
D03*
Y534161D02*
D03*
Y514161D02*
D03*
Y494161D02*
D03*
Y474161D02*
D03*
Y454161D02*
D03*
Y314161D02*
D03*
Y294161D02*
D03*
Y274161D02*
D03*
Y254161D02*
D03*
Y234161D02*
D03*
Y214161D02*
D03*
Y194161D02*
D03*
Y174161D02*
D03*
Y154161D02*
D03*
Y134161D02*
D03*
Y114161D02*
D03*
Y94161D02*
D03*
Y74161D02*
D03*
Y54161D02*
D03*
Y34161D02*
D03*
X739571Y874161D02*
D03*
Y854161D02*
D03*
Y834161D02*
D03*
Y654161D02*
D03*
Y634161D02*
D03*
Y614161D02*
D03*
Y594161D02*
D03*
Y574161D02*
D03*
Y554161D02*
D03*
Y534161D02*
D03*
Y354161D02*
D03*
Y294161D02*
D03*
Y274161D02*
D03*
Y254161D02*
D03*
Y234161D02*
D03*
Y214161D02*
D03*
Y194161D02*
D03*
Y174161D02*
D03*
Y154161D02*
D03*
Y134161D02*
D03*
Y114161D02*
D03*
Y94161D02*
D03*
Y74161D02*
D03*
Y54161D02*
D03*
Y34161D02*
D03*
X719571Y874161D02*
D03*
Y854161D02*
D03*
Y834161D02*
D03*
Y814161D02*
D03*
Y754161D02*
D03*
Y734161D02*
D03*
Y714161D02*
D03*
Y694161D02*
D03*
Y674161D02*
D03*
Y654161D02*
D03*
Y634161D02*
D03*
Y614161D02*
D03*
Y594161D02*
D03*
Y574161D02*
D03*
Y554161D02*
D03*
Y534161D02*
D03*
Y514161D02*
D03*
Y494161D02*
D03*
Y474161D02*
D03*
Y434161D02*
D03*
Y374161D02*
D03*
Y354161D02*
D03*
Y334161D02*
D03*
Y314161D02*
D03*
Y274161D02*
D03*
Y254161D02*
D03*
Y234161D02*
D03*
Y214161D02*
D03*
Y194161D02*
D03*
Y174161D02*
D03*
Y154161D02*
D03*
Y134161D02*
D03*
Y114161D02*
D03*
Y94161D02*
D03*
Y74161D02*
D03*
Y54161D02*
D03*
Y34161D02*
D03*
X699571Y954161D02*
D03*
Y894161D02*
D03*
Y874161D02*
D03*
Y854161D02*
D03*
Y834161D02*
D03*
Y814161D02*
D03*
Y734161D02*
D03*
Y714161D02*
D03*
Y694161D02*
D03*
Y674161D02*
D03*
Y654161D02*
D03*
Y634161D02*
D03*
Y614161D02*
D03*
Y594161D02*
D03*
Y574161D02*
D03*
Y554161D02*
D03*
Y534161D02*
D03*
Y514161D02*
D03*
Y494161D02*
D03*
Y474161D02*
D03*
Y434161D02*
D03*
Y394161D02*
D03*
Y354161D02*
D03*
Y334161D02*
D03*
Y314161D02*
D03*
Y294161D02*
D03*
Y254161D02*
D03*
Y234161D02*
D03*
Y214161D02*
D03*
Y194161D02*
D03*
Y174161D02*
D03*
Y154161D02*
D03*
Y134161D02*
D03*
Y114161D02*
D03*
Y94161D02*
D03*
Y74161D02*
D03*
Y54161D02*
D03*
Y34161D02*
D03*
X679571Y954161D02*
D03*
Y934161D02*
D03*
Y914161D02*
D03*
Y894161D02*
D03*
Y874161D02*
D03*
Y854161D02*
D03*
Y834161D02*
D03*
Y814161D02*
D03*
Y754161D02*
D03*
Y714161D02*
D03*
Y694161D02*
D03*
Y674161D02*
D03*
Y654161D02*
D03*
Y634161D02*
D03*
Y614161D02*
D03*
Y594161D02*
D03*
Y574161D02*
D03*
Y554161D02*
D03*
Y534161D02*
D03*
Y514161D02*
D03*
Y494161D02*
D03*
Y474161D02*
D03*
Y454161D02*
D03*
Y414161D02*
D03*
Y374161D02*
D03*
Y334161D02*
D03*
Y314161D02*
D03*
Y294161D02*
D03*
Y274161D02*
D03*
Y234161D02*
D03*
Y214161D02*
D03*
Y194161D02*
D03*
Y174161D02*
D03*
Y154161D02*
D03*
Y134161D02*
D03*
Y114161D02*
D03*
Y94161D02*
D03*
Y74161D02*
D03*
Y54161D02*
D03*
Y34161D02*
D03*
X659571Y954161D02*
D03*
Y934161D02*
D03*
Y914161D02*
D03*
Y874161D02*
D03*
Y854161D02*
D03*
Y814161D02*
D03*
Y754161D02*
D03*
Y714161D02*
D03*
Y694161D02*
D03*
Y674161D02*
D03*
Y654161D02*
D03*
Y634161D02*
D03*
Y614161D02*
D03*
Y594161D02*
D03*
Y574161D02*
D03*
Y554161D02*
D03*
Y534161D02*
D03*
Y514161D02*
D03*
Y474161D02*
D03*
Y454161D02*
D03*
Y434161D02*
D03*
Y394161D02*
D03*
Y354161D02*
D03*
Y314161D02*
D03*
Y294161D02*
D03*
Y274161D02*
D03*
Y254161D02*
D03*
Y214161D02*
D03*
Y194161D02*
D03*
Y174161D02*
D03*
Y154161D02*
D03*
Y134161D02*
D03*
Y114161D02*
D03*
Y94161D02*
D03*
Y74161D02*
D03*
Y54161D02*
D03*
Y34161D02*
D03*
X639571Y954161D02*
D03*
Y934161D02*
D03*
Y894161D02*
D03*
Y854161D02*
D03*
Y834161D02*
D03*
Y814161D02*
D03*
Y754161D02*
D03*
Y714161D02*
D03*
Y694161D02*
D03*
Y674161D02*
D03*
Y654161D02*
D03*
Y634161D02*
D03*
Y614161D02*
D03*
Y594161D02*
D03*
Y574161D02*
D03*
Y554161D02*
D03*
Y534161D02*
D03*
Y514161D02*
D03*
Y494161D02*
D03*
Y474161D02*
D03*
Y454161D02*
D03*
Y434161D02*
D03*
Y414161D02*
D03*
Y374161D02*
D03*
Y334161D02*
D03*
Y294161D02*
D03*
Y274161D02*
D03*
Y254161D02*
D03*
Y234161D02*
D03*
Y194161D02*
D03*
Y174161D02*
D03*
Y154161D02*
D03*
Y134161D02*
D03*
Y114161D02*
D03*
Y94161D02*
D03*
Y74161D02*
D03*
Y54161D02*
D03*
Y34161D02*
D03*
X619571Y914161D02*
D03*
Y894161D02*
D03*
Y874161D02*
D03*
Y834161D02*
D03*
Y814161D02*
D03*
Y754161D02*
D03*
Y714161D02*
D03*
Y694161D02*
D03*
Y674161D02*
D03*
Y654161D02*
D03*
Y634161D02*
D03*
Y614161D02*
D03*
Y594161D02*
D03*
Y574161D02*
D03*
Y554161D02*
D03*
Y534161D02*
D03*
Y514161D02*
D03*
Y494161D02*
D03*
Y474161D02*
D03*
Y454161D02*
D03*
Y434161D02*
D03*
Y414161D02*
D03*
Y394161D02*
D03*
Y354161D02*
D03*
Y314161D02*
D03*
Y274161D02*
D03*
Y254161D02*
D03*
Y234161D02*
D03*
Y214161D02*
D03*
Y194161D02*
D03*
Y174161D02*
D03*
Y154161D02*
D03*
Y134161D02*
D03*
Y114161D02*
D03*
Y94161D02*
D03*
Y74161D02*
D03*
Y54161D02*
D03*
Y34161D02*
D03*
X599571Y894161D02*
D03*
Y854161D02*
D03*
Y814161D02*
D03*
Y754161D02*
D03*
Y714161D02*
D03*
Y694161D02*
D03*
Y674161D02*
D03*
Y654161D02*
D03*
Y634161D02*
D03*
Y614161D02*
D03*
Y594161D02*
D03*
Y574161D02*
D03*
Y554161D02*
D03*
Y534161D02*
D03*
Y514161D02*
D03*
Y494161D02*
D03*
Y474161D02*
D03*
Y454161D02*
D03*
Y434161D02*
D03*
Y414161D02*
D03*
Y394161D02*
D03*
Y374161D02*
D03*
Y334161D02*
D03*
Y294161D02*
D03*
Y254161D02*
D03*
Y234161D02*
D03*
Y214161D02*
D03*
Y194161D02*
D03*
Y174161D02*
D03*
Y154161D02*
D03*
Y134161D02*
D03*
Y114161D02*
D03*
Y94161D02*
D03*
Y74161D02*
D03*
Y54161D02*
D03*
Y34161D02*
D03*
X579571Y894161D02*
D03*
Y874161D02*
D03*
Y834161D02*
D03*
Y754161D02*
D03*
Y714161D02*
D03*
Y694161D02*
D03*
Y674161D02*
D03*
Y654161D02*
D03*
Y634161D02*
D03*
Y614161D02*
D03*
Y594161D02*
D03*
Y574161D02*
D03*
Y554161D02*
D03*
Y534161D02*
D03*
Y514161D02*
D03*
Y494161D02*
D03*
Y474161D02*
D03*
Y414161D02*
D03*
Y394161D02*
D03*
Y374161D02*
D03*
Y354161D02*
D03*
Y314161D02*
D03*
Y274161D02*
D03*
Y234161D02*
D03*
Y214161D02*
D03*
Y194161D02*
D03*
Y174161D02*
D03*
Y154161D02*
D03*
Y134161D02*
D03*
Y114161D02*
D03*
Y94161D02*
D03*
Y74161D02*
D03*
Y54161D02*
D03*
Y34161D02*
D03*
X559571Y894161D02*
D03*
Y874161D02*
D03*
Y834161D02*
D03*
Y754161D02*
D03*
Y714161D02*
D03*
Y694161D02*
D03*
Y674161D02*
D03*
Y654161D02*
D03*
Y634161D02*
D03*
Y614161D02*
D03*
Y594161D02*
D03*
Y574161D02*
D03*
Y554161D02*
D03*
Y534161D02*
D03*
Y514161D02*
D03*
Y494161D02*
D03*
Y414161D02*
D03*
Y394161D02*
D03*
Y374161D02*
D03*
Y354161D02*
D03*
Y334161D02*
D03*
Y294161D02*
D03*
Y254161D02*
D03*
Y214161D02*
D03*
Y194161D02*
D03*
Y174161D02*
D03*
Y154161D02*
D03*
Y134161D02*
D03*
Y114161D02*
D03*
Y94161D02*
D03*
Y74161D02*
D03*
Y54161D02*
D03*
Y34161D02*
D03*
X539571Y954161D02*
D03*
Y934161D02*
D03*
Y914161D02*
D03*
Y894161D02*
D03*
Y874161D02*
D03*
Y754161D02*
D03*
Y714161D02*
D03*
Y694161D02*
D03*
Y674161D02*
D03*
Y654161D02*
D03*
Y634161D02*
D03*
Y614161D02*
D03*
Y594161D02*
D03*
Y574161D02*
D03*
Y554161D02*
D03*
Y534161D02*
D03*
Y514161D02*
D03*
Y494161D02*
D03*
Y474161D02*
D03*
Y414161D02*
D03*
Y394161D02*
D03*
Y374161D02*
D03*
Y354161D02*
D03*
Y334161D02*
D03*
Y314161D02*
D03*
Y274161D02*
D03*
Y234161D02*
D03*
Y194161D02*
D03*
Y174161D02*
D03*
Y154161D02*
D03*
Y134161D02*
D03*
Y114161D02*
D03*
Y94161D02*
D03*
Y74161D02*
D03*
Y54161D02*
D03*
Y34161D02*
D03*
X519571Y894161D02*
D03*
Y874161D02*
D03*
Y754161D02*
D03*
Y714161D02*
D03*
Y694161D02*
D03*
Y674161D02*
D03*
Y654161D02*
D03*
Y634161D02*
D03*
Y614161D02*
D03*
Y594161D02*
D03*
Y574161D02*
D03*
Y554161D02*
D03*
Y534161D02*
D03*
Y414161D02*
D03*
Y354161D02*
D03*
Y334161D02*
D03*
Y314161D02*
D03*
Y294161D02*
D03*
Y254161D02*
D03*
Y194161D02*
D03*
Y174161D02*
D03*
Y154161D02*
D03*
Y134161D02*
D03*
Y114161D02*
D03*
Y94161D02*
D03*
Y74161D02*
D03*
Y54161D02*
D03*
Y34161D02*
D03*
X499571Y954161D02*
D03*
Y894161D02*
D03*
Y874161D02*
D03*
Y754161D02*
D03*
Y714161D02*
D03*
Y694161D02*
D03*
Y674161D02*
D03*
Y654161D02*
D03*
Y634161D02*
D03*
Y614161D02*
D03*
Y594161D02*
D03*
Y574161D02*
D03*
Y554161D02*
D03*
Y534161D02*
D03*
Y414161D02*
D03*
Y354161D02*
D03*
Y334161D02*
D03*
Y314161D02*
D03*
Y294161D02*
D03*
Y274161D02*
D03*
Y234161D02*
D03*
Y194161D02*
D03*
Y174161D02*
D03*
Y154161D02*
D03*
Y134161D02*
D03*
Y114161D02*
D03*
Y94161D02*
D03*
Y74161D02*
D03*
Y54161D02*
D03*
Y34161D02*
D03*
X479571Y934161D02*
D03*
Y914161D02*
D03*
Y894161D02*
D03*
Y874161D02*
D03*
Y754161D02*
D03*
Y714161D02*
D03*
Y694161D02*
D03*
Y674161D02*
D03*
Y654161D02*
D03*
Y634161D02*
D03*
Y614161D02*
D03*
Y594161D02*
D03*
Y574161D02*
D03*
Y554161D02*
D03*
Y534161D02*
D03*
Y334161D02*
D03*
Y314161D02*
D03*
Y294161D02*
D03*
Y274161D02*
D03*
Y254161D02*
D03*
Y194161D02*
D03*
Y174161D02*
D03*
Y154161D02*
D03*
Y134161D02*
D03*
Y114161D02*
D03*
Y94161D02*
D03*
Y74161D02*
D03*
Y54161D02*
D03*
Y34161D02*
D03*
X459571Y954161D02*
D03*
Y914161D02*
D03*
Y854161D02*
D03*
Y814161D02*
D03*
Y734161D02*
D03*
Y714161D02*
D03*
Y694161D02*
D03*
Y674161D02*
D03*
Y494161D02*
D03*
Y454161D02*
D03*
Y434161D02*
D03*
Y394161D02*
D03*
Y374161D02*
D03*
Y354161D02*
D03*
Y334161D02*
D03*
Y254161D02*
D03*
Y174161D02*
D03*
Y154161D02*
D03*
Y134161D02*
D03*
Y114161D02*
D03*
Y94161D02*
D03*
Y74161D02*
D03*
Y54161D02*
D03*
Y34161D02*
D03*
X439571Y954161D02*
D03*
Y934161D02*
D03*
Y834161D02*
D03*
Y794161D02*
D03*
Y734161D02*
D03*
Y714161D02*
D03*
Y694161D02*
D03*
Y594161D02*
D03*
Y514161D02*
D03*
Y474161D02*
D03*
Y94161D02*
D03*
Y74161D02*
D03*
Y54161D02*
D03*
X419571Y954161D02*
D03*
Y934161D02*
D03*
Y914161D02*
D03*
Y854161D02*
D03*
Y814161D02*
D03*
Y794161D02*
D03*
Y754161D02*
D03*
Y734161D02*
D03*
Y714161D02*
D03*
Y694161D02*
D03*
Y674161D02*
D03*
Y654161D02*
D03*
Y634161D02*
D03*
Y594161D02*
D03*
Y574161D02*
D03*
Y554161D02*
D03*
Y514161D02*
D03*
Y494161D02*
D03*
Y474161D02*
D03*
Y454161D02*
D03*
Y434161D02*
D03*
Y414161D02*
D03*
Y394161D02*
D03*
Y374161D02*
D03*
Y354161D02*
D03*
Y334161D02*
D03*
Y274161D02*
D03*
Y94161D02*
D03*
Y74161D02*
D03*
X399571Y954161D02*
D03*
Y934161D02*
D03*
Y914161D02*
D03*
Y854161D02*
D03*
Y834161D02*
D03*
Y814161D02*
D03*
Y794161D02*
D03*
Y754161D02*
D03*
Y734161D02*
D03*
Y714161D02*
D03*
Y694161D02*
D03*
Y634161D02*
D03*
Y614161D02*
D03*
Y594161D02*
D03*
Y574161D02*
D03*
Y554161D02*
D03*
Y514161D02*
D03*
Y494161D02*
D03*
Y474161D02*
D03*
Y454161D02*
D03*
Y434161D02*
D03*
Y414161D02*
D03*
Y394161D02*
D03*
Y374161D02*
D03*
Y354161D02*
D03*
Y94161D02*
D03*
Y74161D02*
D03*
X379571Y954161D02*
D03*
Y934161D02*
D03*
Y914161D02*
D03*
Y894161D02*
D03*
Y774161D02*
D03*
Y754161D02*
D03*
Y734161D02*
D03*
Y714161D02*
D03*
Y594161D02*
D03*
Y574161D02*
D03*
Y554161D02*
D03*
Y514161D02*
D03*
Y494161D02*
D03*
Y474161D02*
D03*
Y454161D02*
D03*
Y434161D02*
D03*
Y414161D02*
D03*
Y394161D02*
D03*
Y374161D02*
D03*
Y354161D02*
D03*
Y334161D02*
D03*
Y274161D02*
D03*
Y94161D02*
D03*
Y74161D02*
D03*
Y54161D02*
D03*
Y34161D02*
D03*
X359571Y954161D02*
D03*
Y934161D02*
D03*
Y914161D02*
D03*
Y894161D02*
D03*
Y874161D02*
D03*
Y854161D02*
D03*
Y834161D02*
D03*
Y654161D02*
D03*
Y634161D02*
D03*
Y614161D02*
D03*
Y594161D02*
D03*
Y514161D02*
D03*
Y494161D02*
D03*
Y474161D02*
D03*
Y454161D02*
D03*
Y434161D02*
D03*
Y414161D02*
D03*
Y394161D02*
D03*
Y294161D02*
D03*
Y274161D02*
D03*
Y194161D02*
D03*
Y94161D02*
D03*
Y74161D02*
D03*
X339571Y954161D02*
D03*
Y934161D02*
D03*
Y914161D02*
D03*
Y894161D02*
D03*
Y874161D02*
D03*
Y774161D02*
D03*
Y754161D02*
D03*
Y734161D02*
D03*
Y714161D02*
D03*
Y694161D02*
D03*
Y674161D02*
D03*
Y654161D02*
D03*
Y634161D02*
D03*
Y614161D02*
D03*
Y594161D02*
D03*
Y574161D02*
D03*
Y554161D02*
D03*
Y514161D02*
D03*
Y494161D02*
D03*
Y474161D02*
D03*
Y454161D02*
D03*
Y434161D02*
D03*
Y414161D02*
D03*
Y374161D02*
D03*
Y354161D02*
D03*
Y274161D02*
D03*
Y94161D02*
D03*
Y74161D02*
D03*
X319571Y954161D02*
D03*
Y934161D02*
D03*
Y914161D02*
D03*
Y894161D02*
D03*
Y874161D02*
D03*
Y854161D02*
D03*
Y834161D02*
D03*
Y754161D02*
D03*
Y734161D02*
D03*
Y714161D02*
D03*
Y694161D02*
D03*
Y674161D02*
D03*
Y654161D02*
D03*
Y634161D02*
D03*
Y614161D02*
D03*
Y594161D02*
D03*
Y574161D02*
D03*
Y554161D02*
D03*
Y514161D02*
D03*
Y494161D02*
D03*
Y474161D02*
D03*
Y434161D02*
D03*
Y414161D02*
D03*
Y394161D02*
D03*
Y374161D02*
D03*
Y354161D02*
D03*
Y294161D02*
D03*
Y274161D02*
D03*
Y234161D02*
D03*
Y114161D02*
D03*
Y94161D02*
D03*
Y74161D02*
D03*
X299571Y954161D02*
D03*
Y934161D02*
D03*
Y914161D02*
D03*
Y894161D02*
D03*
Y874161D02*
D03*
Y854161D02*
D03*
Y834161D02*
D03*
Y814161D02*
D03*
Y774161D02*
D03*
Y754161D02*
D03*
Y734161D02*
D03*
Y714161D02*
D03*
Y694161D02*
D03*
Y674161D02*
D03*
Y654161D02*
D03*
Y634161D02*
D03*
Y614161D02*
D03*
Y594161D02*
D03*
Y514161D02*
D03*
Y254161D02*
D03*
Y194161D02*
D03*
Y114161D02*
D03*
Y94161D02*
D03*
Y74161D02*
D03*
Y54161D02*
D03*
Y34161D02*
D03*
X279571Y954161D02*
D03*
Y934161D02*
D03*
Y914161D02*
D03*
Y894161D02*
D03*
Y874161D02*
D03*
Y854161D02*
D03*
Y834161D02*
D03*
Y814161D02*
D03*
Y714161D02*
D03*
Y694161D02*
D03*
Y674161D02*
D03*
Y654161D02*
D03*
Y634161D02*
D03*
Y614161D02*
D03*
Y594161D02*
D03*
Y214161D02*
D03*
Y194161D02*
D03*
Y114161D02*
D03*
Y94161D02*
D03*
Y74161D02*
D03*
Y54161D02*
D03*
Y34161D02*
D03*
X259571Y954161D02*
D03*
Y934161D02*
D03*
Y914161D02*
D03*
Y894161D02*
D03*
Y874161D02*
D03*
Y854161D02*
D03*
Y834161D02*
D03*
Y814161D02*
D03*
Y754161D02*
D03*
Y734161D02*
D03*
Y694161D02*
D03*
Y674161D02*
D03*
Y654161D02*
D03*
Y634161D02*
D03*
Y614161D02*
D03*
Y594161D02*
D03*
Y574161D02*
D03*
Y554161D02*
D03*
Y534161D02*
D03*
Y334161D02*
D03*
Y314161D02*
D03*
Y234161D02*
D03*
Y94161D02*
D03*
Y74161D02*
D03*
Y54161D02*
D03*
Y34161D02*
D03*
X239571Y954161D02*
D03*
Y934161D02*
D03*
Y914161D02*
D03*
Y894161D02*
D03*
Y874161D02*
D03*
Y854161D02*
D03*
Y694161D02*
D03*
Y674161D02*
D03*
Y654161D02*
D03*
Y634161D02*
D03*
Y614161D02*
D03*
Y594161D02*
D03*
Y574161D02*
D03*
Y554161D02*
D03*
Y534161D02*
D03*
Y514161D02*
D03*
Y474161D02*
D03*
Y454161D02*
D03*
Y394161D02*
D03*
Y314161D02*
D03*
Y294161D02*
D03*
Y234161D02*
D03*
Y214161D02*
D03*
Y94161D02*
D03*
Y74161D02*
D03*
Y54161D02*
D03*
Y34161D02*
D03*
X219571Y954161D02*
D03*
Y934161D02*
D03*
Y914161D02*
D03*
Y894161D02*
D03*
Y874161D02*
D03*
Y854161D02*
D03*
Y694161D02*
D03*
Y674161D02*
D03*
Y654161D02*
D03*
Y634161D02*
D03*
Y614161D02*
D03*
Y594161D02*
D03*
Y574161D02*
D03*
Y554161D02*
D03*
Y534161D02*
D03*
Y514161D02*
D03*
Y454161D02*
D03*
Y314161D02*
D03*
Y294161D02*
D03*
Y274161D02*
D03*
Y254161D02*
D03*
Y234161D02*
D03*
Y214161D02*
D03*
Y194161D02*
D03*
Y174161D02*
D03*
Y154161D02*
D03*
Y134161D02*
D03*
Y114161D02*
D03*
Y94161D02*
D03*
Y74161D02*
D03*
Y54161D02*
D03*
Y34161D02*
D03*
X199571Y954161D02*
D03*
Y934161D02*
D03*
Y914161D02*
D03*
Y894161D02*
D03*
Y874161D02*
D03*
Y854161D02*
D03*
Y694161D02*
D03*
Y634161D02*
D03*
Y614161D02*
D03*
Y594161D02*
D03*
Y574161D02*
D03*
Y554161D02*
D03*
Y534161D02*
D03*
Y514161D02*
D03*
Y494161D02*
D03*
Y474161D02*
D03*
Y454161D02*
D03*
Y414161D02*
D03*
Y354161D02*
D03*
Y334161D02*
D03*
Y314161D02*
D03*
Y294161D02*
D03*
Y274161D02*
D03*
Y254161D02*
D03*
Y234161D02*
D03*
Y214161D02*
D03*
Y194161D02*
D03*
Y174161D02*
D03*
Y154161D02*
D03*
Y134161D02*
D03*
Y114161D02*
D03*
Y94161D02*
D03*
Y74161D02*
D03*
Y54161D02*
D03*
Y34161D02*
D03*
X179571Y954161D02*
D03*
Y934161D02*
D03*
Y914161D02*
D03*
Y894161D02*
D03*
Y874161D02*
D03*
Y854161D02*
D03*
Y694161D02*
D03*
Y674161D02*
D03*
Y654161D02*
D03*
Y634161D02*
D03*
Y614161D02*
D03*
Y594161D02*
D03*
Y574161D02*
D03*
Y554161D02*
D03*
Y534161D02*
D03*
Y514161D02*
D03*
Y494161D02*
D03*
Y474161D02*
D03*
Y374161D02*
D03*
Y354161D02*
D03*
Y334161D02*
D03*
Y314161D02*
D03*
Y294161D02*
D03*
Y274161D02*
D03*
Y254161D02*
D03*
Y234161D02*
D03*
Y214161D02*
D03*
Y194161D02*
D03*
Y174161D02*
D03*
Y154161D02*
D03*
Y134161D02*
D03*
Y114161D02*
D03*
Y94161D02*
D03*
Y74161D02*
D03*
Y54161D02*
D03*
Y34161D02*
D03*
X159571Y954161D02*
D03*
Y934161D02*
D03*
Y914161D02*
D03*
Y894161D02*
D03*
Y874161D02*
D03*
Y854161D02*
D03*
Y694161D02*
D03*
Y674161D02*
D03*
Y654161D02*
D03*
Y634161D02*
D03*
Y614161D02*
D03*
Y594161D02*
D03*
Y574161D02*
D03*
Y554161D02*
D03*
Y534161D02*
D03*
Y514161D02*
D03*
Y494161D02*
D03*
Y474161D02*
D03*
Y434161D02*
D03*
Y414161D02*
D03*
Y374161D02*
D03*
Y354161D02*
D03*
Y334161D02*
D03*
Y314161D02*
D03*
Y294161D02*
D03*
Y274161D02*
D03*
Y254161D02*
D03*
Y234161D02*
D03*
Y214161D02*
D03*
Y194161D02*
D03*
Y174161D02*
D03*
Y154161D02*
D03*
Y134161D02*
D03*
Y114161D02*
D03*
Y94161D02*
D03*
Y74161D02*
D03*
Y54161D02*
D03*
Y34161D02*
D03*
X139571Y954161D02*
D03*
Y934161D02*
D03*
Y914161D02*
D03*
Y894161D02*
D03*
Y874161D02*
D03*
Y854161D02*
D03*
Y834161D02*
D03*
Y814161D02*
D03*
Y794161D02*
D03*
Y774161D02*
D03*
Y754161D02*
D03*
Y734161D02*
D03*
Y694161D02*
D03*
Y614161D02*
D03*
Y594161D02*
D03*
Y574161D02*
D03*
Y554161D02*
D03*
Y534161D02*
D03*
Y514161D02*
D03*
Y494161D02*
D03*
Y474161D02*
D03*
Y374161D02*
D03*
Y354161D02*
D03*
Y334161D02*
D03*
Y314161D02*
D03*
Y294161D02*
D03*
Y274161D02*
D03*
Y254161D02*
D03*
Y234161D02*
D03*
Y214161D02*
D03*
Y194161D02*
D03*
Y174161D02*
D03*
Y154161D02*
D03*
Y134161D02*
D03*
Y114161D02*
D03*
Y94161D02*
D03*
Y74161D02*
D03*
Y54161D02*
D03*
Y34161D02*
D03*
X119571Y954161D02*
D03*
Y934161D02*
D03*
Y914161D02*
D03*
Y894161D02*
D03*
Y874161D02*
D03*
Y854161D02*
D03*
Y834161D02*
D03*
Y794161D02*
D03*
Y734161D02*
D03*
Y694161D02*
D03*
Y654161D02*
D03*
Y614161D02*
D03*
Y594161D02*
D03*
Y574161D02*
D03*
Y554161D02*
D03*
Y534161D02*
D03*
Y514161D02*
D03*
Y494161D02*
D03*
Y474161D02*
D03*
Y414161D02*
D03*
Y374161D02*
D03*
Y354161D02*
D03*
Y334161D02*
D03*
Y314161D02*
D03*
Y294161D02*
D03*
Y274161D02*
D03*
Y254161D02*
D03*
Y234161D02*
D03*
Y214161D02*
D03*
Y194161D02*
D03*
Y174161D02*
D03*
Y154161D02*
D03*
Y134161D02*
D03*
Y114161D02*
D03*
Y94161D02*
D03*
Y74161D02*
D03*
Y54161D02*
D03*
Y34161D02*
D03*
X99571Y894161D02*
D03*
Y874161D02*
D03*
Y854161D02*
D03*
Y834161D02*
D03*
Y794161D02*
D03*
Y734161D02*
D03*
Y714161D02*
D03*
Y594161D02*
D03*
Y574161D02*
D03*
Y554161D02*
D03*
Y534161D02*
D03*
Y514161D02*
D03*
Y494161D02*
D03*
Y474161D02*
D03*
Y454161D02*
D03*
Y414161D02*
D03*
Y374161D02*
D03*
Y354161D02*
D03*
Y334161D02*
D03*
Y314161D02*
D03*
Y294161D02*
D03*
Y274161D02*
D03*
Y254161D02*
D03*
Y234161D02*
D03*
Y214161D02*
D03*
Y194161D02*
D03*
Y174161D02*
D03*
Y154161D02*
D03*
Y134161D02*
D03*
Y114161D02*
D03*
Y34161D02*
D03*
X79570Y874161D02*
D03*
Y854161D02*
D03*
Y834161D02*
D03*
Y814161D02*
D03*
Y794161D02*
D03*
Y774161D02*
D03*
Y714161D02*
D03*
Y694161D02*
D03*
Y674161D02*
D03*
Y654161D02*
D03*
Y614161D02*
D03*
Y594161D02*
D03*
Y574161D02*
D03*
Y554161D02*
D03*
Y534161D02*
D03*
Y514161D02*
D03*
Y494161D02*
D03*
Y474161D02*
D03*
Y454161D02*
D03*
Y434161D02*
D03*
Y334161D02*
D03*
Y314161D02*
D03*
Y294161D02*
D03*
Y274161D02*
D03*
Y254161D02*
D03*
Y234161D02*
D03*
Y214161D02*
D03*
Y194161D02*
D03*
Y174161D02*
D03*
Y154161D02*
D03*
Y134161D02*
D03*
Y114161D02*
D03*
X59570Y874161D02*
D03*
Y854161D02*
D03*
Y834161D02*
D03*
Y814161D02*
D03*
Y774161D02*
D03*
Y754161D02*
D03*
Y714161D02*
D03*
Y694161D02*
D03*
Y674161D02*
D03*
Y614161D02*
D03*
Y594161D02*
D03*
Y574161D02*
D03*
Y554161D02*
D03*
Y534161D02*
D03*
Y514161D02*
D03*
Y494161D02*
D03*
Y474161D02*
D03*
Y454161D02*
D03*
Y434161D02*
D03*
Y334161D02*
D03*
Y314161D02*
D03*
Y294161D02*
D03*
Y274161D02*
D03*
Y254161D02*
D03*
Y234161D02*
D03*
Y214161D02*
D03*
Y194161D02*
D03*
Y174161D02*
D03*
Y154161D02*
D03*
Y134161D02*
D03*
Y114161D02*
D03*
X39571Y954161D02*
D03*
Y894161D02*
D03*
Y874161D02*
D03*
Y854161D02*
D03*
Y834161D02*
D03*
Y774161D02*
D03*
Y714161D02*
D03*
Y694161D02*
D03*
Y674161D02*
D03*
Y654161D02*
D03*
Y634161D02*
D03*
Y614161D02*
D03*
Y594161D02*
D03*
Y574161D02*
D03*
Y554161D02*
D03*
Y534161D02*
D03*
Y514161D02*
D03*
Y494161D02*
D03*
Y474161D02*
D03*
Y454161D02*
D03*
Y434161D02*
D03*
Y414161D02*
D03*
Y394161D02*
D03*
Y374161D02*
D03*
Y354161D02*
D03*
Y334161D02*
D03*
Y314161D02*
D03*
Y294161D02*
D03*
Y274161D02*
D03*
Y254161D02*
D03*
Y234161D02*
D03*
Y214161D02*
D03*
Y194161D02*
D03*
Y174161D02*
D03*
Y154161D02*
D03*
Y134161D02*
D03*
Y114161D02*
D03*
Y94161D02*
D03*
Y34161D02*
D03*
X301000Y780000D02*
D03*
X306000Y769000D02*
D03*
X471000Y827000D02*
D03*
X560000Y824000D02*
D03*
X386000Y339000D02*
D03*
X367000D02*
D03*
X465000Y407000D02*
D03*
Y397000D02*
D03*
X464000Y417000D02*
D03*
X460000Y422000D02*
D03*
X464000Y427000D02*
D03*
X438000Y521000D02*
D03*
X464000Y499000D02*
D03*
X465000Y507000D02*
D03*
X370000Y546000D02*
D03*
X297000D02*
D03*
X254000Y481000D02*
D03*
X224000Y478000D02*
D03*
X240000Y446000D02*
D03*
Y495000D02*
D03*
X652000Y778000D02*
D03*
X700000Y773000D02*
D03*
X711000Y802000D02*
D03*
X274000Y768000D02*
D03*
X107000Y613000D02*
D03*
X212000Y390450D02*
D03*
Y377450D02*
D03*
X132000Y436550D02*
D03*
Y423550D02*
D03*
X265000Y121000D02*
D03*
Y135000D02*
D03*
Y149000D02*
D03*
Y163000D02*
D03*
Y177000D02*
D03*
Y191000D02*
D03*
X330000Y135000D02*
D03*
X331000Y145000D02*
D03*
X352000Y166000D02*
D03*
X466000Y481000D02*
D03*
X459000Y521000D02*
D03*
X284000Y511000D02*
D03*
X281000Y503000D02*
D03*
X394000Y339000D02*
D03*
X359000D02*
D03*
X352000Y146000D02*
D03*
X382000Y176000D02*
D03*
Y186000D02*
D03*
X352000D02*
D03*
M02*
