M48
;Layer_Color=9474304
;FILE_FORMAT=4:3
METRIC,LZ
;TYPE=PLATED
T01F00S00C0.200
T02F00S00C0.300
T03F00S00C0.762
T04F00S00C1.100
T05F00S00C3.180
%
T01
X0003957Y0003416
X0009957
X0011957
X0013957
X0015957
X0017957
X0019957
X0021957
X0023957
X0025957
X0027957
Y0005416
Y0007416
Y0009416
Y0011416
X00265Y00121
Y00135
Y00149
Y00163
X0021957Y0015416
Y0013416
Y0011416
Y0009416
X0023957
X0025957
Y0007416
Y0005416
X0023957
Y0007416
X0021957
Y0005416
X0019957
Y0007416
Y0009416
Y0011416
Y0013416
Y0015416
X0017957
Y0013416
Y0011416
Y0009416
Y0007416
Y0005416
X0015957
Y0007416
Y0009416
Y0011416
Y0013416
Y0015416
X0013957
Y0013416
Y0011416
Y0009416
Y0007416
Y0005416
X0011957
Y0007416
Y0009416
Y0011416
Y0013416
Y0015416
X0009957
Y0013416
Y0011416
X0007957
Y0013416
Y0015416
X0005957
Y0013416
Y0011416
X0003957
Y0013416
Y0015416
Y0009416
X0029957
X0031957
X0033957
X0035957
X0037957
X0039957
X0041957
X0043957
X0045957
X0047957
X0049957
X0051957
X0053957
X0055957
X0057957
X0059957
X0061957
X0063957
X0065957
X0067957
Y0011416
Y0013416
Y0015416
X0065957
Y0013416
Y0011416
X0063957
Y0013416
Y0015416
X0061957
Y0013416
Y0011416
X0059957
Y0013416
Y0015416
X0057957
Y0013416
Y0011416
X0055957
Y0013416
Y0015416
X0053957
Y0013416
Y0011416
X0051957
Y0013416
Y0015416
X0049957
Y0013416
Y0011416
X0047957
Y0013416
Y0015416
X0045957
Y0013416
Y0011416
Y0007416
X0047957
X0049957
X0051957
X0053957
X0055957
X0057957
X0059957
X0061957
X0063957
X0065957
X0067957
Y0005416
Y0003416
X0065957
Y0005416
X0063957
Y0003416
X0061957
Y0005416
X0059957
Y0003416
X0057957
Y0005416
X0055957
Y0003416
X0053957
Y0005416
X0051957
Y0003416
X0049957
Y0005416
X0047957
Y0003416
X0045957
Y0005416
X0043957
Y0007416
X0041957
X0039957
X0037957
Y0005416
Y0003416
X0035957Y0007416
X0033957
X0031957
X0029957
Y0005416
Y0003416
Y0011416
X0031957
X0033Y00135
X00331Y00145
X00352Y00146
X0069957Y0015416
X0071957
X0073957
X0075957
X0077957
X0079957
X0081957
X0083957
X0085957
X0087957
X0089957
X0091957
X0093957
X0095957
Y0013416
Y0011416
X0093957
Y0013416
X0091957
Y0011416
X0089957
Y0013416
X0087957
Y0011416
Y0009416
X0089957
X0087957Y0007416
Y0005416
Y0003416
X0089957
X0085957
Y0005416
Y0007416
Y0009416
Y0011416
Y0013416
X0083957
Y0011416
Y0009416
Y0007416
Y0005416
Y0003416
X0081957
Y0005416
Y0007416
Y0009416
Y0011416
Y0013416
X0079957
Y0011416
Y0009416
Y0007416
Y0005416
Y0003416
X0077957
Y0005416
Y0007416
Y0009416
Y0011416
Y0013416
X0075957
Y0011416
Y0009416
Y0007416
Y0005416
Y0003416
X0073957
Y0005416
Y0007416
Y0009416
Y0011416
Y0013416
X0071957
Y0011416
Y0009416
Y0007416
Y0005416
Y0003416
X0069957
Y0005416
Y0007416
Y0009416
Y0011416
Y0013416
X0095957Y0003416
Y0017416
Y0019416
Y0021416
Y0023416
Y0025416
Y0027416
Y0029416
Y0031416
Y0033416
Y0035416
X0093957
Y0033416
Y0031416
Y0029416
Y0027416
Y0025416
Y0023416
Y0021416
Y0019416
Y0017416
X0091957
Y0019416
Y0021416
Y0023416
Y0025416
Y0027416
Y0029416
Y0031416
Y0033416
Y0035416
X0089957
Y0033416
Y0031416
Y0029416
Y0027416
Y0025416
Y0023416
Y0021416
Y0019416
Y0017416
X0087957
Y0019416
Y0021416
Y0023416
Y0025416
Y0027416
Y0029416
Y0031416
Y0033416
Y0035416
X0085957
Y0033416
Y0031416
Y0029416
Y0027416
Y0025416
Y0023416
Y0021416
Y0019416
Y0017416
X0083957
Y0019416
Y0021416
Y0023416
Y0025416
Y0027416
Y0029416
Y0031416
Y0033416
Y0035416
X0081957
Y0037416
X0079957
Y0035416
Y0033416
X0081957
Y0031416
Y0029416
Y0027416
Y0025416
Y0023416
Y0021416
Y0019416
Y0017416
X0079957
Y0019416
Y0021416
Y0023416
Y0025416
Y0027416
Y0029416
Y0031416
X0077957
Y0033416
Y0035416
Y0037416
Y0039416
Y0041416
X0075957Y0045416
Y0047416
Y0049416
Y0051416
Y0053416
Y0055416
X0073957
Y0053416
X0071957
Y0055416
X0069957
Y0053416
Y0051416
X0071957
Y0049416
Y0047416
X0069957
Y0049416
Y0043416
X0071957
Y0037416
Y0035416
X0073957
X0071957Y0033416
Y0031416
X0069957
Y0033416
Y0035416
Y0039416
Y0029416
X0073957
X0075957
X0077957
Y0027416
Y0025416
Y0023416
Y0021416
Y0019416
Y0017416
X0075957
Y0019416
Y0021416
Y0023416
Y0025416
Y0027416
X0073957
Y0025416
Y0023416
Y0021416
Y0019416
Y0017416
X0071957
Y0019416
Y0021416
Y0023416
Y0025416
Y0027416
X0069957Y0025416
Y0023416
Y0021416
Y0019416
Y0017416
X0075957Y0031416
X0067957
Y0033416
Y0037416
Y0041416
Y0045416
Y0047416
Y0049416
Y0051416
Y0053416
Y0055416
X0065957
Y0053416
Y0051416
X0063957
Y0053416
Y0055416
X0061957
Y0053416
Y0051416
Y0049416
X0063957
Y0047416
X0065957
Y0045416
Y0043416
X0063957
Y0045416
X0061957
Y0047416
X0059957
Y0049416
Y0051416
Y0053416
Y0055416
X0057957
Y0053416
Y0051416
Y0049416
Y0047416
X0059957Y0045416
Y0043416
X0061957
Y0041416
X0063957
X0065957Y0039416
Y0035416
Y0031416
Y0029416
X0067957
Y0027416
X0065957
Y0025416
X0063957
Y0027416
Y0029416
Y0033416
Y0037416
X0061957Y0039416
X0059957
Y0041416
X0057957
Y0039416
Y0037416
X0059957
X0061957Y0035416
Y0031416
Y0027416
Y0025416
Y0023416
X0063957
X0067957
Y0021416
Y0019416
Y0017416
X0065957
Y0019416
Y0021416
X0063957Y0019416
Y0017416
X0061957
Y0019416
Y0021416
X0059957
Y0023416
Y0025416
Y0029416
Y0033416
X0057957Y0035416
X0055957
Y0037416
Y0039416
Y0041416
X0053957
Y0039416
Y0037416
Y0035416
Y0033416
X0055957
X0057957Y0031416
Y0027416
Y0023416
Y0021416
Y0019416
X0059957
Y0017416
X0057957
X0055957
Y0019416
Y0021416
Y0025416
Y0029416
X0053957Y0031416
X0051957
Y0033416
Y0035416
X0049957
Y0033416
Y0031416
Y0029416
X0051957
X0053957Y0027416
Y0023416
Y0019416
Y0017416
X0051957
Y0019416
X0049957
Y0017416
X0047957
Y0019416
X0045957Y0017416
X00382Y00176
Y00186
X00352
X0035957Y0019416
X00352Y00166
X0029957Y0019416
X0031957Y0023416
Y0027416
X0033957
X0035957
X0037957
X0041957
X0047957
X0049957
X0051957Y0025416
X0049957Y0023416
X0047957Y0025416
X0045957
X0047957Y0029416
Y0031416
Y0033416
X0045957
Y0035416
Y0037416
Y0039416
X00465Y00397
Y00407
X00464Y00417
X0046Y00422
X00464Y00427
X0045957Y0043416
Y0045416
X00466Y00481
X0045957Y0049416
X00464Y00499
X00465Y00507
X00459Y00521
X00438
X0043957Y0051416
X0041957
Y0049416
Y0047416
X0043957
X0041957Y0045416
Y0043416
Y0041416
Y0039416
Y0037416
Y0035416
Y0033416
X00394Y00339
X00386
X0037957Y0033416
X00367Y00339
X00359
X0033957Y0035416
Y0037416
X0031957
Y0039416
Y0041416
X0033957
X0035957
X0037957
X0039957
Y0043416
Y0045416
Y0047416
Y0049416
Y0051416
X0037957
Y0049416
Y0047416
Y0045416
Y0043416
X0035957
Y0045416
Y0047416
Y0049416
Y0051416
X0033957
Y0049416
Y0047416
Y0045416
Y0043416
X0031957
Y0047416
Y0049416
Y0051416
X0029957
X00297Y00546
X0031957Y0055416
X0033957
X0037Y00546
X0037957Y0055416
X0039957
X0041957
X0047957
X0049957
X0051957
X0053957
X0055957
Y0053416
Y0051416
Y0049416
X0053957
Y0051416
Y0053416
X0051957
X0049957
X0047957
X0053957Y0047416
X0051957Y0041416
X0049957
X0039957Y0039416
Y0037416
Y0035416
X0037957
Y0037416
Y0039416
X0035957
X0031957Y0035416
Y0029416
X0035957
X0029957Y0025416
X0027957Y0021416
Y0019416
X00265Y00191
Y00177
X0021957Y0017416
Y0019416
Y0021416
X0023957
Y0023416
X0025957
X0021957
Y0025416
Y0027416
Y0029416
X0023957
Y0031416
X0025957
Y0033416
X0021957Y0031416
X0019957
Y0033416
Y0035416
X0017957
Y0037416
X0015957
Y0035416
Y0033416
X0017957
Y0031416
Y0029416
X0019957
Y0027416
Y0025416
Y0023416
Y0021416
Y0019416
Y0017416
X0017957
Y0019416
Y0021416
Y0023416
Y0025416
Y0027416
X0015957
Y0029416
Y0031416
X0013957
Y0033416
Y0035416
Y0037416
X0011957
Y0035416
Y0033416
Y0031416
Y0029416
X0013957
Y0027416
Y0025416
X0015957
Y0023416
Y0021416
Y0019416
Y0017416
X0013957
Y0019416
Y0021416
Y0023416
X0011957
Y0025416
Y0027416
X0009957
Y0029416
Y0031416
Y0033416
Y0035416
Y0037416
Y0041416
X0011957
X00132Y0042355
Y0043655
X0015957Y0043416
Y0041416
X0019957
X00212Y0039045
Y0037745
X0023957Y0039416
X0024Y00446
X0023957Y0045416
Y0047416
X00224Y00478
X0021957Y0045416
X0019957
Y0047416
Y0049416
Y0051416
X0021957
X0023957
X0024Y00495
X00254Y00481
X00281Y00503
X00284Y00511
X0025957Y0053416
Y0055416
X0023957
Y0053416
X0021957
Y0055416
X0019957
Y0053416
X0017957
Y0055416
X0015957
Y0053416
Y0051416
X0017957
Y0049416
Y0047416
X0015957
Y0049416
X0013957
Y0051416
Y0053416
Y0055416
X0011957
Y0053416
Y0051416
Y0049416
Y0047416
X0013957
X0009957
Y0049416
Y0051416
Y0053416
Y0055416
X0007957
Y0053416
Y0051416
Y0049416
Y0047416
Y0045416
X0009957
X0007957Y0043416
X0005957
Y0045416
Y0047416
Y0049416
Y0051416
Y0053416
Y0055416
X0003957
Y0053416
Y0051416
Y0049416
Y0047416
Y0045416
Y0043416
Y0041416
Y0039416
Y0037416
Y0035416
Y0033416
X0005957
X0007957
Y0031416
Y0029416
Y0027416
Y0025416
X0009957
Y0023416
Y0021416
X0011957
Y0019416
Y0017416
X0009957
Y0019416
X0007957
Y0021416
Y0023416
X0005957
Y0025416
Y0027416
Y0029416
Y0031416
X0003957
Y0029416
Y0027416
Y0025416
Y0023416
Y0021416
X0005957
Y0019416
Y0017416
X0007957
X0003957
Y0019416
Y0057416
X0005957
X0007957
X0009957
X0011957
X0013957
X0015957
X0017957
X0019957
X0021957
X0023957
X0025957
Y0059416
X0027957
Y0061416
Y0063416
Y0065416
Y0067416
Y0069416
Y0071416
X0025957Y0073416
Y0075416
X00274Y00768
X0027957Y0081416
Y0083416
Y0085416
Y0087416
Y0089416
Y0091416
Y0093416
Y0095416
X0025957
Y0093416
Y0091416
Y0089416
Y0087416
Y0085416
Y0083416
Y0081416
X0023957Y0085416
Y0087416
Y0089416
Y0091416
Y0093416
Y0095416
X0021957
Y0093416
Y0091416
Y0089416
Y0087416
Y0085416
X0019957
Y0087416
Y0089416
Y0091416
Y0093416
Y0095416
X0017957
Y0093416
Y0091416
Y0089416
Y0087416
Y0085416
X0015957
Y0087416
Y0089416
Y0091416
Y0093416
Y0095416
X0013957
Y0093416
Y0091416
Y0089416
Y0087416
Y0085416
Y0083416
Y0081416
Y0079416
Y0077416
Y0075416
Y0073416
X0011957
X0009957
Y0071416
X0007957
Y0069416
Y0067416
Y0065416
X0011957
X0015957
X0017957
Y0067416
Y0069416
X0019957
X0021957
X0023957
X0025957
Y0067416
Y0065416
Y0063416
Y0061416
X0023957
Y0063416
Y0065416
Y0067416
X0021957
Y0065416
Y0063416
Y0061416
Y0059416
X0023957
X0019957
Y0061416
Y0063416
X0017957
Y0061416
Y0059416
X0015957
Y0061416
Y0063416
Y0067416
Y0069416
X0013957
X0011957
X0005957
Y0071416
X0003957
Y0069416
Y0067416
X0005957
X0003957Y0065416
Y0063416
Y0061416
X0005957
X0007957
Y0059416
X0009957
X0011957
X0013957
Y0061416
X0011957
X00107Y00613
X0005957Y0059416
X0003957
X0005957Y0075416
Y0077416
X0007957
Y0079416
X0009957
X0011957
Y0083416
Y0085416
Y0087416
Y0089416
Y0091416
Y0093416
Y0095416
X0009957Y0089416
Y0087416
Y0085416
Y0083416
X0007957
Y0085416
Y0087416
X0005957
Y0085416
Y0083416
Y0081416
X0007957
X0003957Y0083416
Y0085416
Y0087416
Y0089416
Y0095416
Y0077416
X0029957
X00301Y0078
X00306Y00769
X0029957Y0075416
X0031957
X0033957
Y0077416
X0037957
Y0075416
X0039957
X0041957
Y0073416
X0043957
X0045957
Y0071416
X0047957
X0049957
X0051957
X0053957
X0055957
X0057957
X0059957
X0061957
X0063957
X0065957
X0067957
Y0069416
Y0067416
Y0065416
Y0063416
Y0061416
Y0059416
Y0057416
X0065957
Y0059416
Y0061416
Y0063416
Y0065416
Y0067416
Y0069416
X0063957
Y0067416
Y0065416
Y0063416
Y0061416
Y0059416
Y0057416
X0061957
Y0059416
Y0061416
Y0063416
Y0065416
Y0067416
Y0069416
X0059957
Y0067416
Y0065416
Y0063416
Y0061416
Y0059416
Y0057416
X0057957
Y0059416
Y0061416
Y0063416
Y0065416
Y0067416
Y0069416
X0055957
Y0067416
Y0065416
Y0063416
Y0061416
Y0059416
Y0057416
X0053957
Y0059416
Y0061416
Y0063416
Y0065416
Y0067416
Y0069416
X0051957
Y0067416
Y0065416
Y0063416
Y0061416
Y0059416
Y0057416
X0049957
Y0059416
Y0061416
Y0063416
Y0065416
Y0067416
Y0069416
X0047957
Y0067416
Y0065416
Y0063416
Y0061416
Y0059416
Y0057416
X0043957Y0059416
X0041957
Y0057416
X0039957
Y0059416
Y0061416
Y0063416
X0041957
Y0065416
Y0067416
Y0069416
X0043957
X0045957
Y0067416
X0043957Y0071416
X0041957
X0039957
Y0073416
X0037957
Y0071416
X0039957Y0069416
X0033957
Y0071416
Y0073416
X0031957
Y0071416
Y0069416
Y0067416
X0033957
Y0065416
X0035957
Y0063416
Y0061416
Y0059416
X0037957
Y0057416
X0033957
Y0059416
Y0061416
Y0063416
X0031957
Y0065416
X0029957
Y0067416
Y0069416
Y0071416
Y0073416
Y0081416
Y0083416
X0031957
Y0085416
Y0087416
X0033957
X0035957
Y0089416
X0037957
Y0091416
X0039957
X0041957
Y0093416
X0043957
Y0095416
X0045957
X0049957
X0053957
Y0093416
Y0091416
Y0089416
X0055957
X0057957
X0059957
X0061957
X0063957
X0067957
Y0091416
Y0093416
Y0095416
X0065957
Y0093416
Y0091416
Y0087416
X0067957
Y0085416
Y0083416
Y0081416
X0065957
X0063957
Y0083416
Y0085416
X0065957
X0061957Y0087416
Y0091416
X0063957Y0093416
Y0095416
X0061957Y0083416
Y0081416
X0059957
Y0085416
X0057957Y0087416
X0055957
X0053957
X0051957
Y0089416
X0049957
Y0087416
X0047957
Y0089416
Y0091416
Y0093416
X0045957Y0091416
Y0085416
X00471Y00827
X0045957Y0081416
X0043957Y0083416
Y0079416
X0041957
Y0081416
X0039957
Y0083416
Y0085416
X0041957
X0035957
Y0083416
X0039957Y0079416
X0047957Y0075416
X0049957
X0051957
X0053957
X0055957
X0057957
X0059957
X0061957
X0063957
X0065957
X0067957
X00652Y00778
X0057957Y0083416
X0055957
X0056Y00824
X0041957Y0095416
X0039957
Y0093416
X0037957
Y0095416
X0035957
Y0093416
Y0091416
X0033957
Y0093416
Y0095416
X0031957
Y0093416
Y0091416
Y0089416
X0033957
X0029957
Y0091416
Y0093416
Y0095416
Y0087416
Y0085416
Y0063416
Y0061416
X0031957
Y0059416
Y0057416
X0029957Y0059416
X0069957
X0071957
X0073957
X0075957
Y0061416
Y0063416
Y0065416
Y0067416
Y0069416
Y0071416
Y0075416
Y0077416
Y0079416
Y0081416
Y0083416
Y0085416
Y0087416
Y0089416
X0073957Y0087416
Y0085416
Y0083416
X0071957
Y0085416
Y0087416
X0069957
Y0089416
Y0085416
Y0083416
Y0081416
X0071957
X00711Y00802
X007Y00773
X0071957Y0075416
Y0073416
Y0071416
Y0069416
Y0067416
Y0065416
X0073957
Y0063416
Y0061416
X0071957
Y0063416
X0069957
Y0065416
Y0067416
Y0069416
Y0071416
Y0073416
Y0061416
Y0057416
X0071957
X0073957
X0075957
X0069957Y0095416
T02
X0002461Y000207
X0003385Y0001473
X000444Y0001163
X0005539Y0001119
X0006639
X0007739
X0008839
X0009939
X0011039
X0012139
X0013239
X0014339
X0015439
X0016539
X0017639
X0018739
X0019839
X0020939
X0022039
X0023139
X0024239
X0025339
X0026439
X0027539
X0028639
X0001738Y0002899
X0001283Y00039
X0001118Y0004988
X0001119Y0006088
Y0007188
Y0008288
Y0009388
Y0010488
Y0011588
Y0012688
Y0013788
Y0014888
Y0015988
X0029739Y0001119
X0030839
X0031939
X0033039
X0034139
X0035239
X0036339
X0037439
X0038539
X0039639
X0040739
X0041839
X0042939
X0044039
X0045139
X0046239
X0047339
X0048439
X0049539
X0050639
X0051739
X0052839
X0053939
X0055039
X0056139
X0057239
X0058339
X0059439
X0060539
X0061639
X0062739
X0063839
X0064939
X0066039
X0067139
X0068239
X0069339
X0070439
X0071539
X0072639
X0073739
X0074839
X0075939
X0077039
X0078139
X0079239
X0080339
X0081439
X0082539
X0083639
X0084739
X0085839
X0086939
X0088039
X0089139
X0090239
X0091339
X0092439
X0093539
X0094639
X0095737Y0001193
X0096776Y0001552
X0097673Y000219
X0098354Y0003054
X0098767Y0004073
X0098881Y0005167
Y0006267
Y0007367
Y0008467
Y0009567
Y0010667
Y0011767
Y0012867
Y0013967
Y0015067
Y0016167
Y0017267
Y0018367
Y0019467
Y0020567
Y0021667
Y0022767
Y0023867
Y0024967
Y0026067
Y0027167
Y0028267
Y0029367
Y0030467
Y0031567
Y0032667
Y0033767
Y0034867
X0098758Y003596
X0098337Y0036976
X0097647Y0037833
X0096746Y0038464
X0095703Y0038813
X0094605Y0038881
X0093505
X0092405
X0091305
X0090205
X0089105
X0088005
X0086905
X0085805
X0084705Y0038894
X0083616Y0039048
X0082571Y0039392
X0081603Y0039915
X0080747Y0040606
X008003Y004144
X0079469Y0042386
X0079095Y004342
X0078909Y0044504
X0078881Y0045604
Y0046704
Y0047804
Y0048904
Y0050004
Y0051104
Y0052204
Y0053304
Y0054404
Y0055504
X0001119Y0055588
Y0054488
Y0053388
Y0052288
Y0051188
Y0050088
Y0048988
Y0047888
Y0046788
Y0045688
Y0044588
Y0043488
Y0042388
Y0041288
Y0040188
Y0039088
Y0037988
Y0036888
Y0035788
Y0034688
Y0033588
Y0032488
Y0031388
Y0030288
Y0029188
Y0028088
Y0026988
Y0025888
Y0024788
Y0023688
Y0022588
Y0021488
Y0020388
Y0019288
Y0018188
Y0017088
Y0056688
Y0057788
Y0058888
Y0059988
Y0061088
Y0062188
Y0063288
Y0064388
Y0065488
Y0066588
Y0067688
Y0068788
Y0069888
Y0070988
Y0072088
Y0073188
Y0074288
Y0075388
Y0076488
Y0077588
Y0078688
Y0079788
Y0080888
Y0081988
Y0083088
Y0084188
Y0085288
Y0086388
Y0087488
Y0088588
Y0089688
Y0090788
Y0091888
Y0092988
Y0094088
X0001128Y0095188
X0078877Y0095104
X0078881Y0094004
Y0092904
Y0091804
Y0090704
Y0089604
Y0088504
Y0087404
Y0086304
Y0085204
Y0084104
Y0083004
Y0081904
Y0080804
Y0079704
Y0078604
Y0077504
Y0076404
Y0075304
Y0074204
Y0073104
Y0072004
Y0070904
Y0069804
Y0068704
Y0067604
Y0066504
Y0065404
Y0064304
Y0063204
Y0062104
Y0061004
Y0059904
Y0058804
Y0057704
Y0056604
X0078692Y0096188
X0078209Y0097177
X007747Y0097992
X007653Y0098562
X0075013Y0098882
X0073913Y0098881
X0072813
X0071713
X0070613
X0069513
X0068413
X0067313
X0066213
X0065113
X0064013
X0062913
X0061813
X0060713
X0059613
X0058513
X0057413
X0056313
X0055213
X0054113
X0053013
X0051913
X0050813
X0049713
X0048613
X0047513
X0046413
X0045313
X0044213
X0043113
X0042013
X0040913
X0039813Y0098881
X0038713
X0037613
X0036513
X0035413
X0034313
X0033213
X0032113
X0031013
X0029913
X0028813
X0027713
X0026613
X0025513
X0024413
X0023313
X0022213
X0021113
X0020013
X0018913
X0017813
X0016713
X0015613
X0014513
X0013413
X0012313
X0011213
X0010113
X0009013
X0007913
X0006813
X0005713
X0004613Y0098861
X0003546Y0098594
X0002593Y0098045
X0001839Y0097244
X0001331Y0096269
T03
X0005384Y0005384
X0004714Y0007
X0005384Y0008616
X0007Y0009286
X0008616Y0008616
X0009286Y0007
X0008616Y0005384
X0007Y0004714
X0091384Y0005384
X0093Y0004714
X0094616Y0005384
X0095286Y0007
X0094616Y0008616
X0093Y0009286
X0091384Y0008616
X0090714Y0007
X0008616Y0091384
X0009286Y0093
X0008616Y0094616
X0007Y0095286
X0005384Y0094616
X0004714Y0093
X0005384Y0091384
X0007Y0090714
X0071384Y0091384
X0073Y0090714
X0074616Y0091384
X0075286Y0093
X0074616Y0094616
X0073Y0095286
X0071384Y0094616
X0070714Y0093
T04
X00736Y003424
Y003678
Y003932
Y004186
Y00444
Y004694
Y004948
Y005202
X00046Y007346
Y0076
X00646Y00919
Y009444
X00746Y008438
Y008184
Y00793
Y007676
Y007422
Y007168
Y006914
Y00666
T05
X0007Y0007
X0093
X0007Y0093
X0073
M30
